<?xml version="1.0" standalone="no"?>
<!DOCTYPE svg PUBLIC "-//W3C//DTD SVG 1.1//EN" "http://www.w3.org/Graphics/SVG/1.1/DTD/svg11.dtd" >
<svg xmlns="http://www.w3.org/2000/svg" xmlns:xlink="http://www.w3.org/1999/xlink" version="1.1">
<metadata>
Created by FontForge 20170731 at Sun Jan 24 17:44:48 2021
 By Aleksey,,,
Dirtyline Studio
</metadata>
<defs>
<font id="Scalter-SerifCondensed" horiz-adv-x="841" >
  <font-face 
    font-family="Scalter Cond Serif "
    font-weight="400"
    font-stretch="condensed"
    units-per-em="2048"
    panose-1="0 0 0 0 0 0 0 0 0 0"
    ascent="1536"
    descent="-512"
    x-height="1432"
    cap-height="1430"
    bbox="-150 -510 2331 1917"
    underline-thickness="102"
    underline-position="-358"
    unicode-range="U+000D-FB04"
  />
<missing-glyph horiz-adv-x="1202" 
 />
    <glyph glyph-name="fi" unicode="fi" horiz-adv-x="1226" 
d="M301 158l70 -39v-121h-334v121l76 43l2 710l-78 31v529h250l501 -2v-572h-485v-207l260 -6v-287l-262 2v-202zM1087 571l115 -45v-528h-418v528l115 45h2v697l-76 41v121h334v-121l-72 -39v-699z" />
    <glyph glyph-name="fl" unicode="fl" horiz-adv-x="1712" 
d="M301 158l70 -39v-121h-334v121l76 43l2 710l-78 31v529h250l501 -2v-572h-485v-207l260 -6v-287l-262 2v-202zM1606 700h77v-702h-849v528l94 37l2 705l-76 41v121h334v-121l-72 -39l-26 -699h524z" />
    <glyph glyph-name="f_f_i" unicode="ffi" horiz-adv-x="1701" 
d="M301 158l70 -39v-121h-334v121l76 43l2 710l-78 31v529h250l387 -2l252 2l710 -2v-121l-73 -39v-699l114 -45v-528h-417v528l114 45h2v287h-436v-207l260 -6v-287l-260 2v-202l70 -39v-121h-336v121l76 43l4 696h-451v-207l260 -6v-287l-262 2v-202z" />
    <glyph glyph-name="f_f_l" unicode="ffl" horiz-adv-x="2211" 
d="M301 158l70 -39v-121h-334v121l76 43l2 710l-78 31v529h250l409 -2l252 2l742 -2v-121l-72 -39l-29 -699h488l30 129h78v-702h-850v528l92 37l3 295h-467v-207l260 -6v-287l-260 2v-202l67 -39v-121h-334v121l76 43l2 696h-471v-207l260 -6v-287l-262 2v-202z" />
    <glyph glyph-name=".notdef" horiz-adv-x="1202" 
 />
    <glyph glyph-name="uni0000" horiz-adv-x="0" 
 />
    <glyph glyph-name="uni0000" horiz-adv-x="0" 
 />
    <glyph glyph-name="uni000D" unicode="&#xd;" horiz-adv-x="512" 
 />
    <glyph glyph-name="space" unicode=" " horiz-adv-x="86" 
 />
    <glyph glyph-name="exclam" unicode="!" horiz-adv-x="458" 
d="M412 1432q9 -99 -5 -212t-37 -201.5t-43 -212.5t-20 -235v-69h-162v69q0 111 -20 234.5t-42.5 213t-36.5 202t-5 211.5h371zM344 98q0 -40 -18.5 -69t-44.5 -29h-103q-26 0 -44.5 29t-18.5 69v160q0 40 18.5 69t44.5 29h103q26 0 44.5 -29t18.5 -69v-160z" />
    <glyph glyph-name="quotedbl" unicode="&#x22;" horiz-adv-x="690" 
d="M332 1329q0 -126 -24.5 -215.5t-67.5 -136t-91.5 -66.5t-107.5 -20v94q56 -3 101 50q40 48 30 90q-7 26 -35 36q-13 4 -22 12.5t-14.5 22.5t-9 25.5t-4.5 32.5t-1.5 32.5t0 35.5t0.5 32v35q0 50 23.5 83t56.5 35h92q30 1 52 -32.5t22 -79.5v-66zM631 1329
q0 -102 -16.5 -180t-44 -126t-66.5 -78.5t-79 -42t-87 -11.5v94q58 -3 102 50q41 48 30 90q-7 26 -36 36q-12 4 -21 12.5t-14.5 22.5t-8.5 25.5t-4 32t-1.5 32.5t0 35.5t0.5 32.5v35q0 50 23 83t55 35h94q30 1 52 -32.5t22 -79.5v-66z" />
    <glyph glyph-name="numbersign" unicode="#" horiz-adv-x="735" 
d="M383 373l-109 2l-47 -293h-118l47 295l-140 2l31 178l137 -2l27 160l-160 4l31 178l158 -4l47 289h119l-48 -291l109 -2l47 293h121l-49 -295l141 -2l-31 -178l-139 2l-27 -160l160 -4l-31 -178l-157 4l-47 -289h-119zM330 713l-27 -160l109 -2l26 160z" />
    <glyph glyph-name="dollar" unicode="$" horiz-adv-x="866" 
d="M668 109h-93v-195h-243v195h-297v329h334l22 -90h150q77 3 73 82q-2 33 -18.5 58.5t-48.5 25.5q-19 0 -57.5 -1.5t-66.5 -2.5t-69 1t-71.5 6.5t-67.5 16t-64 28.5t-53.5 44.5t-43.5 63.5t-27.5 86.5t-10.5 111.5q0 415 316 451v213h243l-6 -209h252v-582h-291l-43 97h-77
q-44 -2 -69.5 -18.5t-25.5 -65.5q0 -45 23 -71.5t65 -27.5q38 -1 100.5 1.5t90.5 2.5q132 0 183.5 -137.5t14 -275t-123.5 -137.5z" />
    <glyph glyph-name="percent" unicode="%" horiz-adv-x="929" 
d="M545 1434h125l-260 -1434h-127zM375 1055q0 -99 -43 -159t-133 -60q-89 0 -132.5 60t-43.5 159v153q0 109 45.5 165.5t130.5 56.5t130.5 -56.5t45.5 -165.5v-153zM109 1161q3 -45 25.5 -67.5t47.5 -22.5h39q24 0 44.5 21.5t23.5 64.5v43q-1 47 -24.5 62.5t-65.5 15.5
t-66 -17t-24 -67v-33zM889 221q0 -99 -43 -159t-133 -60q-88 0 -132 60.5t-44 158.5v154q0 109 45 165t131 56t131 -56t45 -165v-154zM623 328q3 -45 25.5 -67.5t47.5 -22.5h39q24 0 44.5 22.5t23.5 67.5v32q0 50 -24 67t-66 17t-66 -17t-24 -67v-32z" />
    <glyph glyph-name="ampersand" unicode="&#x26;" horiz-adv-x="1277" 
d="M344 -61q-61 -3 -119 21t-105 72t-75.5 127.5t-28.5 178.5q0 93 24.5 173.5t71.5 143.5t96 109t116 94q-64 220 -64 344q0 164 88.5 274.5t245.5 110.5q66 0 118 -20t82.5 -51.5t50.5 -75t27 -84.5t7 -86q0 -56 -11 -106.5t-35.5 -96.5t-48 -81t-65.5 -77t-68.5 -66.5
t-75.5 -66.5q48 -117 64 -153q35 95 88.5 147.5t144.5 52.5h363v-493h-340q-57 3 -111 -27l168 -336h-247q-35 64 -84 168q-34 -45 -57 -72t-58.5 -58.5t-75.5 -47.5t-86 -18zM469 1167q0 -72 35 -188q88 61 132 112.5t44 116.5q0 50 -24.5 77.5t-55.5 27.5
q-52 0 -91.5 -35.5t-39.5 -110.5zM301 350q0 -77 30 -128.5t79 -51.5q50 0 81.5 30.5t55.5 88.5q-81 177 -139 327q-107 -133 -107 -266z" />
    <glyph glyph-name="quotesingle" unicode="'" horiz-adv-x="376" 
d="M332 1329q0 -126 -24.5 -215.5t-67.5 -136t-91.5 -66.5t-107.5 -20v94q56 -3 101 50q40 48 30 90q-7 26 -35 36q-13 4 -22 12.5t-14.5 22.5t-9 25.5t-4.5 32.5t-1.5 32.5t0 35.5t0.5 32v35q0 50 23.5 83t56.5 35h92q30 1 52 -32.5t22 -79.5v-66z" />
    <glyph glyph-name="parenleft" unicode="(" horiz-adv-x="557" 
d="M373 215h164v-268h-150q-85 0 -153.5 63.5t-111.5 171.5t-66 246t-23 291q0 150 23 286.5t66 245.5t112 173.5t153 64.5h150v-268h-164q-49 -5 -85 -31t-64 -82.5t-42 -153.5t-14 -235q0 -135 14 -232t42 -154.5t64 -85t85 -32.5z" />
    <glyph glyph-name="parenright" unicode=")" horiz-adv-x="561" 
d="M512 715q1 -150 -21.5 -285.5t-64.5 -242t-109 -169.5t-149 -63h-143v266h157q47 5 82.5 32t63 83t41.5 151t14 228q0 180 -26 290.5t-68.5 154.5t-106.5 50h-157v265h143q109 0 189 -110.5t117.5 -280t37.5 -369.5z" />
    <glyph glyph-name="asterisk" unicode="*" horiz-adv-x="593" 
d="M532 788l-172 162l7 -307h-121l8 324l-178 -181l-58 166l197 119l-197 137l58 164l178 -176l-8 342h121l-9 -350l174 186l58 -164l-199 -129l199 -129z" />
    <glyph glyph-name="plus" unicode="+" horiz-adv-x="591" 
d="M588 524h-180v-315h-189l-2 315h-180v215h182v318h189v-318h180v-215z" />
    <glyph glyph-name="comma" unicode="," horiz-adv-x="323" 
d="M287 168q0 -102 -16.5 -179.5t-44 -125.5t-66.5 -78t-79 -41.5t-87 -11.5v92q58 -4 104 51q40 49 29 90q-7 25 -35 35q-13 4 -22 12.5t-14.5 22.5t-9 26t-4.5 33t-1.5 32.5t0 35t0.5 31.5v34q0 50 23.5 84.5t56.5 36.5h92q31 0 52.5 -34t21.5 -81v-65z" />
    <glyph glyph-name="hyphen" unicode="-" horiz-adv-x="626" 
d="M37 778h551v-293h-551v293z" />
    <glyph glyph-name="period" unicode="." horiz-adv-x="307" 
d="M268 98q0 -40 -18.5 -69t-44.5 -29h-115q-26 0 -44.5 29t-18.5 69v176q0 41 18.5 70t44.5 29h115q27 0 45 -28.5t18 -70.5v-176z" />
    <glyph glyph-name="slash" unicode="/" horiz-adv-x="337" 
d="M262 1434h125l-260 -1434h-127z" />
    <glyph glyph-name="zero" unicode="0" horiz-adv-x="851" 
d="M870 469q0 -115 -24 -209t-73.5 -167.5t-133 -114.5t-193.5 -41q-108 0 -190.5 41t-132.5 114t-75 168t-25 209l2 440q1 258 109 390.5t312 134.5q201 -2 311 -135.5t111 -389.5zM256 696q5 -46 23 -80.5t42.5 -51.5t47.5 -24.5t45 -7.5h67q22 0 46 8.5t49.5 28t43 58.5
t19.5 92l2 147q-3 260 -197 260q-93 0 -140.5 -68t-49.5 -192z" />
    <glyph glyph-name="one" unicode="1" horiz-adv-x="579" 
d="M385 567h162v-565h-512v565h162l2 650q-58 -48 -131 -70v178q90 37 133 111h186z" />
    <glyph glyph-name="two" unicode="2" horiz-adv-x="1030" 
d="M844 274h80v-270h-693q-41 0 -69 5.5t-47.5 23.5t-30 39t-16.5 64.5t-7.5 86t-1.5 117.5q0 119 58 188.5t125 69.5q40 0 103.5 -0.5t107.5 -0.5t75 1q57 0 87 32t30 109q0 42 -9 68.5t-27 37.5t-34.5 14t-42.5 3q-82 0 -382 6l-23 -98h-78v100h-2v564h494
q233 0 342.5 -134.5t109.5 -402.5q0 -283 -102.5 -444.5t-300.5 -161.5q-55 0 -211 -4q-55 0 -75 -8.5t-21 -40.5q0 -41 21 -54.5t83 -13.5h422z" />
    <glyph glyph-name="three" unicode="3" horiz-adv-x="907" 
d="M471 6q-33 0 -229 -4t-207 -4v281h78l24 -109q393 6 404 6q98 0 98 76q0 35 -21 55.5t-61 20.5h-379v284q82 0 130.5 2.5t93 10.5t66 23.5t34 41t12.5 64.5q0 58 -30 83t-76 25h-285l-10 -92h-78v664h297q267 0 401.5 -119t134.5 -367q0 -202 -139 -344q60 -21 92.5 -100
t32.5 -187q0 -86 -19.5 -154.5t-62.5 -112.5t-104 -44h-197z" />
    <glyph glyph-name="four" unicode="4" horiz-adv-x="786" 
d="M696 164l72 -39v-121h-334v121l72 39v182q1 53 -14.5 87.5t-43 50.5t-63.5 25t-76 15t-80.5 15t-77 30.5t-65 57t-45 99t-16.5 151.5v557h370v-523q3 -57 15.5 -94.5t24 -51t37.5 -32t36 -28.5l4 729h186z" />
    <glyph glyph-name="five" unicode="5" horiz-adv-x="999" 
d="M963 432q0 -428 -283 -428h-580v371h373l-2 -121h172q15 0 25.5 1t28.5 7.5t29.5 19t20.5 37.5t9 60q0 19 -3 34.5t-7 25t-11.5 16.5t-12.5 10.5t-14.5 5.5t-13.5 2.5t-13 0.5l-9 -1q-66 1 -126.5 0t-115 2t-102 10.5t-88.5 25.5t-74.5 46.5t-59 74.5t-43 108.5
t-26 149.5t-8.5 197l2 347h944v-480v-84v-114h-80l-25 112q-44 -1 -125 -2.5t-146 -2.5t-120 -1q-16 0 -26 -1t-26 -5.5t-25.5 -13t-17 -25.5t-7.5 -41q0 -26 9 -44.5t19.5 -27.5t31.5 -13.5t31.5 -5.5t34.5 0t27 1h56l92 2q8 0 26 1t29 1q98 0 164 -63.5t66 -194.5z" />
    <glyph glyph-name="six" unicode="6" horiz-adv-x="978" 
d="M575 4l-120 -2h-60q-370 3 -370 514v404q0 119 26.5 210.5t68.5 147.5t102.5 91t122 48t132.5 13h121l240 4h120v-678h-77q-2 7 -3.5 18.5t-4 44.5t5.5 55q-240 -11 -424 -16h-26h-34t-33.5 -4.5t-32 -13t-21.5 -26t-9 -42.5q0 -24 11 -40t32.5 -23.5t36.5 -10.5
t41.5 -4.5t28.5 -1.5q57 0 145 -2t143 -2q94 2 157.5 -68t63.5 -200q0 -87 -12.5 -155t-30 -111t-47.5 -73.5t-53 -45t-60.5 -22.5t-55.5 -8.5t-51 -0.5h-13h-60zM352 334q0 -13 2 -22.5t8.5 -15t10.5 -9t14.5 -5l14 -2t16 0t14.5 0.5h217h13h14t13 1t13.5 3t11 6.5t9.5 11
t5.5 16.5t2.5 23q0 14 -4.5 23.5t-10.5 14t-17 6.5t-17.5 2t-18 -0.5t-14.5 -0.5h-221h-19.5t-19 -2.5t-19.5 -8t-12 -16t-6 -26.5z" />
    <glyph glyph-name="seven" unicode="7" horiz-adv-x="770" 
d="M324 158l59 -33v-121h-336v121l86 47q13 89 41 163.5t63 125t75 93t79.5 77t73 68t58 75t32.5 88.5h-428l-25 -106h-77v678h714l2 -574q0 -74 -19 -134.5t-50.5 -103.5t-70.5 -80.5t-81 -75t-80 -78.5t-69.5 -100t-46.5 -130z" />
    <glyph glyph-name="eight" unicode="8" horiz-adv-x="946" 
d="M600 6q-16 0 -30.5 -1t-16.5 -1l-191 2q-348 5 -337 488q0 86 16.5 155.5t39 108.5t52 67.5t48.5 38.5t36 15q-13 9 -25.5 23.5t-29 42t-27 73t-10.5 100.5q0 80 19.5 144t50 100t63 54.5t61.5 17.5h338q77 3 129 -77t52 -239q0 -55 -10.5 -100.5t-27.5 -73t-29.5 -42
t-25.5 -23.5q61 -17 107 -80.5t67 -143.5t21 -161q0 -115 -22.5 -204t-57 -141.5t-81.5 -86t-90 -45t-89 -11.5zM375 1085q0 -18 5 -29.5t11.5 -18t22.5 -9.5t28 -3.5t39 -0.5t39 0.5t28.5 3.5t23.5 9t12 18t4 30q0 9 -2.5 16.5t-5.5 13t-9.5 9.5t-10 7t-12.5 5t-13 3
t-14.5 1.5t-13 0.5h-13.5h-11q-62 0 -82 -11q-25 -14 -26 -45zM430 575h98q54 0 74 17q25 20 25 61q0 17 -3.5 30t-11.5 21t-14.5 13t-18 6.5t-17 2t-17.5 0t-13 -0.5h-102q-94 0 -94 -72q0 -28 9.5 -45.5t26.5 -23.5t27.5 -7.5t26.5 -1.5h4z" />
    <glyph glyph-name="nine" unicode="9" horiz-adv-x="765" 
d="M784 547q0 -134 -37.5 -257t-110.5 -204.5t-163 -81.5h-457v721h80l8 -147h420q39 0 63.5 66.5t22.5 137.5q-37 -46 -107 -67t-134 -21q-228 0 -228 334q0 94 13.5 167.5t34.5 117.5t49.5 72t54.5 38.5t53 10.5l209 2q114 0 173.5 -86t59.5 -256q0 -89 -2 -271t-2 -276z
M389 1083q0 -38 13 -48.5t42 -10.5h105q28 0 37.5 15t9.5 44q0 35 -10.5 48.5t-36.5 13.5q-8 0 -29.5 0.5t-39.5 0.5t-31 -1q-33 0 -46.5 -14t-13.5 -48z" />
    <glyph glyph-name="colon" unicode=":" horiz-adv-x="299" 
d="M289 805q0 -41 -19 -69.5t-47 -28.5h-114q-26 0 -45 28.5t-19 69.5v176q0 40 19 69t45 29h114q28 0 47 -29t19 -69v-176zM289 98q0 -40 -19 -69t-47 -29h-114q-26 0 -45 29t-19 69v176q0 41 19 70t45 29h114q28 0 47 -29t19 -70v-176z" />
    <glyph glyph-name="semicolon" unicode=";" horiz-adv-x="331" 
d="M297 805q0 -41 -19 -69.5t-45 -28.5h-114q-26 0 -45 28.5t-19 69.5v176q0 40 19 69t45 29h114q26 0 45 -29t19 -69v-176zM293 168q0 -101 -17 -179t-44 -126t-66.5 -78t-79 -41.5t-86.5 -11.5v92q58 -3 103 51q39 49 28 90q-7 25 -35 35q-12 4 -21 12.5t-14.5 22.5
t-8.5 26t-4 32.5t-1.5 32.5t0 35.5t0.5 31.5v34q0 50 22.5 84.5t55.5 36.5h92q32 0 54 -33.5t22 -81.5v-65z" />
    <glyph glyph-name="less" unicode="&#x3c;" horiz-adv-x="704" 
d="M86 657l594 -237l-57 -281l-625 320v446l625 320l47 -273l-584 -245v-50z" />
    <glyph glyph-name="equal" unicode="=" horiz-adv-x="626" 
d="M37 778h551v-219h-551v219zM37 438h551v-217h-551v217z" />
    <glyph glyph-name="greater" unicode="&#x3e;" horiz-adv-x="663" 
d="M696 905v-446l-622 -320l-60 281l594 237v50l-581 245l47 273z" />
    <glyph glyph-name="question" unicode="?" horiz-adv-x="817" 
d="M786 1077q0 -90 -21 -146t-54.5 -79.5t-74 -37t-81 -29.5t-74 -46t-54.5 -98t-21 -174h-170q0 92 13 157t33.5 97.5t45 53t49.5 33.5t45.5 29.5t33.5 50.5t13 87q0 162 -78 162q-31 0 -50.5 -18.5t-25 -44.5t-6.5 -52.5t1 -45.5l3 -18l-309 -4q-9 68 -5.5 124.5t11.5 102
t26 81.5t38.5 63t49.5 46.5t58 32.5t64.5 20.5t69 10.5t71.5 3q71 0 125.5 -8t107.5 -31t87.5 -62t56 -105t22.5 -155zM442 100q0 -41 -18.5 -69.5t-44.5 -28.5h-115q-26 0 -44.5 28.5t-18.5 69.5v176q0 40 18.5 69.5t44.5 29.5h115q26 0 44.5 -29.5t18.5 -69.5v-176z" />
    <glyph glyph-name="at" unicode="@" horiz-adv-x="1347" 
d="M928 0q-49 -53 -167 -86t-198 -33q-91 0 -165 22.5t-124.5 58.5t-87.5 90.5t-58 109.5t-33.5 124.5t-16.5 126.5t-4 124v182q0 140 22.5 257t67 207.5t118.5 141.5t171 51l524 -2q115 0 194.5 -72.5t116.5 -197.5t37 -295q0 -130 -13 -226t-35 -156.5t-56.5 -97
t-73.5 -50.5t-90 -13q-33 0 -59 18t-40 43.5t-23 51t-12 43.5l-3 18v64q-62 -104 -139 -163.5t-189 -59.5q-114 0 -173 81t-59 216q0 96 16 167.5t43 115.5t68.5 71t87 37t103.5 10q112 0 242 -125v96l131 2q-29 -99 -35 -276q-3 -101 9.5 -173.5t37.5 -72.5q48 0 61 90.5
t13 317.5q0 307 -160 307l-404 2q-49 0 -88 -9.5t-81.5 -40t-70.5 -82t-46.5 -142.5t-18.5 -214q0 -140 15 -239.5t37.5 -153.5t59 -84t67.5 -37.5t75 -7.5q91 0 218.5 42t187.5 120v-299zM557 635q0 -34 9 -55t28 -30.5t38 -12t50 -2.5q92 0 229 137q-49 36 -115 56
t-104 20q-135 0 -135 -113z" />
    <glyph glyph-name="A" unicode="A" horiz-adv-x="1153" 
d="M514 131l27 -12v-121h-521v121h86q119 525 281 1229l-94 -31v113h518l262 -1270l74 -41v-121h-336v121l63 35q-2 66 -26.5 117.5t-56.5 79.5t-75.5 47t-73.5 25.5t-60 8.5zM621 598q102 -8 182 -61l-92 454z" />
    <glyph glyph-name="B" unicode="B" horiz-adv-x="1079" 
d="M1081 535q0 -108 -27.5 -203t-81 -170.5t-142.5 -119.5t-203 -44h-598v528l77 31l3 731l-80 29v113h80v2l100 -2h334q61 0 104.5 -43t63.5 -107t20 -139q0 -54 -14 -119q364 -66 364 -487zM295 1260v-113h147q68 0 68 55q0 27 -17 42.5t-67 15.5h-131zM295 864v-293h323
q43 0 76 39.5t33 100.5q0 80 -44.5 115.5t-150.5 35.5v2h-237z" />
    <glyph glyph-name="C" unicode="C" horiz-adv-x="1013" 
d="M922 698h77v-700h-452q-257 0 -385.5 141.5t-126.5 388.5l2 373q0 255 109 392t300 137h373v-455h-344l-29 172q-91 0 -157 -77t-66 -202v-96q0 -59 20.5 -101.5t53 -62.5t62.5 -28.5t59 -8.5h475z" />
    <glyph glyph-name="D" unicode="D" horiz-adv-x="1007" 
d="M999 719q-3 -363 -114.5 -542t-358.5 -179h-497v528l77 31l3 313l-80 33v527h456q255 3 386.5 -170.5t127.5 -540.5zM297 856l-2 -283h203q27 0 43 1t44 9t43.5 23t28.5 46t13 75q0 26 -6 47t-12 34.5t-21 23t-23 14.5t-30 7.5t-28.5 3t-32 0t-28.5 -0.5h-192z" />
    <glyph glyph-name="E" unicode="E" horiz-adv-x="774" 
d="M270 571h467v-573h-712v528l77 31l4 739l-81 25v113h712v-342h-80l-41 182h-323v-217l141 -4l27 116h78v-514h-78l-27 111h-141z" />
    <glyph glyph-name="F" unicode="F" horiz-adv-x="815" 
d="M301 158l70 -39v-121h-334v121l76 43l2 710l-78 31v529h250l501 -2v-572h-485v-207l260 -6v-287l-262 2v-202z" />
    <glyph glyph-name="G" unicode="G" horiz-adv-x="999" 
d="M510 915h465v-917l-193 2v190q-42 -65 -82.5 -106t-81 -58.5t-70.5 -22t-73 -3.5q-100 -1 -178.5 24.5t-132 71.5t-88.5 113t-50.5 146t-15.5 173v383q3 253 108 384.5t302 136.5h373v-457h-342l-29 174q-90 0 -157 -76.5t-68 -202.5l2 -90q1 -48 15 -86t35 -60.5t48 -37
t50 -20t44 -5.5h127q9 0 23 2t51.5 12.5t67.5 27t56.5 51.5t31.5 81h-238v170z" />
    <glyph glyph-name="H" unicode="H" horiz-adv-x="944" 
d="M289 158l69 -39v-121h-333v121l75 43l4 1106l-77 41v121h335v-121l-71 -39v-557q69 114 180 127v436l-74 33v121h74l373 2v-2h71v-121l-71 -33v-1122l71 -35v-121h-518v121l74 35v493q-44 -5 -77.5 -46t-52 -94t-30.5 -121t-15.5 -114t-4.5 -86z" />
    <glyph glyph-name="I" unicode="I" horiz-adv-x="462" 
d="M326 571l114 -45v-528h-420v528l117 45v697l-76 41v121h336v-121l-71 -39v-699z" />
    <glyph glyph-name="J" unicode="J" horiz-adv-x="788" 
d="M690 731q8 -731 -264 -733h-406v702h80l29 -131q54 1 87.5 3t74 7.5t65 15t51 25t41.5 38t28.5 54.5t19 74.5t6.5 96.5v266h-58l-16 -105h-342v388h186v4h494v-287h-78q0 -264 2 -418z" />
    <glyph glyph-name="K" unicode="K" horiz-adv-x="1011" 
d="M287 158l71 -39v-121h-333v121l71 41l4 1108l-75 41v125h333v-125l-71 -39v-266l170 303l-27 10l-4 117h358l2 -117l-106 -43l-244 -440q33 -20 53.5 -54t30.5 -66.5t23 -64t39 -53t69 -25.5h250l12 129h78v-702h-362q-72 0 -118.5 40.5t-65.5 105.5t-27.5 143.5
t-12 157.5t-12 145t-34.5 107.5t-72 43.5v-583z" />
    <glyph glyph-name="L" unicode="L" horiz-adv-x="897" 
d="M791 700h79v-702h-852v528l95 37l2 705l-76 41v121h334v-121l-72 -39v-699h461z" />
    <glyph glyph-name="M" unicode="M" horiz-adv-x="985" 
d="M291 158l71 -37v-121h-335v121l75 41l2 696h-77l-2 574l172 2q46 0 81.5 -23t59.5 -67.5t39 -97.5t26 -124q23 148 70 231t135 83l348 -2l2 -576h-71v-702l71 -35v-121h-518v121l72 33l-2 680q-68 -58 -78 -312h-63q-7 105 -11.5 152.5t-21.5 101t-47 70.5z" />
    <glyph glyph-name="N" unicode="N" horiz-adv-x="1003" 
d="M289 158l69 -37v-121h-333v121l75 41l2 696h-77v574h266q55 0 93.5 -100t61.5 -252.5t43 -311t49.5 -299t69.5 -193.5l-2 586l-106 43v527h479v-1432h-371q-80 2 -126.5 78t-63 189.5t-26.5 230.5t-33 216t-68 130z" />
    <glyph glyph-name="O" unicode="O" 
d="M858 494q0 -91 -15 -169.5t-47.5 -145.5t-81 -114.5t-120 -74.5t-160.5 -27q-88 0 -159 27t-120 74.5t-82 114.5t-48 145.5t-15 169.5v442q3 257 111.5 389t312.5 135q201 -3 310 -135.5t112 -388.5zM201 713q6 -49 28.5 -85.5t52 -55t57 -27t52.5 -8.5h84q21 0 43.5 5
t49 19t47.5 35.5t36 58t17 82.5l2 158q-3 276 -240 279q-113 -1 -171 -74.5t-60 -206.5z" />
    <glyph glyph-name="P" unicode="P" horiz-adv-x="999" 
d="M299 158l70 -39v-121h-336v121l76 43l4 702l-80 2v564h493q233 0 344 -134.5t111 -402.5q0 -258 -117 -365.5t-370 -113.5q-88 -3 -195 0v-256zM518 858l-219 4v-157q35 1 108 1t105 1q26 1 40 2t31.5 5t26 12t15 22t6.5 34q0 18 -2.5 30.5t-10.5 21t-13 13t-19 7t-20 3
t-24.5 1t-23.5 0.5z" />
    <glyph glyph-name="Q" unicode="Q" horiz-adv-x="1310" 
d="M793 172q-102 -209 -359 -209q-108 0 -191 41t-133 114t-75 167.5t-25 208.5l2 442q1 259 110 391.5t312 132.5t312 -132.5t110 -391.5l2 -326q39 -31 86 -37h340v-573h-252q-144 0 -239 172zM201 713q1 -8 4 -21t4 -18q80 148 219 209q47 12 84 12q87 0 158 -64v66
q-1 123 -73.5 200t-162.5 77t-161 -77t-72 -200v-184zM313 555q43 -18 80 -18h82q37 0 78 16t70 51q-32 66 -67 98t-81 25q-5 -2 -13 -5t-30.5 -17t-42.5 -32t-41.5 -49.5t-34.5 -68.5z" />
    <glyph glyph-name="R" unicode="R" horiz-adv-x="1017" 
d="M653 285h342v-287h-362q-62 0 -103 17t-59 45.5t-28 64.5t-10.5 74.5t-5 75.5t-12 67t-32.5 50t-66 24h-28v-258l69 -37v-121h-335v121l75 41l4 704l-79 2v564h493q233 0 344 -134.5t111 -402.5q0 -243 -103.5 -350.5t-326.5 -126.5q18 -68 32 -88q26 -38 80 -45z
M508 858l-219 4v-157q34 1 107.5 2t105.5 2q32 0 49 1.5t35.5 8.5t26.5 23t8 42q0 15 -3 27t-6 20t-12 13.5t-13.5 8t-18 4t-18.5 1.5h-21.5h-20.5z" />
    <glyph glyph-name="S" unicode="S" horiz-adv-x="1017" 
d="M682 649q140 0 206 -139q56 -118 38 -274q-17 -140 -82 -203q-35 -33 -76 -33h-745v389h393l26 -104q33 -1 66.5 -1t66 0.5t43.5 0.5q93 0 89 94q-4 40 -23 69t-57 29q-23 0 -68.5 -1.5t-78 -2.5t-81 1t-84 7.5t-79.5 19t-75.5 33.5t-63 53t-51 75t-32 101.5t-12.5 131.5
q0 268 111 402.5t344 134.5h493v-684h-342l-51 112q-25 0 -56 -1t-36 -1q-24 -1 -41 -4.5t-34.5 -12.5t-27 -29t-10.5 -50q0 -54 27.5 -85t79.5 -32q44 -1 117 1.5t106 2.5z" />
    <glyph glyph-name="T" unicode="T" horiz-adv-x="995" 
d="M582 158l69 -37v-121h-336v121l76 41l4 696h-260l-22 -110h-80v684h932v-684h-80l-23 110h-280v-700z" />
    <glyph glyph-name="U" unicode="U" horiz-adv-x="1024" 
d="M993 788q0 -399 -90.5 -593.5t-253.5 -194.5l-243 2q-167 0 -254.5 163t-90.5 468v637l-75 41v123h336v-123l-76 -19v-659q0 -90 21 -167t63.5 -126.5t97.5 -50.5l57 2q38 1 66.5 33t42.5 80.5t20.5 94.5t6.5 89v274l-115 43v527h487v-644z" />
    <glyph glyph-name="V" unicode="V" horiz-adv-x="1140" 
d="M1116 1311l-67 -31l-293 -1290h-406l-262 1270l-74 40v121h336v-121l-69 -36l170 -836l196 860l-49 23v121h518v-121z" />
    <glyph glyph-name="W" unicode="W" horiz-adv-x="1558" 
d="M756 59q54 391 -41 766l-170 -825h-189l-262 1270l-74 41v121h334v-121l-67 -37l164 -807l163 807l-69 37v121h336v-121l-74 -41l-41 -195q77 -235 106 -502l166 725l-24 13v121h518v-121l-96 -45l-289 -1266h-406q1 9 11 43z" />
    <glyph glyph-name="X" unicode="X" horiz-adv-x="1048" 
d="M309 152l58 -31v-121h-336v121l80 43l208 629q-9 68 -21 119t-34.5 100t-53.5 79.5t-80 48t-112 15.5v279q168 9 261 -63.5t151 -248.5l53 158l-43 23v131h336v-131l-94 -52l-162 -479q35 -94 96.5 -148.5t133.5 -54.5h266v-569h-326q-107 0 -193.5 93.5t-123.5 246.5z
" />
    <glyph glyph-name="Y" unicode="Y" horiz-adv-x="1112" 
d="M618 158l70 -37v-121h-336v121l76 41l4 368l-326 734l-86 47v121h336v-121l-61 -33l158 -363l168 371l-52 25v121h518v-121l-67 -33l-399 -895h-3v-225z" />
    <glyph glyph-name="Z" unicode="Z" horiz-adv-x="991" 
d="M668 391h293v-391l-932 2l2 293q13 5 35 14t87 39.5t125.5 64t137 85t136 104.5t108.5 121t67 135h-326l-28 -176h-344v750h932v-574q-74 -155 -228.5 -314t-347.5 -251l266 -4z" />
    <glyph glyph-name="bracketleft" unicode="[" horiz-adv-x="485" 
d="M178 274h281v-274h-301q-78 0 -114 55t-44 172v1030q13 92 52 132.5t104 40.5h305v-275h-283q-25 2 -40.5 -10.5t-16.5 -48.5v-738q0 -52 14 -68t43 -16z" />
    <glyph glyph-name="backslash" unicode="\" horiz-adv-x="337" 
d="M262 1434h125l-260 -1434h-127z" />
    <glyph glyph-name="bracketright" unicode="]" horiz-adv-x="509" 
d="M485 227q-8 -117 -44 -172t-113 -55h-303v274h280q29 0 44 16t16 68v738q-3 37 -18 49t-40 10h-282v275h303q66 0 104 -40t53 -133v-1030z" />
    <glyph glyph-name="asciicircum" unicode="^" horiz-adv-x="471" 
d="M244 1360h-21l-100 -463l-119 45l135 485h189l133 -485l-113 -35z" />
    <glyph glyph-name="underscore" unicode="_" horiz-adv-x="686" 
d="M37 -72h610v-178h-610v178z" />
    <glyph glyph-name="grave" unicode="`" horiz-adv-x="290" 
d="M-94 1434h166l129 -238h-129z" />
    <glyph glyph-name="a" unicode="a" horiz-adv-x="1153" 
d="M514 131l27 -12v-121h-521v121h86q119 525 281 1229l-94 -31v113h518l262 -1270l74 -41v-121h-336v121l63 35q-2 66 -26.5 117.5t-56.5 79.5t-75.5 47t-73.5 25.5t-60 8.5zM621 598q102 -8 182 -61l-92 454z" />
    <glyph glyph-name="b" unicode="b" horiz-adv-x="1079" 
d="M1081 535q0 -108 -27.5 -203t-81 -170.5t-142.5 -119.5t-203 -44h-598v528l77 31l3 731l-80 29v113h80v2l100 -2h334q61 0 104.5 -43t63.5 -107t20 -139q0 -54 -14 -119q364 -66 364 -487zM295 1260v-113h147q68 0 68 55q0 27 -17 42.5t-67 15.5h-131zM295 864v-293h323
q43 0 76 39.5t33 100.5q0 80 -44.5 115.5t-150.5 35.5v2h-237z" />
    <glyph glyph-name="c" unicode="c" horiz-adv-x="1013" 
d="M922 698h77v-700h-452q-257 0 -385.5 141.5t-126.5 388.5l2 373q0 255 109 392t300 137h373v-455h-344l-29 172q-91 0 -157 -77t-66 -202v-96q0 -59 20.5 -101.5t53 -62.5t62.5 -28.5t59 -8.5h475z" />
    <glyph glyph-name="d" unicode="d" horiz-adv-x="1007" 
d="M999 719q-3 -363 -114.5 -542t-358.5 -179h-497v528l77 31l3 313l-80 33v527h456q255 3 386.5 -170.5t127.5 -540.5zM297 856l-2 -283h203q27 0 43 1t44 9t43.5 23t28.5 46t13 75q0 26 -6 47t-12 34.5t-21 23t-23 14.5t-30 7.5t-28.5 3t-32 0t-28.5 -0.5h-192z" />
    <glyph glyph-name="e" unicode="e" horiz-adv-x="774" 
d="M270 571h467v-573h-712v528l77 31l4 739l-81 25v113h712v-342h-80l-41 182h-323v-217l141 -4l27 116h78v-514h-78l-27 111h-141z" />
    <glyph glyph-name="f" unicode="f" horiz-adv-x="815" 
d="M301 158l70 -39v-121h-334v121l76 43l2 710l-78 31v529h250l501 -2v-572h-485v-207l260 -6v-287l-262 2v-202z" />
    <glyph glyph-name="g" unicode="g" horiz-adv-x="999" 
d="M510 915h465v-917l-193 2v190q-42 -65 -82.5 -106t-81 -58.5t-70.5 -22t-73 -3.5q-100 -1 -178.5 24.5t-132 71.5t-88.5 113t-50.5 146t-15.5 173v383q3 253 108 384.5t302 136.5h373v-457h-342l-29 174q-90 0 -157 -76.5t-68 -202.5l2 -90q1 -48 15 -86t35 -60.5t48 -37
t50 -20t44 -5.5h127q9 0 23 2t51.5 12.5t67.5 27t56.5 51.5t31.5 81h-238v170z" />
    <glyph glyph-name="h" unicode="h" horiz-adv-x="944" 
d="M289 158l69 -39v-121h-333v121l75 43l4 1106l-77 41v121h335v-121l-71 -39v-557q69 114 180 127v436l-74 33v121h74l373 2v-2h71v-121l-71 -33v-1122l71 -35v-121h-518v121l74 35v493q-44 -5 -77.5 -46t-52 -94t-30.5 -121t-15.5 -114t-4.5 -86z" />
    <glyph glyph-name="i" unicode="i" horiz-adv-x="462" 
d="M326 571l114 -45v-528h-420v528l117 45v697l-76 41v121h336v-121l-71 -39v-699z" />
    <glyph glyph-name="j" unicode="j" horiz-adv-x="788" 
d="M690 731q8 -731 -264 -733h-406v702h80l29 -131q54 1 87.5 3t74 7.5t65 15t51 25t41.5 38t28.5 54.5t19 74.5t6.5 96.5v266h-58l-16 -105h-342v388h186v4h494v-287h-78q0 -264 2 -418z" />
    <glyph glyph-name="k" unicode="k" horiz-adv-x="1011" 
d="M287 158l71 -39v-121h-333v121l71 41l4 1108l-75 41v125h333v-125l-71 -39v-266l170 303l-27 10l-4 117h358l2 -117l-106 -43l-244 -440q33 -20 53.5 -54t30.5 -66.5t23 -64t39 -53t69 -25.5h250l12 129h78v-702h-362q-72 0 -118.5 40.5t-65.5 105.5t-27.5 143.5
t-12 157.5t-12 145t-34.5 107.5t-72 43.5v-583z" />
    <glyph glyph-name="l" unicode="l" horiz-adv-x="897" 
d="M791 700h79v-702h-852v528l95 37l2 705l-76 41v121h334v-121l-72 -39v-699h461z" />
    <glyph glyph-name="m" unicode="m" horiz-adv-x="985" 
d="M291 158l71 -37v-121h-335v121l75 41l2 696h-77l-2 574l172 2q46 0 81.5 -23t59.5 -67.5t39 -97.5t26 -124q23 148 70 231t135 83l348 -2l2 -576h-71v-702l71 -35v-121h-518v121l72 33l-2 680q-68 -58 -78 -312h-63q-7 105 -11.5 152.5t-21.5 101t-47 70.5z" />
    <glyph glyph-name="n" unicode="n" horiz-adv-x="1003" 
d="M289 158l69 -37v-121h-333v121l75 41l2 696h-77v574h266q55 0 93.5 -100t61.5 -252.5t43 -311t49.5 -299t69.5 -193.5l-2 586l-106 43v527h479v-1432h-371q-80 2 -126.5 78t-63 189.5t-26.5 230.5t-33 216t-68 130z" />
    <glyph glyph-name="o" unicode="o" 
d="M858 494q0 -91 -15 -169.5t-47.5 -145.5t-81 -114.5t-120 -74.5t-160.5 -27q-88 0 -159 27t-120 74.5t-82 114.5t-48 145.5t-15 169.5v442q3 257 111.5 389t312.5 135q201 -3 310 -135.5t112 -388.5zM201 713q6 -49 28.5 -85.5t52 -55t57 -27t52.5 -8.5h84q21 0 43.5 5
t49 19t47.5 35.5t36 58t17 82.5l2 158q-3 276 -240 279q-113 -1 -171 -74.5t-60 -206.5z" />
    <glyph glyph-name="p" unicode="p" horiz-adv-x="999" 
d="M299 158l70 -39v-121h-336v121l76 43l4 702l-80 2v564h493q233 0 344 -134.5t111 -402.5q0 -258 -117 -365.5t-370 -113.5q-88 -3 -195 0v-256zM518 858l-219 4v-157q35 1 108 1t105 1q26 1 40 2t31.5 5t26 12t15 22t6.5 34q0 18 -2.5 30.5t-10.5 21t-13 13t-19 7t-20 3
t-24.5 1t-23.5 0.5z" />
    <glyph glyph-name="q" unicode="q" horiz-adv-x="1310" 
d="M795 176q-49 -101 -139.5 -157t-221.5 -56q-88 0 -159 27t-120 74.5t-82 114.5t-48 145.5t-15 169.5v442q3 257 111.5 389t312.5 135q201 -3 310 -135.5t112 -388.5v-326q43 -31 88 -37h340v-573h-252q-80 0 -136.5 46t-100.5 130zM201 713q5 -33 8 -43q19 36 44 70
t61.5 71.5t85 60.5t100.5 23q87 0 170 -76v76q-3 276 -240 279q-113 -1 -171 -74.5t-60 -206.5zM309 557q41 -20 82 -20h84q37 0 80 17.5t72 55.5q-58 119 -142 119q-46 0 -99 -44.5t-77 -127.5z" />
    <glyph glyph-name="r" unicode="r" horiz-adv-x="1017" 
d="M653 285h342v-287h-362q-62 0 -103 17t-59 45.5t-28 64.5t-10.5 74.5t-5 75.5t-12 67t-32.5 50t-66 24h-28v-258l69 -37v-121h-335v121l75 41l4 704l-79 2v564h493q233 0 344 -134.5t111 -402.5q0 -243 -103.5 -350.5t-326.5 -126.5q18 -68 32 -88q26 -38 80 -45z
M508 858l-219 4v-157q34 1 107.5 2t105.5 2q32 0 49 1.5t35.5 8.5t26.5 23t8 42q0 15 -3 27t-6 20t-12 13.5t-13.5 8t-18 4t-18.5 1.5h-21.5h-20.5z" />
    <glyph glyph-name="s" unicode="s" horiz-adv-x="1017" 
d="M682 649q140 0 206 -139q56 -118 38 -274q-17 -140 -82 -203q-35 -33 -76 -33h-745v389h393l26 -104q33 -1 66.5 -1t66 0.5t43.5 0.5q93 0 89 94q-4 40 -23 69t-57 29q-23 0 -68.5 -1.5t-78 -2.5t-81 1t-84 7.5t-79.5 19t-75.5 33.5t-63 53t-51 75t-32 101.5t-12.5 131.5
q0 268 111 402.5t344 134.5h493v-684h-342l-51 112q-25 0 -56 -1t-36 -1q-24 -1 -41 -4.5t-34.5 -12.5t-27 -29t-10.5 -50q0 -54 27.5 -85t79.5 -32q44 -1 117 1.5t106 2.5z" />
    <glyph glyph-name="t" unicode="t" horiz-adv-x="995" 
d="M582 158l69 -37v-121h-336v121l76 41l4 696h-260l-22 -110h-80v684h932v-684h-80l-23 110h-280v-700z" />
    <glyph glyph-name="u" unicode="u" horiz-adv-x="1058" 
d="M1028 788q0 -399 -90.5 -593.5t-253.5 -194.5l-244 2q-167 0 -254 162.5t-90 468.5v637l-76 41v123h336v-123l-75 -19v-659q0 -90 21 -167t63.5 -126.5t97.5 -50.5l57 2q38 1 66.5 33t42.5 80.5t20 94.5t6 89v274l-114 43v527h487v-644z" />
    <glyph glyph-name="v" unicode="v" horiz-adv-x="1140" 
d="M1116 1311l-67 -31l-293 -1290h-406l-262 1270l-74 40v121h336v-121l-69 -36l170 -836l196 860l-49 23v121h518v-121z" />
    <glyph glyph-name="w" unicode="w" horiz-adv-x="1558" 
d="M756 59q54 391 -41 766l-170 -825h-189l-262 1270l-74 41v121h334v-121l-67 -37l164 -807l163 807l-69 37v121h336v-121l-74 -41l-41 -195q77 -235 106 -502l166 725l-24 13v121h518v-121l-96 -45l-289 -1266h-406q1 9 11 43z" />
    <glyph glyph-name="x" unicode="x" horiz-adv-x="1048" 
d="M309 152l58 -31v-121h-336v121l80 43l208 629q-9 68 -21 119t-34.5 100t-53.5 79.5t-80 48t-112 15.5v279q168 9 261 -63.5t151 -248.5l53 158l-43 23v131h336v-131l-94 -52l-162 -479q35 -94 96.5 -148.5t133.5 -54.5h266v-569h-326q-107 0 -193.5 93.5t-123.5 246.5z
" />
    <glyph glyph-name="y" unicode="y" horiz-adv-x="1112" 
d="M618 158l70 -37v-121h-336v121l76 41l4 368l-326 734l-86 47v121h336v-121l-61 -33l158 -363l168 371l-52 25v121h518v-121l-67 -33l-399 -895h-3v-225z" />
    <glyph glyph-name="z" unicode="z" horiz-adv-x="991" 
d="M668 391h293v-391l-932 2l2 293q13 5 35 14t87 39.5t125.5 64t137 85t136 104.5t108.5 121t67 135h-326l-28 -176h-344v750h932v-574q-74 -155 -228.5 -314t-347.5 -251l266 -4z" />
    <glyph glyph-name="braceleft" unicode="{" horiz-adv-x="595" 
d="M293 219h280v-301h-301q-157 0 -157 248v330q0 70 -39 132.5t-76 76.5q36 14 75.5 69t39.5 113v352q0 117 50 184.5t105 67.5h303v-303h-282q-28 2 -40.5 -25t-11 -71t4.5 -100.5t5 -109.5t-9.5 -102t-38.5 -75v-5q34 -31 43.5 -93.5t4 -126.5t-10.5 -124t6.5 -98.5
t48.5 -38.5z" />
    <glyph glyph-name="bar" unicode="|" horiz-adv-x="223" 
d="M72 1536h118v-1718h-118v1718z" />
    <glyph glyph-name="braceright" unicode="}" horiz-adv-x="557" 
d="M481 166q0 -248 -155 -248h-303v301h280q32 0 45.5 28t11.5 71t-5.5 98.5t-7 107.5t8 100.5t39.5 75.5v5q-27 26 -38.5 75t-9.5 102t5 109.5t4.5 100.5t-11 71t-40.5 25h-282v303h305q54 0 103.5 -67.5t49.5 -184.5v-352q0 -58 39.5 -113t75.5 -69q-36 -14 -75.5 -76.5
t-39.5 -132.5v-330z" />
    <glyph glyph-name="exclamdown" unicode="&#xa1;" horiz-adv-x="430" 
d="M334 858q0 -40 -19 -69t-45 -29h-102q-26 0 -46 29t-20 69v158q0 41 19.5 69.5t46.5 28.5h102q26 0 45 -28.5t19 -69.5v-158zM295 543q0 -111 20 -234t43 -211.5t37.5 -201.5t5.5 -213h-370q-9 99 5 212t36.5 202t42.5 212.5t20 233.5v71h162z" />
    <glyph glyph-name="cent" unicode="&#xa2;" horiz-adv-x="763" 
d="M721 217h-242v-213h-186v221q-130 27 -194 122.5t-64 246.5v266q0 172 66.5 266.5t191.5 106.5v276h186v-274h113v-324h-244l-20 123q-65 0 -112.5 -54t-47.5 -144v-60q0 -43 14.5 -75t37.5 -47t45 -22t42 -7h338l21 90h55v-498z" />
    <glyph glyph-name="sterling" unicode="&#xa3;" horiz-adv-x="819" 
d="M682 700h80v-702h-690v528l92 37v170h-135v291h137l2 244l-78 41v121h336v-121l-72 -39v-246h228v-291h-230v-162h301z" />
    <glyph glyph-name="yen" unicode="&#xa5;" horiz-adv-x="1132" 
d="M629 158l69 -37v-121h-336v121l76 41v59h-153v146h155v82h-155v145h129l-297 670l-86 47v121h336v-121l-62 -33l158 -363l168 371l-51 25v121h518v-121l-68 -33l-307 -684h113v-145l-179 -3l-28 -63v-16h207v-146h-207v-63z" />
    <glyph glyph-name="section" unicode="&#xa7;" horiz-adv-x="851" 
d="M721 399q41 -69 43 -167t-33.5 -170t-91.5 -72h-573v299h303l55 -82h100q72 3 68 74q-2 30 -17 52.5t-45 22.5q-18 0 -66 -1.5t-78 -2t-78 3.5t-79 13t-68 28t-58.5 47t-36.5 72t-15 100q0 161 109 236q-109 78 -109 268q0 207 84.5 310.5t263.5 103.5q25 0 184 -1
t197 -1v-524h-264l-33 86h-77q-26 -1 -42.5 -5.5t-30.5 -22t-14 -48.5q0 -42 21.5 -65t60.5 -23q35 -1 93 0.5t79 1.5q62 0 110 -31.5t74 -80.5t38 -110t6.5 -120t-26.5 -110.5t-54 -80.5zM401 485q25 -1 160 4q57 54 57 148q0 65 -27.5 113.5t-60.5 48.5q-18 0 -66 -1
t-75 -1q-33 -10 -57.5 -54t-24.5 -116q0 -138 94 -142z" />
    <glyph glyph-name="dieresis" unicode="&#xa8;" horiz-adv-x="309" 
d="M135 1251q0 -54 -24.5 -91.5t-59.5 -37.5q-34 0 -59 37.5t-25 91.5t25 91.5t59 37.5q35 0 59.5 -37.5t24.5 -91.5zM383 1251q0 -54 -24.5 -91.5t-59.5 -37.5t-59.5 37.5t-24.5 91.5t24.5 91.5t59.5 37.5t59.5 -37.5t24.5 -91.5z" />
    <glyph glyph-name="copyright" unicode="&#xa9;" horiz-adv-x="954" 
d="M909 690q0 -184 -59 -340t-161 -247t-222 -91t-221.5 91t-160 247t-58.5 340q0 185 58.5 342t160 247.5t221.5 90.5t222 -90.5t161 -247.5t59 -342zM115 692q0 -143 47 -264.5t128 -192.5t177 -71q97 0 178.5 71t128.5 192.5t47 264.5t-47 265t-128.5 193t-178.5 71
q-96 0 -177 -71t-128 -193t-47 -265zM631 694h37v-317h-205q-118 0 -176 64t-58 177v168q1 117 51 178.5t136 61.5h170v-207h-156l-14 80q-41 0 -71 -35t-30 -92v-43q0 -36 16.5 -58t34.5 -28t37 -6h215z" />
    <glyph glyph-name="guillemotleft" unicode="&#xab;" horiz-adv-x="1454" 
d="M86 657l594 -237l-57 -281l-625 320v446l625 320l47 -273l-584 -245v-50zM793 657l596 -237l-60 -281l-622 320v446l622 320l47 -273l-583 -245v-50z" />
    <glyph glyph-name="registered" unicode="&#xae;" horiz-adv-x="940" 
d="M909 690q0 -184 -59 -340t-161 -247t-222 -91t-221.5 91t-160 247t-58.5 340q0 185 58.5 342t160 247.5t221.5 90.5t222 -90.5t161 -247.5t59 -342zM115 692q0 -143 47 -264.5t128 -192.5t177 -71q97 0 178.5 71t128.5 192.5t47 264.5t-47 265t-128.5 193t-178.5 71
q-96 0 -177 -71t-128 -193t-47 -265zM379 457l33 -19v-53h-152v53l35 21v315h-35v254h221q205 0 205 -242q0 -109 -46.5 -157t-145.5 -56q3 -16 5 -22t7 -17t14.5 -16t24.5 -6h151v-127h-161q-43 0 -63.5 18t-24 44.5t-4 53.5t-11 47t-37.5 23h-16v-114zM479 770l-98 2v-72
q31 2 94 2q28 0 40.5 6t12.5 29q0 6 -0.5 11t-2.5 8t-4 5.5t-5.5 4t-5.5 2.5t-7.5 1.5t-7.5 0.5h-8h-8z" />
    <glyph glyph-name="macron" unicode="&#xaf;" horiz-adv-x="495" 
d="M33 1311h428v-178h-428v178z" />
    <glyph glyph-name="acute" unicode="&#xb4;" horiz-adv-x="290" 
d="M127 1434h164l-164 -240h-135z" />
    <glyph glyph-name="cedilla" unicode="&#xb8;" horiz-adv-x="313" 
d="M313 -203q0 -87 -47 -131.5t-108 -44.5q-43 0 -87 17t-71 51l41 127q57 -60 109 -60q20 0 37.5 10.5t17.5 36.5q0 33 -27 33q-22 0 -35 -22l-77 67l40 158h105l-33 -115q22 19 43 19q37 0 64.5 -42.5t27.5 -103.5z" />
    <glyph glyph-name="guillemotright" unicode="&#xbb;" horiz-adv-x="1454" 
d="M1454 905v-446l-623 -320l-59 281l596 237v50l-584 245l47 273zM748 905v-446l-623 -320l-59 281l593 237v50l-581 245l47 273z" />
    <glyph glyph-name="onequarter" unicode="&#xbc;" horiz-adv-x="1009" 
d="M246 987h84v-297h-269v297h84l2 340q-36 -28 -69 -37v94q48 18 69 58h99v-455zM537 1434h125l-263 -1434h-127zM934 106l33 -16v-57h-154v57l33 16v84q1 31 -11 48.5t-31.5 23.5t-43.5 9t-48 10t-44 21.5t-32.5 48t-12.5 85.5v258h172v-241q1 -27 7 -44.5t11 -23.5
t16.5 -15t16.5 -14l2 338h86v-588z" />
    <glyph glyph-name="onehalf" unicode="&#xbd;" horiz-adv-x="1009" 
d="M213 1030h76v-266h-242v266h76l2 307q-27 -24 -64 -32v84q45 14 64 51h88v-410zM455 1434h125l-261 -1434h-126zM889 133h37v-129h-330q-55 0 -68.5 30.5t-13.5 129.5q0 57 27.5 90t60.5 33h135q56 0 56 67q0 37 -14 47.5t-40 10.5q-54 4 -182 4l-10 -47h-37v315
q24 0 123.5 1t109.5 1q111 0 163.5 -64t54.5 -192q0 -135 -49 -212t-144 -77q-8 0 -43.5 -1t-56.5 -1q-28 0 -37.5 -4t-9.5 -20q0 -19 10 -25t41 -6h198z" />
    <glyph glyph-name="threequarters" unicode="&#xbe;" horiz-adv-x="993" 
d="M246 815q-15 0 -100 -1t-89 -1v121h33l10 -47q57 2 176 2q43 0 43 33q0 34 -36 34h-164v123q86 0 115.5 11t29.5 51q0 47 -47 47q-3 0 -50 -1t-73 -1l-4 -39h-33v289h127q234 0 234 -211q0 -88 -62 -150q27 -9 41.5 -43t14.5 -82q0 -57 -21 -96t-59 -39h-86zM547 1434
h127l-262 -1434h-127zM907 74l31 -17v-53h-145v53l30 17v80q1 39 -20 55.5t-52.5 20t-63 11.5t-53.5 43t-22 101v244h164v-228q1 -25 6 -41.5t10 -22.5t16 -14t15 -12l2 318h82v-555z" />
    <glyph glyph-name="questiondown" unicode="&#xbf;" 
d="M612 799q0 -41 -18.5 -70t-44.5 -31h-115q-28 1 -46.5 30.5t-18.5 70.5v174q0 42 18.5 71t46.5 29h113q28 0 46.5 -29t18.5 -71v-174zM807 119q6 -77 5.5 -138.5t-15.5 -110t-33.5 -85t-49 -62.5t-61 -43t-70 -27t-77 -14t-80.5 -4q-72 0 -126.5 8t-107.5 31t-87.5 62
t-55.5 104.5t-22 155.5q0 71 12.5 121t34.5 76.5t50.5 42.5t60.5 26t63.5 21t60.5 32t51 54.5t35 93.5t13 143h170q0 -92 -13 -157t-33.5 -97.5t-45.5 -53t-50 -33.5t-45.5 -29.5t-33.5 -50.5t-13 -87q0 -161 78 -161q48 0 67.5 45t14.5 90l-4 45z" />
    <glyph glyph-name="Agrave" unicode="&#xc0;" horiz-adv-x="1153" 
d="M430 1843h166l127 -237h-127zM514 131l27 -12v-121h-521v121h86q119 525 281 1229l-94 -31v113h518l262 -1270l74 -41v-121h-336v121l63 35q-2 66 -26.5 117.5t-56.5 79.5t-75.5 47t-73.5 25.5t-60 8.5zM621 598q102 -8 182 -61l-92 454z" />
    <glyph glyph-name="Aacute" unicode="&#xc1;" horiz-adv-x="1153" 
d="M623 1778h163l-163 -240h-136zM514 131l27 -12v-121h-521v121h86q119 525 281 1229l-94 -31v113h518l262 -1270l74 -41v-121h-336v121l63 35q-2 66 -26.5 117.5t-56.5 79.5t-75.5 47t-73.5 25.5t-60 8.5zM621 598q102 -8 182 -61l-92 454z" />
    <glyph glyph-name="Acircumflex" unicode="&#xc2;" horiz-adv-x="1153" 
d="M659 1548l-84 150l-81 -150h-140l117 295h207l121 -295h-140zM514 131l27 -12v-121h-521v121h86q119 525 281 1229l-94 -31v113h518l262 -1270l74 -41v-121h-336v121l63 35q-2 66 -26.5 117.5t-56.5 79.5t-75.5 47t-73.5 25.5t-60 8.5zM621 598q102 -8 182 -61l-92 454z
" />
    <glyph glyph-name="Atilde" unicode="&#xc3;" horiz-adv-x="1153" 
d="M762 1495q-35 -12 -66 -12q-38 0 -106 22.5t-103 22.5q-50 0 -96 -33v162q45 37 94 37q31 0 93 -22.5t98 -22.5q46 0 86 26v-180zM514 131l27 -12v-121h-521v121h86q119 525 281 1229l-94 -31v113h518l262 -1270l74 -41v-121h-336v121l63 35q-2 66 -26.5 117.5
t-56.5 79.5t-75.5 47t-73.5 25.5t-60 8.5zM621 598q102 -8 182 -61l-92 454z" />
    <glyph glyph-name="Adieresis" unicode="&#xc4;" horiz-adv-x="1153" 
d="M537 1661q0 -54 -24.5 -91.5t-59.5 -37.5q-34 0 -59 37.5t-25 91.5t25 91.5t59 37.5q35 0 59.5 -37.5t24.5 -91.5zM784 1661q0 -54 -24.5 -91.5t-59.5 -37.5t-59.5 37.5t-24.5 91.5t24.5 91.5t59.5 37.5t59.5 -37.5t24.5 -91.5zM514 131l27 -12v-121h-521v121h86
q119 525 281 1229l-94 -31v113h518l262 -1270l74 -41v-121h-336v121l63 35q-2 66 -26.5 117.5t-56.5 79.5t-75.5 47t-73.5 25.5t-60 8.5zM621 598q102 -8 182 -61l-92 454z" />
    <glyph glyph-name="Aring" unicode="&#xc5;" horiz-adv-x="1153" 
d="M717 1702q0 -90 -41 -153.5t-98 -63.5q-59 0 -100.5 63.5t-41.5 153.5q0 89 41.5 152t100.5 63q57 0 98 -63t41 -152zM498 1702q0 -53 23 -90t57 -37q33 0 56 37t23 90q0 51 -22.5 87t-56.5 36t-57 -36t-23 -87zM514 131l27 -12v-121h-521v121h86q119 525 281 1229
l-94 -31v113h518l262 -1270l74 -41v-121h-336v121l63 35q-2 66 -26.5 117.5t-56.5 79.5t-75.5 47t-73.5 25.5t-60 8.5zM621 598q102 -8 182 -61l-92 454z" />
    <glyph glyph-name="AE" unicode="&#xc6;" horiz-adv-x="1443" 
d="M942 571h467v-573h-713v414q-53 20 -110 24l-68 -301l25 -12v-121h-518v121l96 45l256 1124l-80 27v115h1112v-160l-2 -182h-78l-41 182h-323v-217l141 -4l27 116h77v-514h-77l-27 111h-141zM625 600q76 -5 149 -41l4 711z" />
    <glyph glyph-name="Ccedilla" unicode="&#xc7;" horiz-adv-x="1013" 
d="M664 -203q0 -87 -46.5 -131.5t-109.5 -44.5q-41 0 -85 17t-73 51l41 127q57 -60 111 -60q19 0 37 10.5t18 36.5q0 33 -29 33q-19 0 -32 -22l-78 67l31 123q-210 27 -312 163t-102 361l2 373q0 258 105 392t304 137h373v-455h-344l-29 172q-91 0 -157 -76t-66 -201v-96
q2 -58 23 -100.5t52.5 -63t61.5 -30t58 -9.5h475l29 127h77v-700h-448l-23 -74q22 19 43 19q37 0 65 -42.5t28 -103.5z" />
    <glyph glyph-name="Egrave" unicode="&#xc8;" horiz-adv-x="774" 
d="M240 1843h166l129 -237h-129zM270 571h467v-573h-712v528l77 31l4 739l-81 25v113h712v-342h-80l-41 182h-323v-217l141 -4l27 116h78v-514h-78l-27 111h-141z" />
    <glyph glyph-name="Eacute" unicode="&#xc9;" horiz-adv-x="774" 
d="M373 1843h164l-164 -239h-135zM270 571h467v-573h-712v528l77 31l4 739l-81 25v113h712v-342h-80l-41 182h-323v-217l141 -4l27 116h78v-514h-78l-27 111h-141z" />
    <glyph glyph-name="Ecircumflex" unicode="&#xca;" horiz-adv-x="774" 
d="M469 1548l-84 150l-82 -150h-139l117 295h208l121 -295h-141zM270 571h467v-573h-712v528l77 31l4 739l-81 25v113h712v-342h-80l-41 182h-323v-217l141 -4l27 116h78v-514h-78l-27 111h-141z" />
    <glyph glyph-name="Edieresis" unicode="&#xcb;" horiz-adv-x="774" 
d="M348 1661q0 -54 -25 -91.5t-59 -37.5q-35 0 -59.5 37.5t-24.5 91.5t24.5 91.5t59.5 37.5q34 0 59 -37.5t25 -91.5zM594 1661q0 -54 -24.5 -91.5t-59.5 -37.5t-59.5 37.5t-24.5 91.5t24.5 91.5t59.5 37.5t59.5 -37.5t24.5 -91.5zM270 571h467v-573h-712v528l77 31l4 739
l-81 25v113h712v-342h-80l-41 182h-323v-217l141 -4l27 116h78v-514h-78l-27 111h-141z" />
    <glyph glyph-name="Igrave" unicode="&#xcc;" horiz-adv-x="462" 
d="M84 1843h166l129 -237h-129zM326 571l114 -45v-528h-420v528l117 45v697l-76 41v121h336v-121l-71 -39v-699z" />
    <glyph glyph-name="Iacute" unicode="&#xcd;" horiz-adv-x="462" 
d="M217 1843h164l-164 -239h-135zM326 571l114 -45v-528h-420v528l117 45v697l-76 41v121h336v-121l-71 -39v-699z" />
    <glyph glyph-name="Icircumflex" unicode="&#xce;" horiz-adv-x="462" 
d="M315 1548l-86 150l-79 -150h-142l117 295h209l121 -295h-140zM326 571l114 -45v-528h-420v528l117 45v697l-76 41v121h336v-121l-71 -39v-699z" />
    <glyph glyph-name="Idieresis" unicode="&#xcf;" horiz-adv-x="462" 
d="M193 1661q0 -54 -24.5 -91.5t-59.5 -37.5t-59.5 37.5t-24.5 91.5t24.5 91.5t59.5 37.5t59.5 -37.5t24.5 -91.5zM438 1661q0 -54 -24.5 -91.5t-59.5 -37.5q-34 0 -59 37.5t-25 91.5t25 91.5t59 37.5q35 0 59.5 -37.5t24.5 -91.5zM326 571l114 -45v-528h-420v528l117 45
v697l-76 41v121h336v-121l-71 -39v-699z" />
    <glyph glyph-name="Ntilde" unicode="&#xd1;" horiz-adv-x="1003" 
d="M688 1495q-34 -12 -65 -12q-39 0 -107 22.5t-102 22.5q-53 0 -99 -33v162q45 37 95 37q33 0 94.5 -22.5t95.5 -22.5q48 0 88 26v-180zM289 158l69 -37v-121h-333v121l75 41l2 696h-77v574h266q44 0 74.5 -62.5t46.5 -162t27.5 -220.5t22.5 -241.5t26.5 -220.5t45 -163
t72.5 -63v563l-106 43v527h479v-1432h-373q-60 0 -101 40.5t-61 107t-32 147.5t-19.5 168t-17 162.5t-30.5 135.5t-54 83z" />
    <glyph glyph-name="Ograve" unicode="&#xd2;" 
d="M274 1843h164l129 -237h-129zM858 494q0 -91 -15 -169.5t-47.5 -145.5t-81 -114.5t-120 -74.5t-160.5 -27q-88 0 -159 27t-120 74.5t-82 114.5t-48 145.5t-15 169.5v442q3 257 111.5 389t312.5 135q201 -3 310 -135.5t112 -388.5zM201 713q6 -49 28.5 -85.5t52 -55
t57 -27t52.5 -8.5h84q21 0 43.5 5t49 19t47.5 35.5t36 58t17 82.5l2 158q-3 276 -240 279q-113 -1 -171 -74.5t-60 -206.5z" />
    <glyph glyph-name="Oacute" unicode="&#xd3;" 
d="M406 1843h163l-163 -239h-134zM858 494q0 -91 -15 -169.5t-47.5 -145.5t-81 -114.5t-120 -74.5t-160.5 -27q-88 0 -159 27t-120 74.5t-82 114.5t-48 145.5t-15 169.5v442q3 257 111.5 389t312.5 135q201 -3 310 -135.5t112 -388.5zM201 713q6 -49 28.5 -85.5t52 -55
t57 -27t52.5 -8.5h84q21 0 43.5 5t49 19t47.5 35.5t36 58t17 82.5l2 158q-3 276 -240 279q-113 -1 -171 -74.5t-60 -206.5z" />
    <glyph glyph-name="Ocircumflex" unicode="&#xd4;" 
d="M504 1548l-86 150l-80 -150h-139l116 295h207l121 -295h-139zM858 494q0 -91 -15 -169.5t-47.5 -145.5t-81 -114.5t-120 -74.5t-160.5 -27q-88 0 -159 27t-120 74.5t-82 114.5t-48 145.5t-15 169.5v442q3 257 111.5 389t312.5 135q201 -3 310 -135.5t112 -388.5zM201 713
q6 -49 28.5 -85.5t52 -55t57 -27t52.5 -8.5h84q21 0 43.5 5t49 19t47.5 35.5t36 58t17 82.5l2 158q-3 276 -240 279q-113 -1 -171 -74.5t-60 -206.5z" />
    <glyph glyph-name="Otilde" unicode="&#xd5;" 
d="M606 1495q-34 -12 -65 -12q-39 0 -106 22.5t-103 22.5q-50 0 -96 -33v162q45 37 94 37q31 0 92.5 -22.5t97.5 -22.5q46 0 86 26v-180zM858 494q0 -91 -15 -169.5t-47.5 -145.5t-81 -114.5t-120 -74.5t-160.5 -27q-88 0 -159 27t-120 74.5t-82 114.5t-48 145.5t-15 169.5
v442q3 257 111.5 389t312.5 135q201 -3 310 -135.5t112 -388.5zM201 713q6 -49 28.5 -85.5t52 -55t57 -27t52.5 -8.5h84q21 0 43.5 5t49 19t47.5 35.5t36 58t17 82.5l2 158q-3 276 -240 279q-113 -1 -171 -74.5t-60 -206.5z" />
    <glyph glyph-name="Odieresis" unicode="&#xd6;" 
d="M381 1661q0 -54 -24.5 -91.5t-59.5 -37.5t-59.5 37.5t-24.5 91.5t24.5 91.5t59.5 37.5t59.5 -37.5t24.5 -91.5zM629 1661q0 -54 -25 -91.5t-59 -37.5q-35 0 -59.5 37.5t-24.5 91.5t24.5 91.5t59.5 37.5q34 0 59 -37.5t25 -91.5zM858 494q0 -91 -15 -169.5t-47.5 -145.5
t-81 -114.5t-120 -74.5t-160.5 -27q-88 0 -159 27t-120 74.5t-82 114.5t-48 145.5t-15 169.5v442q3 257 111.5 389t312.5 135q201 -3 310 -135.5t112 -388.5zM201 713q6 -49 28.5 -85.5t52 -55t57 -27t52.5 -8.5h84q21 0 43.5 5t49 19t47.5 35.5t36 58t17 82.5l2 158
q-3 276 -240 279q-113 -1 -171 -74.5t-60 -206.5z" />
    <glyph glyph-name="Oslash" unicode="&#xd8;" 
d="M434 -37q-51 0 -90 8l-27 -125h-127l35 166q-109 61 -162 187.5t-53 294.5v442q3 257 111.5 389t312.5 135q70 -4 103 -12l20 88h125l-29 -133q200 -118 203 -467l2 -442q0 -91 -15 -169.5t-47.5 -145.5t-81 -114.5t-120 -74.5t-160.5 -27zM201 713q10 -73 49.5 -113.5
t91.5 -54.5l135 624q-35 5 -47 5q-113 -1 -171 -74.5t-60 -206.5zM592 1120l-125 -583h8q21 0 43.5 5t49 19t47.5 35.5t36 58t17 82.5l2 158q-3 159 -78 225z" />
    <glyph glyph-name="Ugrave" unicode="&#xd9;" horiz-adv-x="1058" 
d="M383 1843h164l129 -237h-129zM1028 788q0 -399 -90.5 -593.5t-253.5 -194.5l-244 2q-167 0 -254 162.5t-90 468.5v637l-76 41v123h336v-123l-75 -19v-659q0 -90 21 -167t63.5 -126.5t97.5 -50.5l57 2q38 1 66.5 33t42.5 80.5t20 94.5t6 89v274l-114 43v527h487v-644z" />
    <glyph glyph-name="Uacute" unicode="&#xda;" horiz-adv-x="1024" 
d="M498 1843h164l-164 -239h-136zM993 788q0 -399 -90.5 -593.5t-253.5 -194.5l-243 2q-167 0 -254.5 163t-90.5 468v637l-75 41v123h336v-123l-76 -19v-659q0 -90 21 -167t63.5 -126.5t97.5 -50.5l57 2q38 1 66.5 33t42.5 80.5t20.5 94.5t6.5 89v274l-115 43v527h487v-644z
" />
    <glyph glyph-name="Ucircumflex" unicode="&#xdb;" horiz-adv-x="1058" 
d="M612 1548l-86 150l-80 -150h-139l117 295h207l121 -295h-140zM1028 788q0 -399 -90.5 -593.5t-253.5 -194.5l-244 2q-167 0 -254 162.5t-90 468.5v637l-76 41v123h336v-123l-75 -19v-659q0 -90 21 -167t63.5 -126.5t97.5 -50.5l57 2q38 1 66.5 33t42.5 80.5t20 94.5t6 89
v274l-114 43v527h487v-644z" />
    <glyph glyph-name="Udieresis" unicode="&#xdc;" horiz-adv-x="1058" 
d="M489 1661q0 -54 -24 -91.5t-59 -37.5t-59.5 37.5t-24.5 91.5t24.5 91.5t59.5 37.5t59 -37.5t24 -91.5zM737 1661q0 -54 -25 -91.5t-59 -37.5q-35 0 -59.5 37.5t-24.5 91.5t24.5 91.5t59.5 37.5q34 0 59 -37.5t25 -91.5zM1028 788q0 -399 -90.5 -593.5t-253.5 -194.5
l-244 2q-167 0 -254 162.5t-90 468.5v637l-76 41v123h336v-123l-75 -19v-659q0 -90 21 -167t63.5 -126.5t97.5 -50.5l57 2q38 1 66.5 33t42.5 80.5t20 94.5t6 89v274l-114 43v527h487v-644z" />
    <glyph glyph-name="Yacute" unicode="&#xdd;" horiz-adv-x="1112" 
d="M537 1843h165l-165 -237h-127zM618 158l70 -37v-121h-336v121l76 41l4 368l-326 734l-86 47v121h336v-121l-61 -33l158 -363l168 371l-52 25v121h518v-121l-67 -33l-399 -895h-3v-225z" />
    <glyph glyph-name="germandbls" unicode="&#xdf;" horiz-adv-x="839" 
d="M426 1260h-131v-1262h-266v528l77 31l3 731l-80 29v113h80v2l100 -2h334q61 0 104.5 -43t63.5 -107t20 -139q0 -76 -20 -135q370 -58 370 -471q0 -108 -27.5 -203t-81 -170.5t-142.5 -119.5t-203 -44h-275l43 573h223q43 0 76 39.5t33 100.5q0 77 -44 115t-122 38
q-48 0 -75 11.5t-48 50.5q-4 9 -7.5 19.5t-5.5 19.5t-3.5 24t-2 23.5t-1 29.5t-0.5 30v36.5v38.5h24q68 0 68 55q0 27 -17 42.5t-67 15.5z" />
    <glyph glyph-name="agrave" unicode="&#xe0;" horiz-adv-x="1153" 
d="M430 1843h166l127 -237h-127zM514 131l27 -12v-121h-521v121h86q119 525 281 1229l-94 -31v113h518l262 -1270l74 -41v-121h-336v121l63 35q-2 66 -26.5 117.5t-56.5 79.5t-75.5 47t-73.5 25.5t-60 8.5zM621 598q102 -8 182 -61l-92 454z" />
    <glyph glyph-name="aacute" unicode="&#xe1;" horiz-adv-x="1153" 
d="M623 1778h163l-163 -240h-136zM514 131l27 -12v-121h-521v121h86q119 525 281 1229l-94 -31v113h518l262 -1270l74 -41v-121h-336v121l63 35q-2 66 -26.5 117.5t-56.5 79.5t-75.5 47t-73.5 25.5t-60 8.5zM621 598q102 -8 182 -61l-92 454z" />
    <glyph glyph-name="acircumflex" unicode="&#xe2;" horiz-adv-x="1153" 
d="M659 1548l-84 150l-81 -150h-140l117 295h207l121 -295h-140zM514 131l27 -12v-121h-521v121h86q119 525 281 1229l-94 -31v113h518l262 -1270l74 -41v-121h-336v121l63 35q-2 66 -26.5 117.5t-56.5 79.5t-75.5 47t-73.5 25.5t-60 8.5zM621 598q102 -8 182 -61l-92 454z
" />
    <glyph glyph-name="atilde" unicode="&#xe3;" horiz-adv-x="1153" 
d="M762 1495q-35 -12 -66 -12q-38 0 -106 22.5t-103 22.5q-50 0 -96 -33v162q45 37 94 37q31 0 93 -22.5t98 -22.5q46 0 86 26v-180zM514 131l27 -12v-121h-521v121h86q119 525 281 1229l-94 -31v113h518l262 -1270l74 -41v-121h-336v121l63 35q-2 66 -26.5 117.5
t-56.5 79.5t-75.5 47t-73.5 25.5t-60 8.5zM621 598q102 -8 182 -61l-92 454z" />
    <glyph glyph-name="adieresis" unicode="&#xe4;" horiz-adv-x="1153" 
d="M537 1661q0 -54 -24.5 -91.5t-59.5 -37.5q-34 0 -59 37.5t-25 91.5t25 91.5t59 37.5q35 0 59.5 -37.5t24.5 -91.5zM784 1661q0 -54 -24.5 -91.5t-59.5 -37.5t-59.5 37.5t-24.5 91.5t24.5 91.5t59.5 37.5t59.5 -37.5t24.5 -91.5zM514 131l27 -12v-121h-521v121h86
q119 525 281 1229l-94 -31v113h518l262 -1270l74 -41v-121h-336v121l63 35q-2 66 -26.5 117.5t-56.5 79.5t-75.5 47t-73.5 25.5t-60 8.5zM621 598q102 -8 182 -61l-92 454z" />
    <glyph glyph-name="aring" unicode="&#xe5;" horiz-adv-x="1153" 
d="M717 1702q0 -90 -41 -153.5t-98 -63.5q-59 0 -100.5 63.5t-41.5 153.5q0 89 41.5 152t100.5 63q57 0 98 -63t41 -152zM498 1702q0 -53 23 -90t57 -37q33 0 56 37t23 90q0 51 -22.5 87t-56.5 36t-57 -36t-23 -87zM514 131l27 -12v-121h-521v121h86q119 525 281 1229
l-94 -31v113h518l262 -1270l74 -41v-121h-336v121l63 35q-2 66 -26.5 117.5t-56.5 79.5t-75.5 47t-73.5 25.5t-60 8.5zM621 598q102 -8 182 -61l-92 454z" />
    <glyph glyph-name="ae" unicode="&#xe6;" horiz-adv-x="1443" 
d="M942 571h467v-573h-713v414q-53 20 -110 24l-68 -301l25 -12v-121h-518v121l96 45l256 1124l-80 27v115h1112v-160l-2 -182h-78l-41 182h-323v-217l141 -4l27 116h77v-514h-77l-27 111h-141zM625 600q76 -5 149 -41l4 711z" />
    <glyph glyph-name="ccedilla" unicode="&#xe7;" horiz-adv-x="1013" 
d="M664 -203q0 -87 -46.5 -131.5t-109.5 -44.5q-41 0 -85 17t-73 51l41 127q57 -60 111 -60q19 0 37 10.5t18 36.5q0 33 -29 33q-19 0 -32 -22l-78 67l31 123q-210 27 -312 163t-102 361l2 373q0 258 105 392t304 137h373v-455h-344l-29 172q-91 0 -157 -76t-66 -201v-96
q2 -58 23 -100.5t52.5 -63t61.5 -30t58 -9.5h475l29 127h77v-700h-448l-23 -74q22 19 43 19q37 0 65 -42.5t28 -103.5z" />
    <glyph glyph-name="egrave" unicode="&#xe8;" horiz-adv-x="774" 
d="M240 1843h166l129 -237h-129zM270 571h467v-573h-712v528l77 31l4 739l-81 25v113h712v-342h-80l-41 182h-323v-217l141 -4l27 116h78v-514h-78l-27 111h-141z" />
    <glyph glyph-name="eacute" unicode="&#xe9;" horiz-adv-x="774" 
d="M369 1843h166l-166 -237h-129zM270 571h467v-573h-712v528l77 31l4 739l-81 25v113h712v-342h-80l-41 182h-323v-217l141 -4l27 116h78v-514h-78l-27 111h-141z" />
    <glyph glyph-name="ecircumflex" unicode="&#xea;" horiz-adv-x="774" 
d="M469 1548l-84 150l-82 -150h-139l117 295h208l121 -295h-141zM270 571h467v-573h-712v528l77 31l4 739l-81 25v113h712v-342h-80l-41 182h-323v-217l141 -4l27 116h78v-514h-78l-27 111h-141z" />
    <glyph glyph-name="edieresis" unicode="&#xeb;" horiz-adv-x="774" 
d="M348 1661q0 -54 -25 -91.5t-59 -37.5q-35 0 -59.5 37.5t-24.5 91.5t24.5 91.5t59.5 37.5q34 0 59 -37.5t25 -91.5zM594 1661q0 -54 -24.5 -91.5t-59.5 -37.5t-59.5 37.5t-24.5 91.5t24.5 91.5t59.5 37.5t59.5 -37.5t24.5 -91.5zM270 571h467v-573h-712v528l77 31l4 739
l-81 25v113h712v-342h-80l-41 182h-323v-217l141 -4l27 116h78v-514h-78l-27 111h-141z" />
    <glyph glyph-name="igrave" unicode="&#xec;" horiz-adv-x="462" 
d="M84 1843h166l129 -237h-129zM326 571l114 -45v-528h-420v528l117 45v697l-76 41v121h336v-121l-71 -39v-699z" />
    <glyph glyph-name="iacute" unicode="&#xed;" horiz-adv-x="462" 
d="M217 1843h164l-164 -239h-135zM326 571l114 -45v-528h-420v528l117 45v697l-76 41v121h336v-121l-71 -39v-699z" />
    <glyph glyph-name="icircumflex" unicode="&#xee;" horiz-adv-x="462" 
d="M315 1548l-86 150l-79 -150h-142l117 295h209l121 -295h-140zM326 571l114 -45v-528h-420v528l117 45v697l-76 41v121h336v-121l-71 -39v-699z" />
    <glyph glyph-name="idieresis" unicode="&#xef;" horiz-adv-x="462" 
d="M193 1661q0 -54 -24.5 -91.5t-59.5 -37.5t-59.5 37.5t-24.5 91.5t24.5 91.5t59.5 37.5t59.5 -37.5t24.5 -91.5zM438 1661q0 -54 -24.5 -91.5t-59.5 -37.5q-34 0 -59 37.5t-25 91.5t25 91.5t59 37.5q35 0 59.5 -37.5t24.5 -91.5zM326 571l114 -45v-528h-420v528l117 45
v697l-76 41v121h336v-121l-71 -39v-699z" />
    <glyph glyph-name="ntilde" unicode="&#xf1;" horiz-adv-x="1003" 
d="M688 1495q-34 -12 -65 -12q-39 0 -107 22.5t-102 22.5q-53 0 -99 -33v162q45 37 95 37q33 0 94.5 -22.5t95.5 -22.5q48 0 88 26v-180zM289 158l69 -37v-121h-333v121l75 41l2 696h-77v574h266q44 0 74.5 -62.5t46.5 -162t27.5 -220.5t22.5 -241.5t26.5 -220.5t45 -163
t72.5 -63v563l-106 43v527h479v-1432h-373q-60 0 -101 40.5t-61 107t-32 147.5t-19.5 168t-17 162.5t-30.5 135.5t-54 83z" />
    <glyph glyph-name="ograve" unicode="&#xf2;" 
d="M274 1843h164l129 -237h-129zM858 494q0 -91 -15 -169.5t-47.5 -145.5t-81 -114.5t-120 -74.5t-160.5 -27q-88 0 -159 27t-120 74.5t-82 114.5t-48 145.5t-15 169.5v442q3 257 111.5 389t312.5 135q201 -3 310 -135.5t112 -388.5zM201 713q6 -49 28.5 -85.5t52 -55
t57 -27t52.5 -8.5h84q21 0 43.5 5t49 19t47.5 35.5t36 58t17 82.5l2 158q-3 276 -240 279q-113 -1 -171 -74.5t-60 -206.5z" />
    <glyph glyph-name="oacute" unicode="&#xf3;" 
d="M406 1843h163l-163 -239h-134zM858 494q0 -91 -15 -169.5t-47.5 -145.5t-81 -114.5t-120 -74.5t-160.5 -27q-88 0 -159 27t-120 74.5t-82 114.5t-48 145.5t-15 169.5v442q3 257 111.5 389t312.5 135q201 -3 310 -135.5t112 -388.5zM201 713q6 -49 28.5 -85.5t52 -55
t57 -27t52.5 -8.5h84q21 0 43.5 5t49 19t47.5 35.5t36 58t17 82.5l2 158q-3 276 -240 279q-113 -1 -171 -74.5t-60 -206.5z" />
    <glyph glyph-name="ocircumflex" unicode="&#xf4;" 
d="M504 1548l-86 150l-80 -150h-139l116 295h207l121 -295h-139zM858 494q0 -91 -15 -169.5t-47.5 -145.5t-81 -114.5t-120 -74.5t-160.5 -27q-88 0 -159 27t-120 74.5t-82 114.5t-48 145.5t-15 169.5v442q3 257 111.5 389t312.5 135q201 -3 310 -135.5t112 -388.5zM201 713
q6 -49 28.5 -85.5t52 -55t57 -27t52.5 -8.5h84q21 0 43.5 5t49 19t47.5 35.5t36 58t17 82.5l2 158q-3 276 -240 279q-113 -1 -171 -74.5t-60 -206.5z" />
    <glyph glyph-name="otilde" unicode="&#xf5;" 
d="M606 1495q-34 -12 -65 -12q-39 0 -106 22.5t-103 22.5q-50 0 -96 -33v162q45 37 94 37q31 0 92.5 -22.5t97.5 -22.5q46 0 86 26v-180zM858 494q0 -91 -15 -169.5t-47.5 -145.5t-81 -114.5t-120 -74.5t-160.5 -27q-88 0 -159 27t-120 74.5t-82 114.5t-48 145.5t-15 169.5
v442q3 257 111.5 389t312.5 135q201 -3 310 -135.5t112 -388.5zM201 713q6 -49 28.5 -85.5t52 -55t57 -27t52.5 -8.5h84q21 0 43.5 5t49 19t47.5 35.5t36 58t17 82.5l2 158q-3 276 -240 279q-113 -1 -171 -74.5t-60 -206.5z" />
    <glyph glyph-name="odieresis" unicode="&#xf6;" 
d="M381 1661q0 -54 -24.5 -91.5t-59.5 -37.5t-59.5 37.5t-24.5 91.5t24.5 91.5t59.5 37.5t59.5 -37.5t24.5 -91.5zM629 1661q0 -54 -25 -91.5t-59 -37.5q-35 0 -59.5 37.5t-24.5 91.5t24.5 91.5t59.5 37.5q34 0 59 -37.5t25 -91.5zM858 494q0 -91 -15 -169.5t-47.5 -145.5
t-81 -114.5t-120 -74.5t-160.5 -27q-88 0 -159 27t-120 74.5t-82 114.5t-48 145.5t-15 169.5v442q3 257 111.5 389t312.5 135q201 -3 310 -135.5t112 -388.5zM201 713q6 -49 28.5 -85.5t52 -55t57 -27t52.5 -8.5h84q21 0 43.5 5t49 19t47.5 35.5t36 58t17 82.5l2 158
q-3 276 -240 279q-113 -1 -171 -74.5t-60 -206.5z" />
    <glyph glyph-name="oslash" unicode="&#xf8;" 
d="M434 -37q-51 0 -90 8l-27 -125h-127l35 166q-109 61 -162 187.5t-53 294.5v442q3 257 111.5 389t312.5 135q70 -4 103 -12l20 88h125l-29 -133q200 -118 203 -467l2 -442q0 -91 -15 -169.5t-47.5 -145.5t-81 -114.5t-120 -74.5t-160.5 -27zM201 713q10 -73 49.5 -113.5
t91.5 -54.5l135 624q-35 5 -47 5q-113 -1 -171 -74.5t-60 -206.5zM592 1120l-125 -583h8q21 0 43.5 5t49 19t47.5 35.5t36 58t17 82.5l2 158q-3 159 -78 225z" />
    <glyph glyph-name="ugrave" unicode="&#xf9;" horiz-adv-x="1058" 
d="M383 1843h164l129 -237h-129zM1028 788q0 -399 -90.5 -593.5t-253.5 -194.5l-244 2q-167 0 -254 162.5t-90 468.5v637l-76 41v123h336v-123l-75 -19v-659q0 -90 21 -167t63.5 -126.5t97.5 -50.5l57 2q38 1 66.5 33t42.5 80.5t20 94.5t6 89v274l-114 43v527h487v-644z" />
    <glyph glyph-name="uacute" unicode="&#xfa;" horiz-adv-x="1024" 
d="M498 1843h164l-164 -239h-136zM993 788q0 -399 -90.5 -593.5t-253.5 -194.5l-243 2q-167 0 -254.5 163t-90.5 468v637l-75 41v123h336v-123l-76 -19v-659q0 -90 21 -167t63.5 -126.5t97.5 -50.5l57 2q38 1 66.5 33t42.5 80.5t20.5 94.5t6.5 89v274l-115 43v527h487v-644z
" />
    <glyph glyph-name="ucircumflex" unicode="&#xfb;" horiz-adv-x="1058" 
d="M612 1548l-86 150l-80 -150h-139l117 295h207l121 -295h-140zM1028 788q0 -399 -90.5 -593.5t-253.5 -194.5l-244 2q-167 0 -254 162.5t-90 468.5v637l-76 41v123h336v-123l-75 -19v-659q0 -90 21 -167t63.5 -126.5t97.5 -50.5l57 2q38 1 66.5 33t42.5 80.5t20 94.5t6 89
v274l-114 43v527h487v-644z" />
    <glyph glyph-name="udieresis" unicode="&#xfc;" horiz-adv-x="1058" 
d="M489 1661q0 -54 -24 -91.5t-59 -37.5t-59.5 37.5t-24.5 91.5t24.5 91.5t59.5 37.5t59 -37.5t24 -91.5zM737 1661q0 -54 -25 -91.5t-59 -37.5q-35 0 -59.5 37.5t-24.5 91.5t24.5 91.5t59.5 37.5q34 0 59 -37.5t25 -91.5zM1028 788q0 -399 -90.5 -593.5t-253.5 -194.5
l-244 2q-167 0 -254 162.5t-90 468.5v637l-76 41v123h336v-123l-75 -19v-659q0 -90 21 -167t63.5 -126.5t97.5 -50.5l57 2q38 1 66.5 33t42.5 80.5t20 94.5t6 89v274l-114 43v527h487v-644z" />
    <glyph glyph-name="yacute" unicode="&#xfd;" horiz-adv-x="1112" 
d="M516 1661q0 -54 -24.5 -91.5t-59.5 -37.5t-59.5 37.5t-24.5 91.5t24.5 91.5t59.5 37.5t59.5 -37.5t24.5 -91.5zM764 1661q0 -54 -25 -91.5t-59 -37.5q-35 0 -59.5 37.5t-24.5 91.5t24.5 91.5t59.5 37.5q34 0 59 -37.5t25 -91.5zM618 158l70 -37v-121h-336v121l76 41
l4 368l-326 734l-86 47v121h336v-121l-61 -33l158 -363l168 371l-52 25v121h518v-121l-67 -33l-399 -895h-3v-225z" />
    <glyph glyph-name="ydieresis" unicode="&#xff;" horiz-adv-x="1112" 
d="M537 1843h165l-165 -237h-127zM618 158l70 -37v-121h-336v121l76 41l4 368l-326 734l-86 47v121h336v-121l-61 -33l158 -363l168 371l-52 25v121h518v-121l-67 -33l-399 -895h-3v-225z" />
    <glyph glyph-name="Amacron" unicode="&#x100;" horiz-adv-x="1153" 
d="M362 1720h429v-178h-429v178zM514 131l27 -12v-121h-521v121h86q119 525 281 1229l-94 -31v113h518l262 -1270l74 -41v-121h-336v121l63 35q-2 66 -26.5 117.5t-56.5 79.5t-75.5 47t-73.5 25.5t-60 8.5zM621 598q102 -8 182 -61l-92 454z" />
    <glyph glyph-name="amacron" unicode="&#x101;" horiz-adv-x="1153" 
d="M362 1720h429v-178h-429v178zM514 131l27 -12v-121h-521v121h86q119 525 281 1229l-94 -31v113h518l262 -1270l74 -41v-121h-336v121l63 35q-2 66 -26.5 117.5t-56.5 79.5t-75.5 47t-73.5 25.5t-60 8.5zM621 598q102 -8 182 -61l-92 454z" />
    <glyph glyph-name="Abreve" unicode="&#x102;" horiz-adv-x="1153" 
d="M659 1843h140l-121 -295h-207l-117 295h140l81 -149zM514 131l27 -12v-121h-521v121h86q119 525 281 1229l-94 -31v113h518l262 -1270l74 -41v-121h-336v121l63 35q-2 66 -26.5 117.5t-56.5 79.5t-75.5 47t-73.5 25.5t-60 8.5zM621 598q102 -8 182 -61l-92 454z" />
    <glyph glyph-name="abreve" unicode="&#x103;" horiz-adv-x="1153" 
d="M659 1843h140l-121 -295h-207l-117 295h140l81 -149zM514 131l27 -12v-121h-521v121h86q119 525 281 1229l-94 -31v113h518l262 -1270l74 -41v-121h-336v121l63 35q-2 66 -26.5 117.5t-56.5 79.5t-75.5 47t-73.5 25.5t-60 8.5zM621 598q102 -8 182 -61l-92 454z" />
    <glyph glyph-name="Aogonek" unicode="&#x104;" horiz-adv-x="1153" 
d="M1147 -311q-27 -34 -71.5 -51t-86.5 -17q-61 0 -108 44.5t-47 131.5q0 61 27.5 103.5t64.5 42.5q21 0 43 -19l-23 74h-135v121l63 35q-2 66 -26.5 117.5t-56.5 79.5t-75.5 47t-73.5 25.5t-60 8.5l-68 -301l27 -12v-121h-521v121h86q119 525 281 1229l-94 -31v113h518
l262 -1270l74 -41v-121h-96l30 -117l-77 -67q-13 22 -35 22q-27 0 -27 -33q0 -26 17.5 -36.5t37.5 -10.5q52 0 109 60zM621 598q102 -8 182 -61l-92 454z" />
    <glyph glyph-name="aogonek" unicode="&#x105;" horiz-adv-x="1153" 
d="M1147 -311q-27 -34 -71.5 -51t-86.5 -17q-61 0 -108 44.5t-47 131.5q0 61 27.5 103.5t64.5 42.5q21 0 43 -19l-23 74h-135v121l63 35q-2 66 -26.5 117.5t-56.5 79.5t-75.5 47t-73.5 25.5t-60 8.5l-68 -301l27 -12v-121h-521v121h86q119 525 281 1229l-94 -31v113h518
l262 -1270l74 -41v-121h-96l30 -117l-77 -67q-13 22 -35 22q-27 0 -27 -33q0 -26 17.5 -36.5t37.5 -10.5q52 0 109 60zM621 598q102 -8 182 -61l-92 454z" />
    <glyph glyph-name="Cacute" unicode="&#x106;" horiz-adv-x="1013" 
d="M492 1843h163l-163 -239h-134zM922 698h77v-700h-452q-257 0 -385.5 141.5t-126.5 388.5l2 373q0 255 109 392t300 137h373v-455h-344l-29 172q-91 0 -157 -77t-66 -202v-96q0 -59 20.5 -101.5t53 -62.5t62.5 -28.5t59 -8.5h475z" />
    <glyph glyph-name="cacute" unicode="&#x107;" horiz-adv-x="1013" 
d="M492 1843h163l-163 -239h-134zM922 698h77v-700h-452q-257 0 -385.5 141.5t-126.5 388.5l2 373q0 255 109 392t300 137h373v-455h-344l-29 172q-91 0 -157 -77t-66 -202v-96q0 -59 20.5 -101.5t53 -62.5t62.5 -28.5t59 -8.5h475z" />
    <glyph glyph-name="Ccircumflex" unicode="&#x108;" horiz-adv-x="1013" 
d="M590 1548l-84 150l-82 -150h-139l116 295h209l121 -295h-141zM922 698h77v-700h-452q-257 0 -385.5 141.5t-126.5 388.5l2 373q0 255 109 392t300 137h373v-455h-344l-29 172q-91 0 -157 -77t-66 -202v-96q0 -59 20.5 -101.5t53 -62.5t62.5 -28.5t59 -8.5h475z" />
    <glyph glyph-name="ccircumflex" unicode="&#x109;" horiz-adv-x="1013" 
d="M590 1548l-84 150l-82 -150h-139l116 295h209l121 -295h-141zM922 698h77v-700h-452q-257 0 -385.5 141.5t-126.5 388.5l2 373q0 255 109 392t300 137h373v-455h-344l-29 172q-91 0 -157 -77t-66 -202v-96q0 -59 20.5 -101.5t53 -62.5t62.5 -28.5t59 -8.5h475z" />
    <glyph glyph-name="Cdotaccent" unicode="&#x10a;" horiz-adv-x="1013" 
d="M610 1638q0 -34 -16 -58t-39 -24h-96q-23 0 -39.5 24t-16.5 58v148q0 35 16.5 59.5t39.5 24.5h96q23 0 39 -24.5t16 -59.5v-148zM922 698h77v-700h-452q-257 0 -385.5 141.5t-126.5 388.5l2 373q0 255 109 392t300 137h373v-455h-344l-29 172q-91 0 -157 -77t-66 -202
v-96q0 -59 20.5 -101.5t53 -62.5t62.5 -28.5t59 -8.5h475z" />
    <glyph glyph-name="cdotaccent" unicode="&#x10b;" horiz-adv-x="1013" 
d="M610 1638q0 -34 -16 -58t-39 -24h-96q-23 0 -39.5 24t-16.5 58v148q0 35 16.5 59.5t39.5 24.5h96q23 0 39 -24.5t16 -59.5v-148zM922 698h77v-700h-452q-257 0 -385.5 141.5t-126.5 388.5l2 373q0 255 109 392t300 137h373v-455h-344l-29 172q-91 0 -157 -77t-66 -202
v-96q0 -59 20.5 -101.5t53 -62.5t62.5 -28.5t59 -8.5h475z" />
    <glyph glyph-name="Ccaron" unicode="&#x10c;" horiz-adv-x="1013" 
d="M623 1821h125l-195 -318h-86l-199 318h131l107 -224zM922 698h77v-700h-452q-257 0 -385.5 141.5t-126.5 388.5l2 373q0 255 109 392t300 137h373v-455h-344l-29 172q-91 0 -157 -77t-66 -202v-96q0 -59 20.5 -101.5t53 -62.5t62.5 -28.5t59 -8.5h475z" />
    <glyph glyph-name="ccaron" unicode="&#x10d;" horiz-adv-x="1013" 
d="M623 1821h125l-195 -318h-86l-199 318h131l107 -224zM922 698h77v-700h-452q-257 0 -385.5 141.5t-126.5 388.5l2 373q0 255 109 392t300 137h373v-455h-344l-29 172q-91 0 -157 -77t-66 -202v-96q0 -59 20.5 -101.5t53 -62.5t62.5 -28.5t59 -8.5h475z" />
    <glyph glyph-name="Dcaron" unicode="&#x10e;" horiz-adv-x="1007" 
d="M618 1821h125l-194 -318h-84l-201 318h131l107 -224zM999 719q-3 -363 -114.5 -542t-358.5 -179h-497v528l77 31l3 313l-80 33v527h456q255 3 386.5 -170.5t127.5 -540.5zM297 856l-2 -283h203q27 0 43 1t44 9t43.5 23t28.5 46t13 75q0 26 -6 47t-12 34.5t-21 23
t-23 14.5t-30 7.5t-28.5 3t-32 0t-28.5 -0.5h-192z" />
    <glyph glyph-name="dcaron" unicode="&#x10f;" horiz-adv-x="1007" 
d="M618 1821h125l-194 -318h-84l-201 318h131l107 -224zM999 719q-3 -363 -114.5 -542t-358.5 -179h-497v528l77 31l3 313l-80 33v527h456q255 3 386.5 -170.5t127.5 -540.5zM297 856l-2 -283h203q27 0 43 1t44 9t43.5 23t28.5 46t13 75q0 26 -6 47t-12 34.5t-21 23
t-23 14.5t-30 7.5t-28.5 3t-32 0t-28.5 -0.5h-192z" />
    <glyph glyph-name="Dcroat" unicode="&#x110;" horiz-adv-x="1007" 
d="M999 719q-3 -363 -114.5 -542t-358.5 -179h-497v528l77 31v109h-88v137h91v67l-80 33v527h456q255 3 386.5 -170.5t127.5 -540.5zM297 666l-2 -93h203q27 0 43 1t44 9t43.5 23t28.5 46t13 75q0 26 -6 47t-12 34.5t-21 23t-23 14.5t-30 7.5t-28.5 3t-32 0t-28.5 -0.5h-192
v-53h160v-137h-160z" />
    <glyph glyph-name="dcroat" unicode="&#x111;" horiz-adv-x="1007" 
d="M999 719q-3 -363 -114.5 -542t-358.5 -179h-497v528l77 31v109h-88v137h91v67l-80 33v527h456q255 3 386.5 -170.5t127.5 -540.5zM297 666l-2 -93h203q27 0 43 1t44 9t43.5 23t28.5 46t13 75q0 26 -6 47t-12 34.5t-21 23t-23 14.5t-30 7.5t-28.5 3t-32 0t-28.5 -0.5h-192
v-53h160v-137h-160z" />
    <glyph glyph-name="Emacron" unicode="&#x112;" horiz-adv-x="774" 
d="M174 1720h426v-178h-426v178zM270 571h467v-573h-712v528l77 31l4 739l-81 25v113h712v-342h-80l-41 182h-323v-217l141 -4l27 116h78v-514h-78l-27 111h-141z" />
    <glyph glyph-name="emacron" unicode="&#x113;" horiz-adv-x="774" 
d="M174 1720h426v-178h-426v178zM270 571h467v-573h-712v528l77 31l4 739l-81 25v113h712v-342h-80l-41 182h-323v-217l141 -4l27 116h78v-514h-78l-27 111h-141z" />
    <glyph glyph-name="Ebreve" unicode="&#x114;" horiz-adv-x="774" 
d="M469 1843h141l-121 -295h-208l-117 295h139l82 -149zM270 571h467v-573h-712v528l77 31l4 739l-81 25v113h712v-342h-80l-41 182h-323v-217l141 -4l27 116h78v-514h-78l-27 111h-141z" />
    <glyph glyph-name="ebreve" unicode="&#x115;" horiz-adv-x="774" 
d="M469 1843h141l-121 -295h-208l-117 295h139l82 -149zM270 571h467v-573h-712v528l77 31l4 739l-81 25v113h712v-342h-80l-41 182h-323v-217l141 -4l27 116h78v-514h-78l-27 111h-141z" />
    <glyph glyph-name="Edotaccent" unicode="&#x116;" horiz-adv-x="774" 
d="M489 1638q0 -34 -15.5 -58t-37.5 -24h-98q-22 0 -37.5 24t-15.5 58v148q0 36 15 60t38 24h98q22 0 37.5 -24.5t15.5 -59.5v-148zM270 571h467v-573h-712v528l77 31l4 739l-81 25v113h712v-342h-80l-41 182h-323v-217l141 -4l27 116h78v-514h-78l-27 111h-141z" />
    <glyph glyph-name="edotaccent" unicode="&#x117;" horiz-adv-x="774" 
d="M489 1638q0 -34 -15.5 -58t-37.5 -24h-98q-22 0 -37.5 24t-15.5 58v148q0 36 15 60t38 24h98q22 0 37.5 -24.5t15.5 -59.5v-148zM270 571h467v-573h-712v528l77 31l4 739l-81 25v113h712v-342h-80l-41 182h-323v-217l141 -4l27 116h78v-514h-78l-27 111h-141z" />
    <glyph glyph-name="Eogonek" unicode="&#x118;" horiz-adv-x="774" 
d="M840 -270q-27 -34 -71.5 -51t-86.5 -17q-62 0 -109 44t-47 132q0 60 27 102t63 42q24 0 46 -19l-11 35h-626v528l77 31l4 739l-81 25v113h712v-342h-80l-41 182h-323v-217l141 -4l27 116h78v-514h-78l-27 111h-141l-23 -195h467v-510l37 -141l-78 -67q-15 24 -34 24
q-29 0 -29 -35q0 -26 18 -36.5t37 -10.5q54 0 111 60z" />
    <glyph glyph-name="eogonek" unicode="&#x119;" horiz-adv-x="774" 
d="M840 -270q-27 -34 -71.5 -51t-86.5 -17q-62 0 -109 44t-47 132q0 60 27 102t63 42q24 0 46 -19l-11 35h-626v528l77 31l4 739l-81 25v113h712v-342h-80l-41 182h-323v-217l141 -4l27 116h78v-514h-78l-27 111h-141l-23 -195h467v-510l37 -141l-78 -67q-15 24 -34 24
q-29 0 -29 -35q0 -26 18 -36.5t37 -10.5q54 0 111 60z" />
    <glyph glyph-name="Ecaron" unicode="&#x11a;" horiz-adv-x="774" 
d="M502 1821h125l-195 -318h-86l-199 318h132l106 -224zM270 571h467v-573h-712v528l77 31l4 739l-81 25v113h712v-342h-80l-41 182h-323v-217l141 -4l27 116h78v-514h-78l-27 111h-141z" />
    <glyph glyph-name="ecaron" unicode="&#x11b;" horiz-adv-x="774" 
d="M502 1821h125l-195 -318h-86l-199 318h132l106 -224zM270 571h467v-573h-712v528l77 31l4 739l-81 25v113h712v-342h-80l-41 182h-323v-217l141 -4l27 116h78v-514h-78l-27 111h-141z" />
    <glyph glyph-name="Gcircumflex" unicode="&#x11c;" horiz-adv-x="999" 
d="M584 1548l-86 150l-82 -150h-140l117 295h209l121 -295h-139zM510 915h465v-917l-193 2v190q-42 -65 -82.5 -106t-81 -58.5t-70.5 -22t-73 -3.5q-100 -1 -178.5 24.5t-132 71.5t-88.5 113t-50.5 146t-15.5 173v383q3 253 108 384.5t302 136.5h373v-457h-342l-29 174
q-90 0 -157 -76.5t-68 -202.5l2 -90q1 -48 15 -86t35 -60.5t48 -37t50 -20t44 -5.5h127q9 0 23 2t51.5 12.5t67.5 27t56.5 51.5t31.5 81h-238v170z" />
    <glyph glyph-name="gcircumflex" unicode="&#x11d;" horiz-adv-x="999" 
d="M584 1548l-86 150l-82 -150h-140l117 295h209l121 -295h-139zM510 915h465v-917l-193 2v190q-42 -65 -82.5 -106t-81 -58.5t-70.5 -22t-73 -3.5q-100 -1 -178.5 24.5t-132 71.5t-88.5 113t-50.5 146t-15.5 173v383q3 253 108 384.5t302 136.5h373v-457h-342l-29 174
q-90 0 -157 -76.5t-68 -202.5l2 -90q1 -48 15 -86t35 -60.5t48 -37t50 -20t44 -5.5h127q9 0 23 2t51.5 12.5t67.5 27t56.5 51.5t31.5 81h-238v170z" />
    <glyph glyph-name="Gbreve" unicode="&#x11e;" horiz-adv-x="999" 
d="M584 1843h139l-121 -295h-209l-117 295h140l82 -149zM510 915h465v-917l-193 2v190q-42 -65 -82.5 -106t-81 -58.5t-70.5 -22t-73 -3.5q-100 -1 -178.5 24.5t-132 71.5t-88.5 113t-50.5 146t-15.5 173v383q3 253 108 384.5t302 136.5h373v-457h-342l-29 174
q-90 0 -157 -76.5t-68 -202.5l2 -90q1 -48 15 -86t35 -60.5t48 -37t50 -20t44 -5.5h127q9 0 23 2t51.5 12.5t67.5 27t56.5 51.5t31.5 81h-238v170z" />
    <glyph glyph-name="gbreve" unicode="&#x11f;" horiz-adv-x="999" 
d="M584 1843h139l-121 -295h-209l-117 295h140l82 -149zM510 915h465v-917l-193 2v190q-42 -65 -82.5 -106t-81 -58.5t-70.5 -22t-73 -3.5q-100 -1 -178.5 24.5t-132 71.5t-88.5 113t-50.5 146t-15.5 173v383q3 253 108 384.5t302 136.5h373v-457h-342l-29 174
q-90 0 -157 -76.5t-68 -202.5l2 -90q1 -48 15 -86t35 -60.5t48 -37t50 -20t44 -5.5h127q9 0 23 2t51.5 12.5t67.5 27t56.5 51.5t31.5 81h-238v170z" />
    <glyph glyph-name="Gdotaccent" unicode="&#x120;" horiz-adv-x="999" 
d="M602 1638q0 -34 -15 -58t-38 -24h-98q-22 0 -38 24t-16 58v148q0 35 16 59.5t38 24.5h98q23 0 38 -24t15 -60v-148zM510 915h465v-917l-193 2v190q-42 -65 -82.5 -106t-81 -58.5t-70.5 -22t-73 -3.5q-100 -1 -178.5 24.5t-132 71.5t-88.5 113t-50.5 146t-15.5 173v383
q3 253 108 384.5t302 136.5h373v-457h-342l-29 174q-90 0 -157 -76.5t-68 -202.5l2 -90q1 -48 15 -86t35 -60.5t48 -37t50 -20t44 -5.5h127q9 0 23 2t51.5 12.5t67.5 27t56.5 51.5t31.5 81h-238v170z" />
    <glyph glyph-name="gdotaccent" unicode="&#x121;" horiz-adv-x="999" 
d="M602 1638q0 -34 -15 -58t-38 -24h-98q-22 0 -38 24t-16 58v148q0 35 16 59.5t38 24.5h98q23 0 38 -24t15 -60v-148zM510 915h465v-917l-193 2v190q-42 -65 -82.5 -106t-81 -58.5t-70.5 -22t-73 -3.5q-100 -1 -178.5 24.5t-132 71.5t-88.5 113t-50.5 146t-15.5 173v383
q3 253 108 384.5t302 136.5h373v-457h-342l-29 174q-90 0 -157 -76.5t-68 -202.5l2 -90q1 -48 15 -86t35 -60.5t48 -37t50 -20t44 -5.5h127q9 0 23 2t51.5 12.5t67.5 27t56.5 51.5t31.5 81h-238v170z" />
    <glyph glyph-name="uni0122" unicode="&#x122;" horiz-adv-x="999" 
d="M510 915h465v-917l-193 2v190q-42 -65 -82.5 -106t-81 -58.5t-70.5 -22t-73 -3.5q-100 -1 -178.5 24.5t-132 71.5t-88.5 113t-50.5 146t-15.5 173v383q3 253 108 384.5t302 136.5h373v-457h-342l-29 174q-90 0 -157 -76.5t-68 -202.5l2 -90q1 -48 15 -86t35 -60.5t48 -37
t50 -20t44 -5.5h127q9 0 23 2t51.5 12.5t67.5 27t56.5 51.5t31.5 81h-238v170zM424 -92h172l-186 -248h-121z" />
    <glyph glyph-name="uni0123" unicode="&#x123;" horiz-adv-x="999" 
d="M510 915h465v-917l-193 2v190q-42 -65 -82.5 -106t-81 -58.5t-70.5 -22t-73 -3.5q-100 -1 -178.5 24.5t-132 71.5t-88.5 113t-50.5 146t-15.5 173v383q3 253 108 384.5t302 136.5h373v-457h-342l-29 174q-90 0 -157 -76.5t-68 -202.5l2 -90q1 -48 15 -86t35 -60.5t48 -37
t50 -20t44 -5.5h127q9 0 23 2t51.5 12.5t67.5 27t56.5 51.5t31.5 81h-238v170zM420 -92h166l-166 -238h-127z" />
    <glyph glyph-name="Hcircumflex" unicode="&#x124;" horiz-adv-x="944" 
d="M555 1548l-84 150l-82 -150h-139l117 295h206l121 -295h-139zM289 158l69 -39v-121h-333v121l75 43l4 1106l-77 41v121h335v-121l-71 -39v-557q69 114 180 127v436l-74 33v121h74l373 2v-2h71v-121l-71 -33v-1122l71 -35v-121h-518v121l74 35v493q-44 -5 -77.5 -46
t-52 -94t-30.5 -121t-15.5 -114t-4.5 -86z" />
    <glyph glyph-name="hcircumflex" unicode="&#x125;" horiz-adv-x="944" 
d="M555 1548l-84 150l-82 -150h-139l117 295h206l121 -295h-139zM289 158l69 -39v-121h-333v121l75 43l4 1106l-77 41v121h335v-121l-71 -39v-557q69 114 180 127v436l-74 33v121h74l373 2v-2h71v-121l-71 -33v-1122l71 -35v-121h-518v121l74 35v493q-44 -5 -77.5 -46
t-52 -94t-30.5 -121t-15.5 -114t-4.5 -86z" />
    <glyph glyph-name="Hbar" unicode="&#x126;" horiz-adv-x="944" 
d="M289 158l69 -39v-121h-333v121l75 43l4 1106l-77 41v121h335v-121l-71 -39v-164h180v170l-74 33v121h74l373 2v-2h71v-121l-71 -33v-1122l71 -35v-121h-518v121l74 35v493q-44 -5 -77.5 -46t-52 -94t-30.5 -121t-15.5 -114t-4.5 -86zM471 928h-180v-215q69 114 180 127
v88z" />
    <glyph glyph-name="hbar" unicode="&#x127;" horiz-adv-x="944" 
d="M289 158l69 -39v-121h-333v121l75 43l4 1106l-77 41v121h335v-121l-71 -39v-164h180v170l-74 33v121h74l373 2v-2h71v-121l-71 -33v-1122l71 -35v-121h-518v121l74 35v493q-44 -5 -77.5 -46t-52 -94t-30.5 -121t-15.5 -114t-4.5 -86zM471 928h-180v-215q69 114 180 127
v88z" />
    <glyph glyph-name="Itilde" unicode="&#x128;" horiz-adv-x="462" 
d="M418 1495q-35 -12 -66 -12q-39 0 -107 22.5t-102 22.5q-52 0 -98 -33v162q45 37 94 37q33 0 95 -22.5t96 -22.5q48 0 88 26v-180zM326 571l114 -45v-528h-420v528l117 45v697l-76 41v121h336v-121l-71 -39v-699z" />
    <glyph glyph-name="itilde" unicode="&#x129;" horiz-adv-x="462" 
d="M418 1495q-35 -12 -66 -12q-39 0 -107 22.5t-102 22.5q-52 0 -98 -33v162q45 37 94 37q33 0 95 -22.5t96 -22.5q48 0 88 26v-180zM326 571l114 -45v-528h-420v528l117 45v697l-76 41v121h336v-121l-71 -39v-699z" />
    <glyph glyph-name="Imacron" unicode="&#x12a;" horiz-adv-x="462" 
d="M18 1720h426v-178h-426v178zM326 571l114 -45v-528h-420v528l117 45v697l-76 41v121h336v-121l-71 -39v-699z" />
    <glyph glyph-name="imacron" unicode="&#x12b;" horiz-adv-x="462" 
d="M18 1720h426v-178h-426v178zM326 571l114 -45v-528h-420v528l117 45v697l-76 41v121h336v-121l-71 -39v-699z" />
    <glyph glyph-name="Iogonek" unicode="&#x12e;" horiz-adv-x="462" 
d="M440 -311q-29 -34 -72.5 -51t-84.5 -17q-62 0 -109 44.5t-47 131.5q0 61 27.5 103.5t64.5 42.5q21 0 43 -19l-22 74h-220v528l117 45v697l-76 41v121h336v-121l-71 -39v-699l114 -45v-528h-96l31 -117l-78 -67q-16 22 -35 22q-29 0 -29 -33q0 -26 18 -36.5t38 -10.5
q53 0 110 60z" />
    <glyph glyph-name="iogonek" unicode="&#x12f;" horiz-adv-x="462" 
d="M440 -311q-29 -34 -72.5 -51t-84.5 -17q-62 0 -109 44.5t-47 131.5q0 61 27.5 103.5t64.5 42.5q21 0 43 -19l-22 74h-220v528l117 45v697l-76 41v121h336v-121l-71 -39v-699l114 -45v-528h-96l31 -117l-78 -67q-16 22 -35 22q-29 0 -29 -33q0 -26 18 -36.5t38 -10.5
q53 0 110 60z" />
    <glyph glyph-name="Idotaccent" unicode="&#x130;" horiz-adv-x="462" 
d="M334 1638q0 -34 -15 -58t-38 -24h-99q-22 0 -37.5 24t-15.5 58v148q0 35 15.5 59.5t37.5 24.5h99q23 0 38 -24t15 -60v-148zM326 571l114 -45v-528h-420v528l117 45v697l-76 41v121h336v-121l-71 -39v-699z" />
    <glyph glyph-name="dotlessi" unicode="&#x131;" horiz-adv-x="462" 
d="M326 571l114 -45v-528h-420v528l117 45v697l-76 41v121h336v-121l-71 -39v-699z" />
    <glyph glyph-name="IJ" unicode="&#x132;" horiz-adv-x="1253" 
d="M1153 731q8 -731 -262 -733h-406v702h78l29 -131q54 1 87.5 3t74 7.5t65 15t51 25t41.5 38t28.5 54.5t19 74.5t6.5 96.5v266h-56l-18 -105h-342v388h186v4h494v-287h-78q0 -264 2 -418zM326 571l114 -45v-528h-420v528l117 45v697l-76 41v121h336v-121l-71 -39v-699z" />
    <glyph glyph-name="ij" unicode="&#x133;" horiz-adv-x="1253" 
d="M1153 731q8 -731 -262 -733h-406v702h78l29 -131q54 1 87.5 3t74 7.5t65 15t51 25t41.5 38t28.5 54.5t19 74.5t6.5 96.5v266h-56l-18 -105h-342v388h186v4h494v-287h-78q0 -264 2 -418zM326 571l114 -45v-528h-420v528l117 45v697l-76 41v121h336v-121l-71 -39v-699z" />
    <glyph glyph-name="Jcircumflex" unicode="&#x134;" horiz-adv-x="788" 
d="M477 1548l-84 150l-82 -150h-139l117 295h209l120 -295h-141zM690 731q8 -731 -264 -733h-406v702h80l29 -131q54 1 87.5 3t74 7.5t65 15t51 25t41.5 38t28.5 54.5t19 74.5t6.5 96.5v266h-58l-16 -105h-342v388h186v4h494v-287h-78q0 -264 2 -418z" />
    <glyph glyph-name="jcircumflex" unicode="&#x135;" horiz-adv-x="788" 
d="M477 1548l-84 150l-82 -150h-139l117 295h209l120 -295h-141zM690 731q8 -731 -264 -733h-406v702h80l29 -131q54 1 87.5 3t74 7.5t65 15t51 25t41.5 38t28.5 54.5t19 74.5t6.5 96.5v266h-58l-16 -105h-342v388h186v4h494v-287h-78q0 -264 2 -418z" />
    <glyph glyph-name="uni0136" unicode="&#x136;" horiz-adv-x="1011" 
d="M287 158l71 -39v-121h-333v121l71 41l4 1108l-75 41v125h333v-125l-71 -39v-266l170 303l-27 10l-4 117h358l2 -117l-106 -43l-244 -440q33 -20 53.5 -54t30.5 -66.5t23 -64t39 -53t69 -25.5h250l12 129h78v-702h-362q-72 0 -118.5 40.5t-65.5 105.5t-27.5 143.5
t-12 157.5t-12 145t-34.5 107.5t-72 43.5v-583zM446 -96h175l-189 -248h-119z" />
    <glyph glyph-name="uni0137" unicode="&#x137;" horiz-adv-x="1011" 
d="M287 158l71 -39v-121h-333v121l71 41l4 1108l-75 41v125h333v-125l-71 -39v-266l170 303l-27 10l-4 117h358l2 -117l-106 -43l-244 -440q33 -20 53.5 -54t30.5 -66.5t23 -64t39 -53t69 -25.5h250l12 129h78v-702h-362q-72 0 -118.5 40.5t-65.5 105.5t-27.5 143.5
t-12 157.5t-12 145t-34.5 107.5t-72 43.5v-583zM446 -96h175l-189 -248h-119z" />
    <glyph glyph-name="kgreenlandic" unicode="&#x138;" horiz-adv-x="923" 
d="M252 113l63 -29v-86h-290v86l61 29l4 790l-65 31v88h290v-88l-61 -29v-190l147 217l-24 6l-2 84h311l2 -84l-92 -31l-213 -313q29 -14 47 -38t26.5 -47t19.5 -45t33.5 -37.5t59.5 -18.5h222l8 90h67v-500h-315q-63 0 -103 29t-56.5 75t-24 102.5t-10.5 112.5t-10.5 103
t-30 77t-62.5 31z" />
    <glyph glyph-name="Lacute" unicode="&#x139;" horiz-adv-x="897" 
d="M434 1843h164l-164 -239h-135zM791 700h79v-702h-852v528l95 37l2 705l-76 41v121h334v-121l-72 -39l-27 -699h525z" />
    <glyph glyph-name="lacute" unicode="&#x13a;" horiz-adv-x="897" 
d="M434 1843h164l-164 -239h-135zM791 700h79v-702h-852v528l95 37l2 705l-76 41v121h334v-121l-72 -39l-27 -699h525z" />
    <glyph glyph-name="uni013B" unicode="&#x13b;" horiz-adv-x="897" 
d="M791 700h79v-702h-852v528l95 37l2 705l-76 41v121h334v-121l-72 -39l-27 -699h525zM397 -117h172l-186 -248h-121z" />
    <glyph glyph-name="uni013C" unicode="&#x13c;" horiz-adv-x="897" 
d="M791 700h79v-702h-852v528l95 37l2 705l-76 41v121h334v-121l-72 -39l-27 -699h525zM397 -117h172l-186 -248h-121z" />
    <glyph glyph-name="Lcaron" unicode="&#x13d;" horiz-adv-x="897" 
d="M539 1434h172l-187 -248h-121zM791 700h79v-702h-852v528l95 37l2 705l-76 41v121h334v-121l-72 -39v-699h461z" />
    <glyph glyph-name="lcaron" unicode="&#x13e;" horiz-adv-x="897" 
d="M539 1434h172l-187 -248h-121zM791 700h79v-702h-852v528l95 37l2 705l-76 41v121h334v-121l-72 -39v-699h461z" />
    <glyph glyph-name="Ldot" unicode="&#x13f;" horiz-adv-x="897" 
d="M791 700h79v-702h-852v528l95 37l2 705l-76 41v121h334v-121l-72 -39v-699h461zM631 788q0 -40 -19 -69t-45 -29h-114q-26 0 -45 29t-19 69v177q0 41 19 69.5t45 28.5h114q26 0 45 -28.5t19 -69.5v-177z" />
    <glyph glyph-name="Lslash" unicode="&#x141;" horiz-adv-x="897" 
d="M791 700h79v-702h-852v528l95 37v160l-164 -59v266l166 61v277l-76 41v121h334v-121l-72 -39v-209l258 94v-268l-258 -94v-222h461z" />
    <glyph glyph-name="lslash" unicode="&#x142;" horiz-adv-x="897" 
d="M791 700h79v-702h-852v528l95 37v160l-164 -59v266l166 61v277l-76 41v121h334v-121l-72 -39v-209l258 94v-268l-258 -94v-222h461z" />
    <glyph glyph-name="Nacute" unicode="&#x143;" horiz-adv-x="1003" 
d="M487 1843h164l-164 -239h-135zM289 158l69 -37v-121h-333v121l75 41l2 696h-77v574h266q55 0 93.5 -100t61.5 -252.5t43 -311t49.5 -299t69.5 -193.5l-2 586l-106 43v527h479v-1432h-371q-80 2 -126.5 78t-63 189.5t-26.5 230.5t-33 216t-68 130z" />
    <glyph glyph-name="nacute" unicode="&#x144;" horiz-adv-x="1003" 
d="M487 1843h164l-164 -239h-135zM289 158l69 -37v-121h-333v121l75 41l2 696h-77v574h266q55 0 93.5 -100t61.5 -252.5t43 -311t49.5 -299t69.5 -193.5l-2 586l-106 43v527h479v-1432h-371q-80 2 -126.5 78t-63 189.5t-26.5 230.5t-33 216t-68 130z" />
    <glyph glyph-name="uni0145" unicode="&#x145;" horiz-adv-x="1003" 
d="M289 158l69 -37v-121h-333v121l75 41l2 696h-77v574h266q55 0 93.5 -100t61.5 -252.5t43 -311t49.5 -299t69.5 -193.5l-2 586l-106 43v527h479v-1432h-371q-80 2 -126.5 78t-63 189.5t-26.5 230.5t-33 216t-68 130zM485 -117h174l-188 -248h-119z" />
    <glyph glyph-name="uni0146" unicode="&#x146;" horiz-adv-x="1003" 
d="M289 158l69 -37v-121h-333v121l75 41l2 696h-77v574h266q55 0 93.5 -100t61.5 -252.5t43 -311t49.5 -299t69.5 -193.5l-2 586l-106 43v527h479v-1432h-371q-80 2 -126.5 78t-63 189.5t-26.5 230.5t-33 216t-68 130zM485 -117h174l-188 -248h-119z" />
    <glyph glyph-name="Ncaron" unicode="&#x147;" horiz-adv-x="1003" 
d="M616 1821h125l-194 -318h-84l-201 318h131l107 -224zM289 158l69 -37v-121h-333v121l75 41l2 696h-77v574h266q55 0 93.5 -100t61.5 -252.5t43 -311t49.5 -299t69.5 -193.5l-2 586l-106 43v527h479v-1432h-371q-80 2 -126.5 78t-63 189.5t-26.5 230.5t-33 216t-68 130z
" />
    <glyph glyph-name="ncaron" unicode="&#x148;" horiz-adv-x="1003" 
d="M616 1821h125l-194 -318h-84l-201 318h131l107 -224zM289 158l69 -37v-121h-333v121l75 41l2 696h-77v574h266q55 0 93.5 -100t61.5 -252.5t43 -311t49.5 -299t69.5 -193.5l-2 586l-106 43v527h479v-1432h-371q-80 2 -126.5 78t-63 189.5t-26.5 230.5t-33 216t-68 130z
" />
    <glyph glyph-name="napostrophe" unicode="&#x149;" horiz-adv-x="1376" 
d="M330 1329q0 -102 -16.5 -180t-44 -126t-66.5 -78.5t-79 -42t-87 -11.5l2 94q56 -3 101 50q40 48 30 90q-7 26 -35 36q-13 4 -22 12.5t-14.5 22.5t-9 25.5t-4.5 32.5t-1.5 32.5t0 35.5t0.5 32v35q0 50 23.5 83t56.5 35h92q30 1 52 -32.5t22 -79.5v-66zM662 158l69 -37
v-121h-334v121l76 41l2 696h-78v574h267q55 0 93.5 -100t61.5 -252.5t43 -311t49.5 -299t69.5 -193.5l-2 586l-107 43v527h480v-1432h-371q-80 2 -126.5 78t-63 189.5t-26.5 230.5t-33 216t-68 130z" />
    <glyph glyph-name="Omacron" unicode="&#x14c;" 
d="M207 1720h428v-178h-428v178zM858 494q0 -91 -15 -169.5t-47.5 -145.5t-81 -114.5t-120 -74.5t-160.5 -27q-88 0 -159 27t-120 74.5t-82 114.5t-48 145.5t-15 169.5v442q3 257 111.5 389t312.5 135q201 -3 310 -135.5t112 -388.5zM201 713q6 -49 28.5 -85.5t52 -55
t57 -27t52.5 -8.5h84q21 0 43.5 5t49 19t47.5 35.5t36 58t17 82.5l2 158q-3 276 -240 279q-113 -1 -171 -74.5t-60 -206.5z" />
    <glyph glyph-name="omacron" unicode="&#x14d;" 
d="M207 1720h428v-178h-428v178zM858 494q0 -91 -15 -169.5t-47.5 -145.5t-81 -114.5t-120 -74.5t-160.5 -27q-88 0 -159 27t-120 74.5t-82 114.5t-48 145.5t-15 169.5v442q3 257 111.5 389t312.5 135q201 -3 310 -135.5t112 -388.5zM201 713q6 -49 28.5 -85.5t52 -55
t57 -27t52.5 -8.5h84q21 0 43.5 5t49 19t47.5 35.5t36 58t17 82.5l2 158q-3 276 -240 279q-113 -1 -171 -74.5t-60 -206.5z" />
    <glyph glyph-name="Obreve" unicode="&#x14e;" 
d="M504 1843h139l-121 -295h-207l-116 295h139l80 -149zM858 494q0 -91 -15 -169.5t-47.5 -145.5t-81 -114.5t-120 -74.5t-160.5 -27q-88 0 -159 27t-120 74.5t-82 114.5t-48 145.5t-15 169.5v442q3 257 111.5 389t312.5 135q201 -3 310 -135.5t112 -388.5zM201 713
q6 -49 28.5 -85.5t52 -55t57 -27t52.5 -8.5h84q21 0 43.5 5t49 19t47.5 35.5t36 58t17 82.5l2 158q-3 276 -240 279q-113 -1 -171 -74.5t-60 -206.5z" />
    <glyph glyph-name="obreve" unicode="&#x14f;" 
d="M504 1843h139l-121 -295h-207l-116 295h139l80 -149zM858 494q0 -91 -15 -169.5t-47.5 -145.5t-81 -114.5t-120 -74.5t-160.5 -27q-88 0 -159 27t-120 74.5t-82 114.5t-48 145.5t-15 169.5v442q3 257 111.5 389t312.5 135q201 -3 310 -135.5t112 -388.5zM201 713
q6 -49 28.5 -85.5t52 -55t57 -27t52.5 -8.5h84q21 0 43.5 5t49 19t47.5 35.5t36 58t17 82.5l2 158q-3 276 -240 279q-113 -1 -171 -74.5t-60 -206.5z" />
    <glyph glyph-name="Ohungarumlaut" unicode="&#x150;" 
d="M354 1817h172l-186 -248h-121zM580 1817h172l-187 -248h-121zM858 494q0 -91 -15 -169.5t-47.5 -145.5t-81 -114.5t-120 -74.5t-160.5 -27q-88 0 -159 27t-120 74.5t-82 114.5t-48 145.5t-15 169.5v442q3 257 111.5 389t312.5 135q201 -3 310 -135.5t112 -388.5zM201 713
q6 -49 28.5 -85.5t52 -55t57 -27t52.5 -8.5h84q21 0 43.5 5t49 19t47.5 35.5t36 58t17 82.5l2 158q-3 276 -240 279q-113 -1 -171 -74.5t-60 -206.5z" />
    <glyph glyph-name="ohungarumlaut" unicode="&#x151;" 
d="M354 1817h172l-186 -248h-121zM580 1817h172l-187 -248h-121zM858 494q0 -91 -15 -169.5t-47.5 -145.5t-81 -114.5t-120 -74.5t-160.5 -27q-88 0 -159 27t-120 74.5t-82 114.5t-48 145.5t-15 169.5v442q3 257 111.5 389t312.5 135q201 -3 310 -135.5t112 -388.5zM201 713
q6 -49 28.5 -85.5t52 -55t57 -27t52.5 -8.5h84q21 0 43.5 5t49 19t47.5 35.5t36 58t17 82.5l2 158q-3 276 -240 279q-113 -1 -171 -74.5t-60 -206.5z" />
    <glyph glyph-name="OE" unicode="&#x152;" horiz-adv-x="1361" 
d="M639 -2q-78 -35 -182 -35q-88 0 -159 27t-120 74.5t-82 114.5t-48 145.5t-15 169.5v442q3 258 111.5 389t312.5 133q87 0 157 -24h711v-342h-80l-41 182h-323v-217l141 -4l27 116h79v-514h-79l-25 111h-143v-195h444v-573h-686zM223 713q6 -50 28.5 -86.5t52.5 -55
t57.5 -26.5t52.5 -8h84q27 0 56 9t60 29.5t52 62.5t24 99l2 158q-3 276 -239 276q-114 0 -172 -72.5t-60 -205.5z" />
    <glyph glyph-name="oe" unicode="&#x153;" horiz-adv-x="1361" 
d="M639 -2q-78 -35 -182 -35q-88 0 -159 27t-120 74.5t-82 114.5t-48 145.5t-15 169.5v442q3 258 111.5 389t312.5 133q87 0 157 -24h711v-342h-80l-41 182h-323v-217l141 -4l27 116h79v-514h-79l-25 111h-143v-195h444v-573h-686zM223 713q6 -50 28.5 -86.5t52.5 -55
t57.5 -26.5t52.5 -8h84q27 0 56 9t60 29.5t52 62.5t24 99l2 158q-3 276 -239 276q-114 0 -172 -72.5t-60 -205.5z" />
    <glyph glyph-name="Racute" unicode="&#x154;" horiz-adv-x="1017" 
d="M483 1772h172l-186 -246h-121zM653 285h342v-287h-362q-62 0 -103 17t-59 45.5t-28 64.5t-10.5 74.5t-5 75.5t-12 67t-32.5 50t-66 24h-28v-258l69 -37v-121h-335v121l75 41l4 704l-79 2v564h493q233 0 344 -134.5t111 -402.5q0 -243 -103.5 -350.5t-326.5 -126.5
q18 -68 32 -88q26 -38 80 -45zM508 858l-219 4v-157q34 1 107.5 2t105.5 2q32 0 49 1.5t35.5 8.5t26.5 23t8 42q0 15 -3 27t-6 20t-12 13.5t-13.5 8t-18 4t-18.5 1.5h-21.5h-20.5z" />
    <glyph glyph-name="racute" unicode="&#x155;" horiz-adv-x="1017" 
d="M483 1772h172l-186 -246h-121zM653 285h342v-287h-362q-62 0 -103 17t-59 45.5t-28 64.5t-10.5 74.5t-5 75.5t-12 67t-32.5 50t-66 24h-28v-258l69 -37v-121h-335v121l75 41l4 704l-79 2v564h493q233 0 344 -134.5t111 -402.5q0 -243 -103.5 -350.5t-326.5 -126.5
q18 -68 32 -88q26 -38 80 -45zM508 858l-219 4v-157q34 1 107.5 2t105.5 2q32 0 49 1.5t35.5 8.5t26.5 23t8 42q0 15 -3 27t-6 20t-12 13.5t-13.5 8t-18 4t-18.5 1.5h-21.5h-20.5z" />
    <glyph glyph-name="uni0156" unicode="&#x156;" horiz-adv-x="1017" 
d="M653 285h342v-287h-362q-62 0 -103 17t-59 45.5t-28 64.5t-10.5 74.5t-5 75.5t-12 67t-32.5 50t-66 24h-28v-258l69 -37v-121h-335v121l75 41l4 704l-79 2v564h493q233 0 344 -134.5t111 -402.5q0 -243 -103.5 -350.5t-326.5 -126.5q18 -68 32 -88q26 -38 80 -45z
M508 858l-219 4v-157q34 1 107.5 2t105.5 2q32 0 49 1.5t35.5 8.5t26.5 23t8 42q0 15 -3 27t-6 20t-12 13.5t-13.5 8t-18 4t-18.5 1.5h-21.5h-20.5zM504 -84h174l-186 -246h-121z" />
    <glyph glyph-name="uni0157" unicode="&#x157;" horiz-adv-x="1017" 
d="M653 285h342v-287h-362q-62 0 -103 17t-59 45.5t-28 64.5t-10.5 74.5t-5 75.5t-12 67t-32.5 50t-66 24h-28v-258l69 -37v-121h-335v121l75 41l4 704l-79 2v564h493q233 0 344 -134.5t111 -402.5q0 -243 -103.5 -350.5t-326.5 -126.5q18 -68 32 -88q26 -38 80 -45z
M508 858l-219 4v-157q34 1 107.5 2t105.5 2q32 0 49 1.5t35.5 8.5t26.5 23t8 42q0 15 -3 27t-6 20t-12 13.5t-13.5 8t-18 4t-18.5 1.5h-21.5h-20.5zM504 -84h174l-186 -246h-121z" />
    <glyph glyph-name="Rcaron" unicode="&#x158;" horiz-adv-x="1017" 
d="M625 1821h125l-195 -318h-86l-199 318h131l107 -224zM653 285h342v-287h-362q-62 0 -103 17t-59 45.5t-28 64.5t-10.5 74.5t-5 75.5t-12 67t-32.5 50t-66 24h-28v-258l69 -37v-121h-335v121l75 41l4 704l-79 2v564h493q233 0 344 -134.5t111 -402.5q0 -243 -103.5 -350.5
t-326.5 -126.5q18 -68 32 -88q26 -38 80 -45zM508 858l-219 4v-157q34 1 107.5 2t105.5 2q32 0 49 1.5t35.5 8.5t26.5 23t8 42q0 15 -3 27t-6 20t-12 13.5t-13.5 8t-18 4t-18.5 1.5h-21.5h-20.5z" />
    <glyph glyph-name="rcaron" unicode="&#x159;" horiz-adv-x="1017" 
d="M625 1821h125l-195 -318h-86l-199 318h131l107 -224zM653 285h342v-287h-362q-62 0 -103 17t-59 45.5t-28 64.5t-10.5 74.5t-5 75.5t-12 67t-32.5 50t-66 24h-28v-258l69 -37v-121h-335v121l75 41l4 704l-79 2v564h493q233 0 344 -134.5t111 -402.5q0 -243 -103.5 -350.5
t-326.5 -126.5q18 -68 32 -88q26 -38 80 -45zM508 858l-219 4v-157q34 1 107.5 2t105.5 2q32 0 49 1.5t35.5 8.5t26.5 23t8 42q0 15 -3 27t-6 20t-12 13.5t-13.5 8t-18 4t-18.5 1.5h-21.5h-20.5z" />
    <glyph glyph-name="Sacute" unicode="&#x15a;" horiz-adv-x="1017" 
d="M494 1843h163l-163 -239h-134zM682 649q140 0 206 -139q56 -118 38 -274q-17 -140 -82 -203q-35 -33 -76 -33h-745v389h393l26 -104q33 -1 66.5 -1t66 0.5t43.5 0.5q93 0 89 94q-4 40 -23 69t-57 29q-23 0 -68.5 -1.5t-78 -2.5t-81 1t-84 7.5t-79.5 19t-75.5 33.5t-63 53
t-51 75t-32 101.5t-12.5 131.5q0 268 111 402.5t344 134.5h493v-684h-342l-51 112q-25 0 -56 -1t-36 -1q-24 -1 -41 -4.5t-34.5 -12.5t-27 -29t-10.5 -50q0 -54 27.5 -85t79.5 -32q44 -1 117 1.5t106 2.5z" />
    <glyph glyph-name="sacute" unicode="&#x15b;" horiz-adv-x="1017" 
d="M494 1843h163l-163 -239h-134zM682 649q140 0 206 -139q56 -118 38 -274q-17 -140 -82 -203q-35 -33 -76 -33h-745v389h393l26 -104q33 -1 66.5 -1t66 0.5t43.5 0.5q93 0 89 94q-4 40 -23 69t-57 29q-23 0 -68.5 -1.5t-78 -2.5t-81 1t-84 7.5t-79.5 19t-75.5 33.5t-63 53
t-51 75t-32 101.5t-12.5 131.5q0 268 111 402.5t344 134.5h493v-684h-342l-51 112q-25 0 -56 -1t-36 -1q-24 -1 -41 -4.5t-34.5 -12.5t-27 -29t-10.5 -50q0 -54 27.5 -85t79.5 -32q44 -1 117 1.5t106 2.5z" />
    <glyph glyph-name="Scircumflex" unicode="&#x15c;" horiz-adv-x="1017" 
d="M592 1548l-86 150l-80 -150h-141l118 295h207l121 -295h-139zM682 649q140 0 206 -139q56 -118 38 -274q-17 -140 -82 -203q-35 -33 -76 -33h-745v389h393l26 -104q33 -1 66.5 -1t66 0.5t43.5 0.5q93 0 89 94q-4 40 -23 69t-57 29q-23 0 -68.5 -1.5t-78 -2.5t-81 1
t-84 7.5t-79.5 19t-75.5 33.5t-63 53t-51 75t-32 101.5t-12.5 131.5q0 268 111 402.5t344 134.5h493v-684h-342l-51 112q-25 0 -56 -1t-36 -1q-24 -1 -41 -4.5t-34.5 -12.5t-27 -29t-10.5 -50q0 -54 27.5 -85t79.5 -32q44 -1 117 1.5t106 2.5z" />
    <glyph glyph-name="scircumflex" unicode="&#x15d;" horiz-adv-x="1017" 
d="M592 1548l-86 150l-80 -150h-141l118 295h207l121 -295h-139zM682 649q140 0 206 -139q56 -118 38 -274q-17 -140 -82 -203q-35 -33 -76 -33h-745v389h393l26 -104q33 -1 66.5 -1t66 0.5t43.5 0.5q93 0 89 94q-4 40 -23 69t-57 29q-23 0 -68.5 -1.5t-78 -2.5t-81 1
t-84 7.5t-79.5 19t-75.5 33.5t-63 53t-51 75t-32 101.5t-12.5 131.5q0 268 111 402.5t344 134.5h493v-684h-342l-51 112q-25 0 -56 -1t-36 -1q-24 -1 -41 -4.5t-34.5 -12.5t-27 -29t-10.5 -50q0 -54 27.5 -85t79.5 -32q44 -1 117 1.5t106 2.5z" />
    <glyph glyph-name="Scedilla" unicode="&#x15e;" horiz-adv-x="1017" 
d="M666 -203q0 -87 -47 -131.5t-109 -44.5q-42 0 -86.5 17t-71.5 51l41 127q57 -60 109 -60q20 0 37.5 10.5t17.5 36.5q0 33 -27 33q-21 0 -34 -22l-78 67l31 119h-426v389h393l26 -104q33 -1 66.5 -1t66 0.5t43.5 0.5q93 0 89 94q-4 40 -23 69t-57 29q-23 0 -68.5 -1.5
t-78 -2.5t-81 1t-84 7.5t-79.5 19t-75.5 33.5t-63 53t-51 75t-32 101.5t-12.5 131.5q0 268 111 402.5t344 134.5h493v-684h-342l-51 112q-25 0 -56 -1t-36 -1q-24 -1 -41 -4.5t-34.5 -12.5t-27 -29t-10.5 -50q0 -54 27.5 -85t79.5 -32q44 -1 117 1.5t106 2.5q140 0 206 -139
q56 -118 38 -274q-17 -140 -82 -203q-35 -33 -76 -33h-215l-23 -76q22 19 43 19q37 0 65 -42.5t28 -103.5z" />
    <glyph glyph-name="scedilla" unicode="&#x15f;" horiz-adv-x="1017" 
d="M666 -203q0 -87 -47 -131.5t-109 -44.5q-42 0 -86.5 17t-71.5 51l41 127q57 -60 109 -60q20 0 37.5 10.5t17.5 36.5q0 33 -27 33q-21 0 -34 -22l-78 67l31 119h-426v389h393l26 -104q33 -1 66.5 -1t66 0.5t43.5 0.5q93 0 89 94q-4 40 -23 69t-57 29q-23 0 -68.5 -1.5
t-78 -2.5t-81 1t-84 7.5t-79.5 19t-75.5 33.5t-63 53t-51 75t-32 101.5t-12.5 131.5q0 268 111 402.5t344 134.5h493v-684h-342l-51 112q-25 0 -56 -1t-36 -1q-24 -1 -41 -4.5t-34.5 -12.5t-27 -29t-10.5 -50q0 -54 27.5 -85t79.5 -32q44 -1 117 1.5t106 2.5q140 0 206 -139
q56 -118 38 -274q-17 -140 -82 -203q-35 -33 -76 -33h-215l-23 -76q22 19 43 19q37 0 65 -42.5t28 -103.5z" />
    <glyph glyph-name="Scaron" unicode="&#x160;" horiz-adv-x="1017" 
d="M625 1821h123l-193 -318h-86l-201 318h133l105 -224zM682 649q140 0 206 -139q56 -118 38 -274q-17 -140 -82 -203q-35 -33 -76 -33h-745v389h393l26 -104q33 -1 66.5 -1t66 0.5t43.5 0.5q93 0 89 94q-4 40 -23 69t-57 29q-23 0 -68.5 -1.5t-78 -2.5t-81 1t-84 7.5
t-79.5 19t-75.5 33.5t-63 53t-51 75t-32 101.5t-12.5 131.5q0 268 111 402.5t344 134.5h493v-684h-342l-51 112q-25 0 -56 -1t-36 -1q-24 -1 -41 -4.5t-34.5 -12.5t-27 -29t-10.5 -50q0 -54 27.5 -85t79.5 -32q44 -1 117 1.5t106 2.5z" />
    <glyph glyph-name="scaron" unicode="&#x161;" horiz-adv-x="1017" 
d="M625 1821h123l-193 -318h-86l-201 318h133l105 -224zM682 649q140 0 206 -139q56 -118 38 -274q-17 -140 -82 -203q-35 -33 -76 -33h-745v389h393l26 -104q33 -1 66.5 -1t66 0.5t43.5 0.5q93 0 89 94q-4 40 -23 69t-57 29q-23 0 -68.5 -1.5t-78 -2.5t-81 1t-84 7.5
t-79.5 19t-75.5 33.5t-63 53t-51 75t-32 101.5t-12.5 131.5q0 268 111 402.5t344 134.5h493v-684h-342l-51 112q-25 0 -56 -1t-36 -1q-24 -1 -41 -4.5t-34.5 -12.5t-27 -29t-10.5 -50q0 -54 27.5 -85t79.5 -32q44 -1 117 1.5t106 2.5z" />
    <glyph glyph-name="uni0162" unicode="&#x162;" horiz-adv-x="995" 
d="M653 -203q0 -87 -46 -131.5t-107 -44.5q-43 0 -87 17t-71 51l41 127q53 -60 109 -60q20 0 37.5 10.5t17.5 36.5q0 33 -27 33q-22 0 -35 -22l-77 67l30 119h-123v121l76 41l4 696h-260l-22 -110h-80v684h932v-684h-80l-23 110h-280v-700l69 -37v-121h-108l-23 -76
q22 19 43 19q36 0 63 -42.5t27 -103.5z" />
    <glyph glyph-name="uni0163" unicode="&#x163;" horiz-adv-x="995" 
d="M653 -203q0 -87 -46 -131.5t-107 -44.5q-43 0 -87 17t-71 51l41 127q53 -60 109 -60q20 0 37.5 10.5t17.5 36.5q0 33 -27 33q-22 0 -35 -22l-77 67l30 119h-123v121l76 41l4 696h-260l-22 -110h-80v684h932v-684h-80l-23 110h-280v-700l69 -37v-121h-108l-23 -76
q22 19 43 19q36 0 63 -42.5t27 -103.5z" />
    <glyph glyph-name="Tcaron" unicode="&#x164;" horiz-adv-x="995" 
d="M614 1821h123l-194 -318h-84l-201 318h131l107 -224zM582 158l69 -37v-121h-336v121l76 41l4 696h-260l-22 -110h-80v684h932v-684h-80l-23 110h-280v-700z" />
    <glyph glyph-name="tcaron" unicode="&#x165;" horiz-adv-x="1363" 
d="M1329 1329q0 -101 -17 -179.5t-44 -126.5t-66.5 -78.5t-79.5 -42t-86 -11.5v94q57 -4 102 51q41 49 29 90q-6 25 -34 35q-10 3 -17.5 9t-13 15.5t-9.5 18t-6 22.5t-3.5 23.5t-2 26.5t-0.5 25.5v27.5v25l2 35q0 50 22.5 83t55.5 35h92q31 1 53.5 -32.5t22.5 -79.5v-66z
M582 158l69 -37v-121h-336v121l76 41l4 696h-260l-22 -110h-80v684h932v-684h-80l-23 110h-280v-700z" />
    <glyph glyph-name="Tbar" unicode="&#x166;" horiz-adv-x="995" 
d="M582 158l69 -37v-121h-336v121l76 41l2 342h-108v178h108l2 176h-260l-22 -110h-80v684h932v-684h-80l-23 110h-280v-176h129v-178h-129v-346z" />
    <glyph glyph-name="tbar" unicode="&#x167;" horiz-adv-x="995" 
d="M582 158l69 -37v-121h-336v121l76 41l2 342h-108v178h108l2 176h-260l-22 -110h-80v684h932v-684h-80l-23 110h-280v-176h129v-178h-129v-346z" />
    <glyph glyph-name="Utilde" unicode="&#x168;" horiz-adv-x="1024" 
d="M698 1495q-34 -12 -65 -12q-39 0 -107 22.5t-102 22.5q-52 0 -98 -33v162q45 37 94 37q33 0 94.5 -22.5t95.5 -22.5q48 0 88 26v-180zM993 788q0 -399 -90.5 -593.5t-253.5 -194.5l-243 2q-167 0 -254.5 163t-90.5 468v637l-75 41v123h336v-123l-76 -19v-659
q0 -90 21 -167t63.5 -126.5t97.5 -50.5l57 2q38 1 66.5 33t42.5 80.5t20.5 94.5t6.5 89v274l-115 43v527h487v-644z" />
    <glyph glyph-name="utilde" unicode="&#x169;" horiz-adv-x="1024" 
d="M698 1495q-34 -12 -65 -12q-39 0 -107 22.5t-102 22.5q-52 0 -98 -33v162q45 37 94 37q33 0 94.5 -22.5t95.5 -22.5q48 0 88 26v-180zM993 788q0 -399 -90.5 -593.5t-253.5 -194.5l-243 2q-167 0 -254.5 163t-90.5 468v637l-75 41v123h336v-123l-76 -19v-659
q0 -90 21 -167t63.5 -126.5t97.5 -50.5l57 2q38 1 66.5 33t42.5 80.5t20.5 94.5t6.5 89v274l-115 43v527h487v-644z" />
    <glyph glyph-name="Umacron" unicode="&#x16a;" horiz-adv-x="1024" 
d="M299 1720h426v-178h-426v178zM993 788q0 -399 -90.5 -593.5t-253.5 -194.5l-243 2q-167 0 -254.5 163t-90.5 468v637l-75 41v123h336v-123l-76 -19v-659q0 -90 21 -167t63.5 -126.5t97.5 -50.5l57 2q38 1 66.5 33t42.5 80.5t20.5 94.5t6.5 89v274l-115 43v527h487v-644z
" />
    <glyph glyph-name="umacron" unicode="&#x16b;" horiz-adv-x="1024" 
d="M299 1720h426v-178h-426v178zM993 788q0 -399 -90.5 -593.5t-253.5 -194.5l-243 2q-167 0 -254.5 163t-90.5 468v637l-75 41v123h336v-123l-76 -19v-659q0 -90 21 -167t63.5 -126.5t97.5 -50.5l57 2q38 1 66.5 33t42.5 80.5t20.5 94.5t6.5 89v274l-115 43v527h487v-644z
" />
    <glyph glyph-name="Ubreve" unicode="&#x16c;" horiz-adv-x="1024" 
d="M596 1843h139l-121 -295h-208l-117 295h139l82 -149zM993 788q0 -399 -90.5 -593.5t-253.5 -194.5l-243 2q-167 0 -254.5 163t-90.5 468v637l-75 41v123h336v-123l-76 -19v-659q0 -90 21 -167t63.5 -126.5t97.5 -50.5l57 2q38 1 66.5 33t42.5 80.5t20.5 94.5t6.5 89v274
l-115 43v527h487v-644z" />
    <glyph glyph-name="ubreve" unicode="&#x16d;" horiz-adv-x="1024" 
d="M596 1843h139l-121 -295h-208l-117 295h139l82 -149zM993 788q0 -399 -90.5 -593.5t-253.5 -194.5l-243 2q-167 0 -254.5 163t-90.5 468v637l-75 41v123h336v-123l-76 -19v-659q0 -90 21 -167t63.5 -126.5t97.5 -50.5l57 2q38 1 66.5 33t42.5 80.5t20.5 94.5t6.5 89v274
l-115 43v527h487v-644z" />
    <glyph glyph-name="Uring" unicode="&#x16e;" horiz-adv-x="1024" 
d="M651 1702q0 -91 -40.5 -154t-98.5 -63t-98.5 63t-40.5 154q0 90 40.5 152.5t98.5 62.5t98.5 -62.5t40.5 -152.5zM432 1702q0 -52 24 -89.5t56 -37.5q34 0 57 37t23 90q0 51 -23 87t-57 36q-32 0 -56 -36t-24 -87zM993 788q0 -399 -90.5 -593.5t-253.5 -194.5l-243 2
q-167 0 -254.5 163t-90.5 468v637l-75 41v123h336v-123l-76 -19v-659q0 -90 21 -167t63.5 -126.5t97.5 -50.5l57 2q38 1 66.5 33t42.5 80.5t20.5 94.5t6.5 89v274l-115 43v527h487v-644z" />
    <glyph glyph-name="uring" unicode="&#x16f;" horiz-adv-x="1024" 
d="M651 1702q0 -91 -40.5 -154t-98.5 -63t-98.5 63t-40.5 154q0 90 40.5 152.5t98.5 62.5t98.5 -62.5t40.5 -152.5zM432 1702q0 -52 24 -89.5t56 -37.5q34 0 57 37t23 90q0 51 -23 87t-57 36q-32 0 -56 -36t-24 -87zM993 788q0 -399 -90.5 -593.5t-253.5 -194.5l-243 2
q-167 0 -254.5 163t-90.5 468v637l-75 41v123h336v-123l-76 -19v-659q0 -90 21 -167t63.5 -126.5t97.5 -50.5l57 2q38 1 66.5 33t42.5 80.5t20.5 94.5t6.5 89v274l-115 43v527h487v-644z" />
    <glyph glyph-name="Uhungarumlaut" unicode="&#x170;" horiz-adv-x="1024" 
d="M383 1843h174l-188 -248h-119zM608 1843h172l-186 -248h-119zM993 788q0 -399 -90.5 -593.5t-253.5 -194.5l-243 2q-167 0 -254.5 163t-90.5 468v637l-75 41v123h336v-123l-76 -19v-659q0 -90 21 -167t63.5 -126.5t97.5 -50.5l57 2q38 1 66.5 33t42.5 80.5t20.5 94.5
t6.5 89v274l-115 43v527h487v-644z" />
    <glyph glyph-name="uhungarumlaut" unicode="&#x171;" horiz-adv-x="1024" 
d="M383 1843h174l-188 -248h-119zM608 1843h172l-186 -248h-119zM993 788q0 -399 -90.5 -593.5t-253.5 -194.5l-243 2q-167 0 -254.5 163t-90.5 468v637l-75 41v123h336v-123l-76 -19v-659q0 -90 21 -167t63.5 -126.5t97.5 -50.5l57 2q38 1 66.5 33t42.5 80.5t20.5 94.5
t6.5 89v274l-115 43v527h487v-644z" />
    <glyph glyph-name="Uogonek" unicode="&#x172;" horiz-adv-x="1024" 
d="M799 -311q-27 -34 -71.5 -51t-86.5 -17q-62 0 -109 44.5t-47 131.5q0 61 28 103.5t65 42.5q21 0 43 -19l-23 76l-192 2q-167 0 -254.5 163t-90.5 468v637l-75 41v123h336v-123l-76 -19v-659q0 -90 21 -167t63.5 -126.5t97.5 -50.5l57 2q38 1 66.5 33t42.5 80.5t20.5 94.5
t6.5 89v274l-115 43v527h487v-644q0 -366 -76.5 -559.5t-216.5 -222.5l33 -125l-78 -67q-14 24 -34 24q-27 0 -27 -35q0 -26 17.5 -36.5t37.5 -10.5q52 0 109 60z" />
    <glyph glyph-name="uogonek" unicode="&#x173;" horiz-adv-x="1024" 
d="M799 -311q-27 -34 -71.5 -51t-86.5 -17q-62 0 -109 44.5t-47 131.5q0 61 28 103.5t65 42.5q21 0 43 -19l-23 76l-192 2q-167 0 -254.5 163t-90.5 468v637l-75 41v123h336v-123l-76 -19v-659q0 -90 21 -167t63.5 -126.5t97.5 -50.5l57 2q38 1 66.5 33t42.5 80.5t20.5 94.5
t6.5 89v274l-115 43v527h487v-644q0 -366 -76.5 -559.5t-216.5 -222.5l33 -125l-78 -67q-14 24 -34 24q-27 0 -27 -35q0 -26 17.5 -36.5t37.5 -10.5q52 0 109 60z" />
    <glyph glyph-name="Wcircumflex" unicode="&#x174;" horiz-adv-x="1558" 
d="M862 1548l-86 150l-80 -150h-141l119 295h207l120 -295h-139zM756 59q54 391 -41 766l-170 -825h-189l-262 1270l-74 41v121h334v-121l-67 -37l164 -807l163 807l-69 37v121h336v-121l-74 -41l-41 -195q77 -235 106 -502l166 725l-24 13v121h518v-121l-96 -45l-289 -1266
h-406q1 9 11 43z" />
    <glyph glyph-name="wcircumflex" unicode="&#x175;" horiz-adv-x="1558" 
d="M862 1548l-86 150l-80 -150h-141l119 295h207l120 -295h-139zM756 59q54 391 -41 766l-170 -825h-189l-262 1270l-74 41v121h334v-121l-67 -37l164 -807l163 807l-69 37v121h336v-121l-74 -41l-41 -195q77 -235 106 -502l166 725l-24 13v121h518v-121l-96 -45l-289 -1266
h-406q1 9 11 43z" />
    <glyph glyph-name="Ycircumflex" unicode="&#x176;" horiz-adv-x="1112" 
d="M639 1548l-86 150l-80 -150h-139l117 295h206l121 -295h-139zM618 158l70 -37v-121h-336v121l76 41l4 368l-326 734l-86 47v121h336v-121l-61 -33l158 -363l168 371l-52 25v121h518v-121l-67 -33l-399 -895h-3v-225z" />
    <glyph glyph-name="ycircumflex" unicode="&#x177;" horiz-adv-x="1112" 
d="M639 1548l-86 150l-80 -150h-139l117 295h206l121 -295h-139zM618 158l70 -37v-121h-336v121l76 41l4 368l-326 734l-86 47v121h336v-121l-61 -33l158 -363l168 371l-52 25v121h518v-121l-67 -33l-399 -895h-3v-225z" />
    <glyph glyph-name="Ydieresis" unicode="&#x178;" horiz-adv-x="1112" 
d="M516 1661q0 -54 -24.5 -91.5t-59.5 -37.5t-59.5 37.5t-24.5 91.5t24.5 91.5t59.5 37.5t59.5 -37.5t24.5 -91.5zM764 1661q0 -54 -25 -91.5t-59 -37.5q-35 0 -59.5 37.5t-24.5 91.5t24.5 91.5t59.5 37.5q34 0 59 -37.5t25 -91.5zM618 158l70 -37v-121h-336v121l76 41
l4 368l-326 734l-86 47v121h336v-121l-61 -33l158 -363l168 371l-52 25v121h518v-121l-67 -33l-399 -895h-3v-225z" />
    <glyph glyph-name="Zacute" unicode="&#x179;" horiz-adv-x="991" 
d="M481 1843h164l-164 -239h-135zM668 391h293v-391l-932 2l2 293q13 5 35 14t87 39.5t125.5 64t137 85t136 104.5t108.5 121t67 135h-326l-28 -176h-344v750h932v-574q-74 -155 -228.5 -314t-347.5 -251l266 -4z" />
    <glyph glyph-name="zacute" unicode="&#x17a;" horiz-adv-x="991" 
d="M481 1843h164l-164 -239h-135zM668 391h293v-391l-932 2l2 293q13 5 35 14t87 39.5t125.5 64t137 85t136 104.5t108.5 121t67 135h-326l-28 -176h-344v750h932v-574q-74 -155 -228.5 -314t-347.5 -251l266 -4z" />
    <glyph glyph-name="Zdotaccent" unicode="&#x17b;" horiz-adv-x="991" 
d="M598 1638q0 -34 -15 -58t-38 -24h-99q-22 0 -37.5 24t-15.5 58v148q0 35 15.5 59.5t37.5 24.5h99q23 0 38 -24t15 -60v-148zM668 391h293v-391l-932 2l2 293q13 5 35 14t87 39.5t125.5 64t137 85t136 104.5t108.5 121t67 135h-326l-28 -176h-344v750h932v-574
q-74 -155 -228.5 -314t-347.5 -251l266 -4z" />
    <glyph glyph-name="zdotaccent" unicode="&#x17c;" horiz-adv-x="991" 
d="M598 1599q0 -34 -15 -58.5t-38 -24.5h-99q-22 0 -37.5 24.5t-15.5 58.5v148q0 34 15.5 58t37.5 26h99q23 -1 38 -25.5t15 -58.5v-148zM668 391h293v-391l-932 2l2 293q13 5 35 14t87 39.5t125.5 64t137 85t136 104.5t108.5 121t67 135h-326l-28 -176h-344v750h932v-574
q-74 -155 -228.5 -314t-347.5 -251l266 -4z" />
    <glyph glyph-name="Zcaron" unicode="&#x17d;" horiz-adv-x="991" 
d="M612 1821h123l-194 -318h-84l-201 318h131l107 -224zM668 391h293v-391l-932 2l2 293q13 5 35 14t87 39.5t125.5 64t137 85t136 104.5t108.5 121t67 135h-326l-28 -176h-344v750h932v-574q-74 -155 -228.5 -314t-347.5 -251l266 -4z" />
    <glyph glyph-name="zcaron" unicode="&#x17e;" horiz-adv-x="991" 
d="M612 1821h123l-194 -318h-84l-201 318h131l107 -224zM668 391h293v-391l-932 2l2 293q13 5 35 14t87 39.5t125.5 64t137 85t136 104.5t108.5 121t67 135h-326l-28 -176h-344v750h932v-574q-74 -155 -228.5 -314t-347.5 -251l266 -4z" />
    <glyph glyph-name="florin" unicode="&#x192;" horiz-adv-x="815" 
d="M301 158l70 -39v-121h-334v121l76 43l2 710l-78 31v529h250l501 -2v-572h-485v-207l260 -6v-287l-262 2v-202z" />
    <glyph glyph-name="uni0218" unicode="&#x218;" horiz-adv-x="1017" 
d="M682 649q140 0 206 -139q56 -118 38 -274q-17 -140 -82 -203q-35 -33 -76 -33h-745v389h393l26 -104q33 -1 66.5 -1t66 0.5t43.5 0.5q93 0 89 94q-4 40 -23 69t-57 29q-23 0 -68.5 -1.5t-78 -2.5t-81 1t-84 7.5t-79.5 19t-75.5 33.5t-63 53t-51 75t-32 101.5t-12.5 131.5
q0 268 111 402.5t344 134.5h493v-684h-342l-51 112q-25 0 -56 -1t-36 -1q-24 -1 -41 -4.5t-34.5 -12.5t-27 -29t-10.5 -50q0 -54 27.5 -85t79.5 -32q44 -1 117 1.5t106 2.5zM492 -72h174l-187 -247h-121z" />
    <glyph glyph-name="uni0219" unicode="&#x219;" horiz-adv-x="1017" 
d="M682 649q140 0 206 -139q56 -118 38 -274q-17 -140 -82 -203q-35 -33 -76 -33h-745v389h393l26 -104q33 -1 66.5 -1t66 0.5t43.5 0.5q93 0 89 94q-4 40 -23 69t-57 29q-23 0 -68.5 -1.5t-78 -2.5t-81 1t-84 7.5t-79.5 19t-75.5 33.5t-63 53t-51 75t-32 101.5t-12.5 131.5
q0 268 111 402.5t344 134.5h493v-684h-342l-51 112q-25 0 -56 -1t-36 -1q-24 -1 -41 -4.5t-34.5 -12.5t-27 -29t-10.5 -50q0 -54 27.5 -85t79.5 -32q44 -1 117 1.5t106 2.5zM492 -72h174l-187 -247h-121z" />
    <glyph glyph-name="uni021A" unicode="&#x21a;" horiz-adv-x="995" 
d="M582 158l69 -37v-121h-336v121l76 41l4 696h-260l-22 -110h-80v684h932v-684h-80l-23 110h-280v-700zM481 -96h174l-188 -248h-119z" />
    <glyph glyph-name="uni021B" unicode="&#x21b;" horiz-adv-x="995" 
d="M582 158l69 -37v-121h-336v121l76 41l4 696h-260l-22 -110h-80v684h932v-684h-80l-23 110h-280v-700zM481 -96h174l-188 -248h-119z" />
    <glyph glyph-name="circumflex" unicode="&#x2c6;" horiz-adv-x="446" 
d="M307 1139l-86 149l-82 -149h-139l117 295h209l120 -295h-139z" />
    <glyph glyph-name="caron" unicode="&#x2c7;" horiz-adv-x="501" 
d="M395 1411h125l-194 -317h-86l-201 317h133l104 -223z" />
    <glyph glyph-name="uni02C9" unicode="&#x2c9;" horiz-adv-x="501" 
d="M37 1311h428v-178h-428v178z" />
    <glyph glyph-name="breve" unicode="&#x2d8;" horiz-adv-x="446" 
d="M307 1434h139l-120 -295h-209l-117 295h139l82 -150z" />
    <glyph glyph-name="dotaccent" unicode="&#x2d9;" horiz-adv-x="305" 
d="M252 1229q0 -34 -16 -58t-39 -24h-99q-22 0 -37.5 24t-15.5 58v147q0 35 15.5 59.5t37.5 24.5h99q23 0 39 -24.5t16 -59.5v-147z" />
    <glyph glyph-name="ring" unicode="&#x2da;" horiz-adv-x="278" 
d="M283 1292q0 -91 -40.5 -154t-99.5 -63q-58 0 -98.5 63t-40.5 154q0 90 40.5 152.5t98.5 62.5t99 -63t41 -152zM63 1292q0 -52 24 -89.5t56 -37.5q35 0 57.5 37t22.5 90q0 52 -22.5 87.5t-57.5 35.5q-32 0 -56 -36t-24 -87z" />
    <glyph glyph-name="ogonek" unicode="&#x2db;" horiz-adv-x="313" 
d="M313 -311q-29 -34 -72.5 -51t-84.5 -17q-63 0 -109.5 44.5t-46.5 131.5q0 61 27.5 103.5t64.5 42.5q21 0 43 -19l-35 115h107l41 -158l-80 -67q-13 22 -33 22q-29 0 -29 -33q0 -26 18 -36.5t38 -10.5q53 0 110 60z" />
    <glyph glyph-name="tilde" unicode="&#x2dc;" horiz-adv-x="532" 
d="M477 1085q-35 -12 -65 -12q-38 0 -106 22.5t-103 22.5q-51 0 -97 -33v162q45 37 95 37q31 0 92.5 -22.5t97.5 -22.5q44 0 86 27v-181z" />
    <glyph glyph-name="hungarumlaut" unicode="&#x2dd;" horiz-adv-x="583" 
d="M236 1434h174l-187 -248h-121zM461 1434h174l-189 -248h-118z" />
    <glyph glyph-name="Wgrave" unicode="&#x1e80;" horiz-adv-x="1558" 
d="M631 1843h166l129 -237h-129zM756 59q54 391 -41 766l-170 -825h-189l-262 1270l-74 41v121h334v-121l-67 -37l164 -807l163 807l-69 37v121h336v-121l-74 -41l-41 -195q77 -235 106 -502l166 725l-24 13v121h518v-121l-96 -45l-289 -1266h-406q1 9 11 43z" />
    <glyph glyph-name="wgrave" unicode="&#x1e81;" horiz-adv-x="1558" 
d="M631 1843h166l129 -237h-129zM756 59q54 391 -41 766l-170 -825h-189l-262 1270l-74 41v121h334v-121l-67 -37l164 -807l163 807l-69 37v121h336v-121l-74 -41l-41 -195q77 -235 106 -502l166 725l-24 13v121h518v-121l-96 -45l-289 -1266h-406q1 9 11 43z" />
    <glyph glyph-name="Wacute" unicode="&#x1e82;" horiz-adv-x="1558" 
d="M854 1827h164l-164 -240h-133zM756 59q54 391 -41 766l-170 -825h-189l-262 1270l-74 41v121h334v-121l-67 -37l164 -807l163 807l-69 37v121h336v-121l-74 -41l-41 -195q77 -235 106 -502l166 725l-24 13v121h518v-121l-96 -45l-289 -1266h-406q1 9 11 43z" />
    <glyph glyph-name="wacute" unicode="&#x1e83;" horiz-adv-x="1558" 
d="M854 1827h164l-164 -240h-133zM756 59q54 391 -41 766l-170 -825h-189l-262 1270l-74 41v121h334v-121l-67 -37l164 -807l163 807l-69 37v121h336v-121l-74 -41l-41 -195q77 -235 106 -502l166 725l-24 13v121h518v-121l-96 -45l-289 -1266h-406q1 9 11 43z" />
    <glyph glyph-name="Wdieresis" unicode="&#x1e84;" horiz-adv-x="1558" 
d="M739 1661q0 -54 -24.5 -91.5t-59.5 -37.5t-59.5 37.5t-24.5 91.5t24.5 91.5t59.5 37.5t59.5 -37.5t24.5 -91.5zM985 1661q0 -54 -24 -91.5t-58 -37.5q-35 0 -59.5 37.5t-24.5 91.5t24.5 91.5t59.5 37.5q34 0 58 -37.5t24 -91.5zM756 59q54 391 -41 766l-170 -825h-189
l-262 1270l-74 41v121h334v-121l-67 -37l164 -807l163 807l-69 37v121h336v-121l-74 -41l-41 -195q77 -235 106 -502l166 725l-24 13v121h518v-121l-96 -45l-289 -1266h-406q1 9 11 43z" />
    <glyph glyph-name="wdieresis" unicode="&#x1e85;" horiz-adv-x="1558" 
d="M739 1661q0 -54 -24.5 -91.5t-59.5 -37.5t-59.5 37.5t-24.5 91.5t24.5 91.5t59.5 37.5t59.5 -37.5t24.5 -91.5zM985 1661q0 -54 -24 -91.5t-58 -37.5q-35 0 -59.5 37.5t-24.5 91.5t24.5 91.5t59.5 37.5q34 0 58 -37.5t24 -91.5zM756 59q54 391 -41 766l-170 -825h-189
l-262 1270l-74 41v121h334v-121l-67 -37l164 -807l163 807l-69 37v121h336v-121l-74 -41l-41 -195q77 -235 106 -502l166 725l-24 13v121h518v-121l-96 -45l-289 -1266h-406q1 9 11 43z" />
    <glyph glyph-name="endash" unicode="&#x2013;" horiz-adv-x="686" 
d="M37 778h610v-268h-610v268z" />
    <glyph glyph-name="emdash" unicode="&#x2014;" horiz-adv-x="1017" 
d="M37 778h944v-256h-944v256z" />
    <glyph glyph-name="quoteleft" unicode="&#x2018;" horiz-adv-x="370" 
d="M207 893h-94q-30 -1 -52 33t-22 82v65q0 102 16.5 179.5t44 125.5t66.5 78t79 41.5t87 11.5v-92q-58 3 -102 -50q-41 -48 -30 -90q7 -26 36 -36q12 -4 21 -12.5t14.5 -22.5t8.5 -26t4 -32.5t1.5 -32t0 -35t-0.5 -31.5v-35q0 -50 -23.5 -84.5t-54.5 -36.5z" />
    <glyph glyph-name="quoteright" unicode="&#x2019;" horiz-adv-x="368" 
d="M332 1329q0 -126 -24.5 -215.5t-67.5 -136t-91.5 -66.5t-107.5 -20v94q56 -3 101 50q40 48 30 90q-7 26 -35 36q-13 4 -22 12.5t-14.5 22.5t-9 25.5t-4.5 32.5t-1.5 32.5t0 35.5t0.5 32v35q0 50 23.5 83t56.5 35h92q30 1 52 -32.5t22 -79.5v-66z" />
    <glyph glyph-name="quotesinglbase" unicode="&#x201a;" horiz-adv-x="323" 
d="M287 168q0 -102 -16.5 -179.5t-44 -125.5t-66.5 -78t-79 -41.5t-87 -11.5v92q58 -4 104 51q40 49 29 90q-7 25 -35 35q-13 4 -22 12.5t-14.5 22.5t-9 26t-4.5 33t-1.5 32.5t0 35t0.5 31.5v34q0 50 23.5 84.5t56.5 36.5h92q31 0 52.5 -34t21.5 -81v-65z" />
    <glyph glyph-name="quotedblleft" unicode="&#x201c;" horiz-adv-x="645" 
d="M578 1012q0 -50 -23 -83.5t-55 -35.5l-94 -2q-31 0 -52.5 34t-21.5 81v65q0 102 16.5 179.5t44 125.5t66.5 78t79 41.5t87 11.5v-92q-58 3 -103 -50q-41 -48 -30 -90q7 -26 36 -36q12 -4 21 -12t14.5 -22.5t9 -25.5t4.5 -32.5t1.5 -32t0 -35.5t-0.5 -32v-35zM279 1012
q0 -50 -22.5 -83.5t-55.5 -35.5l-92 -2q-32 0 -54 33.5t-22 81.5v65q0 101 17 179t44 126t66.5 78t79 41.5t86.5 11.5v-92q-57 4 -102 -51q-41 -49 -29 -90q6 -25 34 -35q12 -4 21 -12t14.5 -22.5t9 -25.5t4.5 -32.5t1.5 -32t0 -35.5t-0.5 -32v-35z" />
    <glyph glyph-name="quotedblright" unicode="&#x201d;" horiz-adv-x="667" 
d="M332 1329q0 -126 -24.5 -215.5t-67.5 -136t-91.5 -66.5t-107.5 -20v94q56 -3 101 50q40 48 30 90q-7 26 -35 36q-13 4 -22 12.5t-14.5 22.5t-9 25.5t-4.5 32.5t-1.5 32.5t0 35.5t0.5 32v35q0 50 23.5 83t56.5 35h92q30 1 52 -32.5t22 -79.5v-66zM631 1329
q0 -102 -16.5 -180t-44 -126t-66.5 -78.5t-79 -42t-87 -11.5v94q58 -3 102 50q41 48 30 90q-7 26 -36 36q-12 4 -21 12.5t-14.5 22.5t-8.5 25.5t-4 32t-1.5 32.5t0 35.5t0.5 32.5v35q0 50 23 83t55 35h94q30 1 52 -32.5t22 -79.5v-66z" />
    <glyph glyph-name="quotedblbase" unicode="&#x201e;" horiz-adv-x="634" 
d="M287 168q0 -102 -16.5 -179.5t-44 -125.5t-66.5 -78t-79 -41.5t-87 -11.5v92q58 -4 104 51q40 49 29 90q-7 25 -35 35q-13 4 -22 12.5t-14.5 22.5t-9 26t-4.5 33t-1.5 32.5t0 35t0.5 31.5v34q0 50 23.5 84.5t56.5 36.5h92q31 0 52.5 -34t21.5 -81v-65zM600 168
q0 -101 -17 -179t-44 -126t-66.5 -78t-79 -41.5t-86.5 -11.5v92q56 -3 101 50q40 48 30 90q-7 26 -35 36q-10 3 -17.5 9t-13 15.5t-9 18.5t-6 22.5t-4 23.5t-1.5 26.5v26v27v24.5l2 34q-1 50 22 84.5t56 36.5h92q31 0 53.5 -34t22.5 -81v-65z" />
    <glyph glyph-name="bullet" unicode="&#x2022;" horiz-adv-x="663" 
d="M416 561q0 -58 -26.5 -99.5t-63.5 -41.5h-160q-37 0 -62.5 41t-25.5 100v254q0 59 25.5 100t62.5 41h160q37 0 63.5 -41.5t26.5 -99.5v-254z" />
    <glyph glyph-name="ellipsis" unicode="&#x2026;" horiz-adv-x="921" 
d="M268 98q0 -40 -18.5 -69t-44.5 -29h-115q-26 0 -44.5 29t-18.5 69v176q0 41 18.5 70t44.5 29h115q27 0 45 -28.5t18 -70.5v-176zM578 98q0 -40 -19 -69t-47 -29h-115q-26 0 -44.5 29t-18.5 69v176q0 41 18.5 70t44.5 29h115q28 0 47 -29t19 -70v-176zM885 98
q0 -40 -19 -69t-47 -29h-112q-28 0 -47 29t-19 69v176q0 41 19 70t45 29h114q28 0 47 -29t19 -70v-176z" />
    <glyph glyph-name="guilsinglleft" unicode="&#x2039;" horiz-adv-x="704" 
d="M86 657l594 -237l-57 -281l-625 320v446l625 320l47 -273l-584 -245v-50z" />
    <glyph glyph-name="guilsinglright" unicode="&#x203a;" horiz-adv-x="663" 
d="M696 905v-446l-622 -320l-60 281l594 237v50l-581 245l47 273z" />
    <glyph glyph-name="Euro" unicode="&#x20ac;" horiz-adv-x="610" 
d="M479 535h70l2 -533h-31q-108 0 -191 40.5t-133 112.5t-75 166t-25 207l2 156h-137v98h137v56h-137v96h137q7 245 116 370.5t306 125.5h27l-2 -365q-46 2 -79 -1.5t-67 -16t-56 -41t-32 -72.5h201v-96h-207v-56h207v-98h-188q25 -68 70 -108.5t85 -40.5z" />
    <glyph glyph-name="minus" unicode="&#x2212;" horiz-adv-x="681" 
d="M74 778h551v-293h-551v293z" />
    <glyph glyph-name="uni261C" unicode="&#x261c;" horiz-adv-x="1527" 
d="M850 244q-59 -19 -92 -19q-54 0 -75.5 15.5t-49.5 66.5q-93 29 -72 125v2q-49 25 -61.5 75.5t28.5 113.5q0 4 -2 4q-9 1 -22.5 3.5t-18.5 3t-14 1t-15.5 -1t-15.5 -4.5q-31 -10 -47 -14.5t-49 -11.5t-53 -5.5t-60 2.5q-93 12 -149 80q-45 55 -30 99q10 26 40 36
q76 25 227 25q82 0 251.5 -9.5t213.5 -5.5q15 43 48.5 69t74.5 26q50 0 106 -38.5t107 -117.5h8q71 14 134 -98q1 -3 56 -6t66 -3q28 0 45.5 -8t22.5 -33q6 -49 2 -123t-10 -87q-2 -5 -4 -8.5t-7 -6t-10 -3.5t-14 -2t-18.5 -1.5t-25 -0.5h-31h-39t-46.5 -1q-6 1 -15 -8.5
t-18 -21.5t-27.5 -23.5t-41.5 -12.5q-29 -2 -84 -2q-16 3 -29 -10q-46 -58 -116 -67q-26 -3 -48 6q-8 4 -20 0zM895 272q0 -4 2 -2h12q66 10 120 80t65 142q4 4 4 0q5 -10 1 -33t-11 -53l-7 -29q15 11 25 24l2 -2q-5 -20 -31 -51q-3 -4 13 -5q33 -1 53 3q68 4 92 125
q29 178 -53 244q-24 17 -32 13q-2 -1 -1 -3q34 -73 8 -129q0 -2 -2 -2t-2 2v31q-10 -29 -41.5 -69t-56.5 -48q-2 2 -2 4q2 3 9.5 12t10 12.5t8.5 11.5t8.5 13l7 14t7 16.5t5.5 18t4.5 21.5t2.5 24q6 75 -69 152.5t-146 77.5q-31 0 -53 -20.5t-29 -61.5q-1 -5 3 -33t-7 -57
q-3 -8 -8.5 -26t-7 -24t-5.5 -19.5t-5.5 -18.5t-4 -15t-2.5 -14.5t-1 -12.5t-0.5 -13.5t1 -12t2.5 -12.5q8 -27 31 -53q21 -21 49 -21q44 0 78 40.5t27 104.5q-2 40 -10 88t-12.5 72.5t-0.5 24.5q11 0 45 -162q13 -59 -5.5 -114.5t-67.5 -77.5l-3 -3q13 -22 12 -34.5
t-16 -34.5q-2 -2 0 -2q24 -55 -16 -103zM502 664q137 -34 176 -36q36 -2 80 5h2q32 89 31 92q-7 16 -15 72q-58 -3 -112 -1.5t-162.5 5.5t-175.5 4q-169 0 -224 -23q-26 -11 -13 -47q17 -47 78 -75q50 -23 116 -23q70 0 161 29q12 3 35 32.5t31 28.5q0 -2 -12 -61zM532 526
q3 -39 40 -57t81 -18q43 0 101 20q16 8 26 16q-35 49 -26 113l-2 2q-38 -10 -70 -10q-51 0 -113 20q-43 -34 -37 -86zM1262 442q110 -7 129 -8q15 0 20 17q-24 2 -72 3t-71 3h-4q-2 -6 -2 -15zM621 350q35 -17 79 -14q93 6 170 53q16 12 23 19q6 9 0 20q-8 12 -19 12
q-26 -3 -51 9q-5 2 -49 -9q-1 0 -16.5 -6t-30 -10t-41.5 -7t-55 -1q-24 4 -39 4q-3 -23 2 -41t27 -29zM659 299q4 -14 13.5 -22.5t25 -12t26 -4t28.5 -0.5q61 0 102.5 25t30.5 69l-2 2q-130 -66 -221 -55q-3 3 -3 -2z" />
    <glyph glyph-name="uni261D" unicode="&#x261d;" horiz-adv-x="1527" 
d="M623 -74q-10 -77 -60 -129.5t-98 -52.5q-42 0 -57 43q-23 72 -23 214.5t8 288.5t4 191q-45 16 -69 51.5t-22.5 80.5t40.5 99.5t113 102.5v8q-14 70 98 133q3 1 5.5 56t2.5 67q0 28 8 45.5t33 22.5q49 6 123.5 2t87.5 -10q5 -2 8.5 -4t6 -6.5t3.5 -9.5t2 -14t1.5 -18.5
t0.5 -25v-31v-39.5t1 -47q-1 -6 8 -15t21.5 -18t23.5 -27.5t12 -41.5q2 -29 2 -84q0 -19 13 -29q56 -44 65 -117q6 -23 -6 -47q-3 -10 2 -20q29 -81 6 -154q-2 -10 -6 -17.5t-12 -13.5t-13 -9.5t-19.5 -11t-21.5 -11.5q-30 -94 -124 -70q-33 -68 -101 -68q-46 0 -90 33h-4
q-9 -62 -2 -88q41 -108 29 -209zM766 963q10 -7 14 -7q6 75 8 129q0 16 -14 23l-4 -2q-1 -16 -1.5 -66.5t-2.5 -76.5zM508 512q47 -16 62 -20.5t40 -10.5t38 -5t28 5q27 5 53 31q19 18 19.5 46.5t-14.5 53.5t-50 41.5t-80 12.5q-39 -3 -87 -11.5t-72.5 -13t-24.5 -0.5
q0 11 164 47q58 11 113.5 -8.5t76.5 -67.5q2 -2 4 -2q20 13 31 13q12 0 39 -17q19 8 41 8q34 0 61 -24q4 0 4 2q-2 6 -2 12q-10 67 -78.5 120.5t-142.5 68.5q10 5 33 1t52 -11l30 -7q-12 17 -25 25q0 4 4 4q13 -5 52 -31q4 -4 3 35q0 7 -1 19v10q-2 29 -26 50.5t-60 31.5
t-67 14t-60 4q-110 0 -158 -61q-17 -25 -13 -31q1 -1 3 0q45 20 77 20q28 0 52 -12q4 -4 0 -4h-29q2 -1 11 -6t16.5 -9.5t18 -11.5t18.5 -14q10 -8 28.5 -28t22.5 -29q-6 4 -22.5 14.5t-25.5 15.5t-25 12.5t-33.5 11t-39.5 5.5q-74 6 -150 -65q-68 -65 -78 -133
q-11 -77 71 -97l8 -2q6 -1 34 3.5t56 -5.5zM803 287q25 -3 41 2q18 5 28 26q18 37 15 80q-6 98 -53 170q-4 8 -19 23q-9 9 -18 0q-15 -8 -15 -17q3 -30 -8 -53q-1 -2 8 -49q0 -1 4.5 -11.5t8 -20.5t8 -29t5 -37t-0.5 -45q0 -6 -2 -18t-2 -21zM868 578q66 -126 54 -222
q30 6 36 33q8 45 4.5 91.5t-29.5 78t-65 23.5v-4zM440 -203q6 -16 29 -16q35 0 68.5 37.5t48.5 117.5t-27 203q-3 10 -19.5 23.5t-30 25t-11.5 17.5q5 -1 26.5 -4.5t36.5 -3.5q3 15 11.5 50.5t10.5 45t7 34t5.5 33.5t1.5 27.5t-0.5 33t-4.5 32.5l-2 2q-88 32 -92 30
q-10 -5 -72 -14q4 -41 -2.5 -190t-5.5 -290t22 -194zM612 266q29 -42 86 -39q41 3 58 45q14 30 16 61.5t-3 56.5t-17 59q-1 6 -17 26q-49 -32 -112 -26q-2 0 -2 -3q27 -78 -9 -178v-2z" />
    <glyph glyph-name="uni261E" unicode="&#x261e;" horiz-adv-x="1527" 
d="M895 307q-28 -51 -49.5 -66.5t-75.5 -15.5q-33 0 -92 19q-13 4 -21 0q-21 -9 -47 -6q-70 9 -116 67q-12 12 -27 10q-57 0 -86 2q-23 1 -41.5 12.5t-27.5 23.5t-18 21.5t-15 8.5q-23 1 -46.5 1h-39h-31t-25 0.5t-18.5 1.5t-14 2t-10 3.5t-7 6t-4 8.5q-4 15 -8.5 87.5
t0.5 122.5q5 25 22 33t45 8q11 0 67.5 3t57.5 6q59 112 133 98h5q53 79 109 117.5t106 38.5q41 0 74 -26t48 -69q44 -4 213.5 5.5t251.5 9.5q152 0 228 -25q52 -16 42 -70q-10 -56 -71 -101q-50 -36 -111 -44q-40 -1 -60 -2.5t-53 5.5t-49 11.5t-47 14.5q-9 3 -15.5 4.5
t-15.5 1t-14 -1t-18.5 -3t-22.5 -3.5q-2 0 -2 -4q42 -63 30 -113.5t-62 -75.5v-2q24 -95 -72 -125zM631 270q1 -2 2 -1t0 3q-41 50 -15 103l-2 2q-15 22 -16 34.5t12 34.5q0 3 -2 3q-49 22 -67.5 77.5t-5.5 114.5q34 162 45 162q4 0 -0.5 -24.5t-12.5 -72.5t-10 -88
q-7 -64 27 -104.5t78 -40.5q28 0 49 21q21 25 30 53q5 35 0.5 61t-25.5 92q-3 10 -5 15q-11 29 -7 57t3 33q-7 41 -29 61.5t-53 20.5q-71 0 -146 -77.5t-69 -152.5q1 -14 3.5 -27t4.5 -22.5t7 -20.5l7.5 -16.5t10 -16t9 -13t11 -14t10.5 -13.5v-4q-15 5 -61 51
q-30 38 -39 66v-31q0 -2 -2 -2t-2 2q-26 56 8 129q1 3 -4 3q-11 0 -29 -13q-84 -68 -51 -244q6 -47 28 -84.5t62 -40.5q21 -5 56 -2q12 1 10 4q-22 26 -31 51q6 -4 15 -11.5t14 -10.5q-4 9 -15.5 59t-3.5 56q2 2 4 0q12 -72 65 -142t119 -80h13zM770 633q67 -8 103 -3
t130 28q5 1 7.5 2t7 2t8.5 2q2 0 4 2q-12 59 -12 61q8 1 31.5 -28.5t33.5 -32.5q91 -29 162 -29q117 0 173 64q33 38 21 67q-5 10 -14 14q-55 23 -223 23q-67 0 -175.5 -4t-162.5 -5.5t-112 1.5q-8 -56 -15 -72q-1 -3 33 -92zM774 471q58 -20 100 -20q44 0 81 18t40 57
q6 52 -37 86q-62 -20 -112 -20q-32 0 -70 10q0 2 -1 1t-1 -3q9 -63 -24 -113v-2q8 -6 24 -14zM117 451q5 -11 8 -14t12 -3q27 1 129 6q0 11 -2 17q-28 -2 -78.5 -2.5t-66.5 -1.5zM657 389q80 -47 170 -53q44 -3 80 14q22 11 27 29t2 41q-15 0 -39 -4q-28 -2 -55 1t-41.5 7
t-30 10t-16.5 6q-44 11 -49 9q-25 -12 -52 -9q-10 0 -18 -12q-6 -11 0 -20q10 -10 22 -19zM643 354q-11 -44 30.5 -69t102.5 -25q18 0 28.5 0.5t25.5 4t24.5 12t13.5 22.5q0 4 -2 2q-91 -11 -221 55q-2 0 -2 -2z" />
    <glyph glyph-name="T_T" horiz-adv-x="1693" 
d="M582 158l69 -37v-121h-336v121l76 -6q0 90 1 351t1 392h-260l-20 -110h-80v684h1628v-684h-78l-22 110h-281l-2 -700l70 -37v-121h-334v121l73 41l5 696h-510v-700z" />
    <glyph glyph-name="t_t" horiz-adv-x="1693" 
d="M582 158l69 -37v-121h-336v121l76 -6q0 90 1 351t1 392h-260l-20 -110h-80v684h1628v-684h-78l-22 110h-281l-2 -700l70 -37v-121h-334v121l73 41l5 696h-510v-700z" />
    <glyph glyph-name="L_E" horiz-adv-x="1005" 
d="M584 987h231v-299h-369v275l39 16l2 383l-41 14v60h369v-181h-41l-22 97h-166l-2 -113l73 -2l15 59h41v-266h-41l-13 57h-75v-100zM901 700h80v-702h-963v528l95 37l2 705l-76 41v121h334v-121l-72 -39v-699h571z" />
    <glyph glyph-name="l_e" horiz-adv-x="1005" 
d="M584 987h231v-299h-369v275l39 16l2 383l-41 14v60h369v-181h-41l-22 97h-166l-2 -113l73 -2l15 59h41v-266h-41l-13 57h-75v-100zM901 700h80v-702h-963v528l95 37l2 705l-76 41v121h334v-121l-72 -39v-699h571z" />
    <glyph glyph-name="L_L" horiz-adv-x="1021" 
d="M823 1057h43v-363h-458v273l51 18v365l-41 22v62h231v-62l-39 -20v-361h197zM920 700h79v-702h-981v528l95 37l2 705l-76 41v121h334v-121l-72 -39v-699h590z" />
    <glyph glyph-name="l_l" horiz-adv-x="1021" 
d="M823 1057h43v-363h-458v273l51 18v365l-41 22v62h231v-62l-39 -20v-361h197zM920 700h79v-702h-981v528l95 37l2 705l-76 41v121h334v-121l-72 -39v-699h590z" />
    <glyph glyph-name="N_T_H" horiz-adv-x="2371" 
d="M1309 158l69 -37v-121h-334v121l74 41l4 880h-989l-22 -112h-80v506h2300v-506h-80l-23 112h-917zM289 98l69 -22v-76h-333v76l75 -2q0 56 1 219t1 244h-77v360h266q55 0 93.5 -62.5t61.5 -158t43 -195t49.5 -188t69.5 -121.5l-2 369l-106 26v330h479v-897h-371
q-80 1 -126.5 49t-63 119t-26.5 143.5t-33 135t-68 81.5zM1704 104l70 -22v-74h-336v74l75 27l5 684l-76 24v76h334v-76l-72 -24v-344q67 69 180 79v269l-74 20v76h519v-76l-72 -20v-693l72 -22v-74h-519v74l74 20v306q-36 -2 -65 -19t-47.5 -44t-32 -56t-20.5 -62.5
t-10.5 -56t-4.5 -43.5v-23z" />
    <glyph glyph-name="n_t_h" horiz-adv-x="2371" 
d="M1309 158l69 -37v-121h-334v121l74 41l4 880h-989l-22 -112h-80v506h2300v-506h-80l-23 112h-917zM289 98l69 -22v-76h-333v76l75 -2q0 56 1 219t1 244h-77v360h266q55 0 93.5 -62.5t61.5 -158t43 -195t49.5 -188t69.5 -121.5l-2 369l-106 26v330h479v-897h-371
q-80 1 -126.5 49t-63 119t-26.5 143.5t-33 135t-68 81.5zM1704 104l70 -22v-74h-336v74l75 27l5 684l-76 24v76h334v-76l-72 -24v-344q67 69 180 79v269l-74 20v76h519v-76l-72 -20v-693l72 -22v-74h-519v74l74 20v306q-36 -2 -65 -19t-47.5 -44t-32 -56t-20.5 -62.5
t-10.5 -56t-4.5 -43.5v-23z" />
    <glyph glyph-name="T_H_E" horiz-adv-x="2367" 
d="M582 158l69 -37v-121h-336v121l76 41l4 696h-260l-22 -110h-80v684h1548v-684h-78l-22 110h-899v-700zM1849 551h467v-574h-712v529l77 31l2 739l-79 24v115h712v-162h-2v-182h-78l-43 182h-321l-2 -215l141 -4l27 117h80v-516h-80l-25 110h-143zM956 82l70 -19v-61h-336
v61l76 21l8 553q-13 3 -32 8t-31.5 8t-16.5 4v62h334v-62l-72 -18v-281q70 59 181 66v217l-74 16v62h518v-62l-72 -16l2 -561q14 -4 29.5 -7.5t27 -6t13.5 -3.5v-61h-518v61l74 17v248q-43 -3 -76.5 -23t-52 -46t-30.5 -60t-16 -56.5t-6 -44.5v-16z" />
    <glyph glyph-name="L_A" horiz-adv-x="1146" 
d="M627 727l14 -6v-66h-281v66l52 24q120 529 139 609l-45 14v64h280q15 -71 72 -344.5t72 -344.5l39 -22v-66h-183v66l35 18q-1 36 -14.5 64t-30.5 43.5t-40.5 26t-39.5 13.5t-32 5q-25 -110 -37 -164zM1040 700h78v-702h-1100v528l95 37l2 705l-76 41v121h334v-121
l-72 -39v-699h711zM684 979q46 -2 98 -33q-2 10 -6 31t-6 31l-25 122q-2 10 -6 31t-6 31q-30 -128 -49 -213z" />
    <glyph glyph-name="l_a" horiz-adv-x="1146" 
d="M627 727l14 -6v-66h-281v66l52 24q120 529 139 609l-45 14v64h280q15 -71 72 -344.5t72 -344.5l39 -22v-66h-183v66l35 18q-1 36 -14.5 64t-30.5 43.5t-40.5 26t-39.5 13.5t-32 5q-25 -110 -37 -164zM1040 700h78v-702h-1100v528l95 37l2 705l-76 41v121h334v-121
l-72 -39v-699h711zM684 979q46 -2 98 -33q-2 10 -6 31t-6 31l-25 122q-2 10 -6 31t-6 31q-30 -128 -49 -213z" />
    <glyph glyph-name="E.ss01" horiz-adv-x="1261" 
d="M229 571h996v-573h-1200v528l77 31l4 739l-81 25v113h1200v-342h-80l-41 182h-811v-215l629 -6l26 116h78v-514h-78l-26 109l-629 2z" />
    <glyph glyph-name="h.ss01" horiz-adv-x="1390" 
d="M291 156l67 -37v-121h-333v121l75 43l4 1106l-77 41v121h335v-121l-71 -39v-717q86 141 225 221t303 80q60 0 96 -8v430l-71 33v121h71l373 2v-2h74v-121l-74 -33v-1122l74 -35v-121h-518v121l71 35v469q-65 10 -108 10q-76 0 -143.5 -21.5t-116 -53.5t-90.5 -79t-68 -89
t-48 -92.5t-32 -80.5t-18 -61z" />
    <glyph glyph-name="K.ss01" horiz-adv-x="839" 
d="M1477 39h77v-549h-733q-73 0 -130.5 42.5t-94.5 114t-65 164.5t-45 196t-31.5 206.5t-28.5 197t-31 166.5t-44 117.5t-64 46.5v-583l71 -39v-121h-333v121l71 41l4 1108l-75 41v125h333v-125l-71 -39v-301l235 342l-16 6l-2 117h356l2 -117l-114 -47h-13l-299 -441
q64 -35 112.5 -103.5t76 -150.5t47.5 -173.5t34.5 -176t30 -154t40 -113.5t59.5 -48h649z" />
    <glyph glyph-name="dieresis.case" horiz-adv-x="309" 
d="M135 1251q0 -54 -24.5 -91.5t-59.5 -37.5q-34 0 -59 37.5t-25 91.5t25 91.5t59 37.5q35 0 59.5 -37.5t24.5 -91.5zM383 1251q0 -54 -24.5 -91.5t-59.5 -37.5t-59.5 37.5t-24.5 91.5t24.5 91.5t59.5 37.5t59.5 -37.5t24.5 -91.5z" />
    <glyph glyph-name="macron.case" horiz-adv-x="495" 
d="M33 1311h428v-178h-428v178z" />
    <glyph glyph-name="circumflex.case" horiz-adv-x="446" 
d="M307 1139l-86 149l-82 -149h-139l117 295h209l120 -295h-139z" />
    <glyph glyph-name="caron.case" horiz-adv-x="501" 
d="M395 1411h125l-194 -317h-86l-201 317h133l104 -223z" />
    <glyph glyph-name="breve.case" horiz-adv-x="446" 
d="M307 1434h139l-120 -295h-209l-117 295h139l82 -150z" />
    <glyph glyph-name="dotaccent.case" horiz-adv-x="305" 
d="M252 1229q0 -34 -16 -58t-39 -24h-99q-22 0 -37.5 24t-15.5 58v147q0 35 15.5 59.5t37.5 24.5h99q23 0 39 -24.5t16 -59.5v-147z" />
    <glyph glyph-name="ring.case" horiz-adv-x="278" 
d="M283 1292q0 -91 -40.5 -154t-99.5 -63q-58 0 -98.5 63t-40.5 154q0 90 40.5 152.5t98.5 62.5t99 -63t41 -152zM63 1292q0 -52 24 -89.5t56 -37.5q35 0 57.5 37t22.5 90q0 52 -22.5 87.5t-57.5 35.5q-32 0 -56 -36t-24 -87z" />
    <glyph glyph-name="tilde.case" horiz-adv-x="532" 
d="M477 1085q-35 -12 -65 -12q-38 0 -106 22.5t-103 22.5q-51 0 -97 -33v162q45 37 95 37q31 0 92.5 -22.5t97.5 -22.5q44 0 86 27v-181z" />
    <glyph glyph-name="hungarumlaut.case" horiz-adv-x="583" 
d="M236 1434h174l-187 -248h-121zM461 1434h174l-189 -248h-118z" />
    <glyph glyph-name="caron.salt" horiz-adv-x="501" 
d="M395 1411h125l-194 -317h-86l-201 317h133l104 -223z" />
    <glyph glyph-name="uni261f.ss01" horiz-adv-x="1527" 
d="M922 4q-49 -6 -123.5 -2t-87.5 10q-5 2 -8.5 4t-6 6.5t-3.5 9.5t-2 14t-1.5 18.5t-0.5 25v31v39.5t-1 47q1 6 -8 14.5t-21.5 17.5t-23.5 27.5t-12 42.5q-2 29 -2 84q0 19 -13 29q-56 44 -65 115q-6 26 6 47q4 7 0 22q-30 81 -8 154q3 10 6.5 17t12 14t12 9.5t19.5 11
t21 11.5q30 94 125 70q15 31 42.5 49.5t60.5 18.5q44 0 88 -33h4q9 62 2 86q-41 111 -29 209q10 78 60 130t98 52q43 0 57 -43q23 -71 23 -213t-8.5 -287.5t-4.5 -191.5q1 0 3 -2q35 -12 58.5 -37t29.5 -59t-5 -72.5t-49 -82t-98 -83.5v-6q14 -70 -98 -133q-3 -1 -5.5 -56
t-2.5 -67q0 -28 -8 -45.5t-33 -22.5zM938 696q88 -32 92 -30q10 5 72 14q-4 41 2.5 190t5 289.5t-22.5 192.5q-6 16 -28 16q-19 0 -40 -13t-40.5 -41.5t-30 -68.5t-6 -101t28.5 -132q3 -12 32.5 -35.5t28.5 -30.5q-2 -2 -4 -2q-9 1 -28 6t-29 6l-4 -2q-4 -15 -11 -45t-9 -40
t-6.5 -31.5t-5.5 -30.5t-3 -25.5t-1 -27.5t2.5 -25.5t4.5 -30.5v-2zM776 700q2 -9 17 -24q49 32 112 26q2 0 2 3q-26 74 8 178v2q-29 42 -86 39q-37 -3 -57 -45q-33 -71 4 -179zM713 563q8 -8 20 -2q12 8 12 19q-3 27 9 51q1 2 -9 49q0 1 -6.5 17t-10 29.5t-7.5 42.5t0 56
l6 35q0 4 -2 4q-21 0 -29.5 -0.5t-20.5 -7t-20 -20.5q-17 -38 -14 -80q6 -97 53 -172l4 -4l11 -13zM569 762q-15 -74 8.5 -139.5t81.5 -53.5q3 0 3 4q-67 124 -56 222q-31 -9 -37 -33zM649 311q2 -29 26.5 -49.5t60.5 -30.5t67 -14t59 -4q110 0 158 61q14 17 13 29q0 3 -3 2
q-45 -20 -78 -20q-27 0 -51 12q-4 4 0 4h29q-2 1 -11 6t-16.5 9.5t-18 11.5t-18.5 14q-10 8 -28.5 28t-22.5 29q5 -3 28 -18t33.5 -20.5t35 -13t51.5 -9.5q72 -5 148 66q68 63 79 131q12 77 -70 98l-10 2q-8 2 -34 -1.5t-56 5.5q-103 34 -129 35q-19 1 -39 -4
q-28 -6 -53 -31q-19 -18 -19 -46.5t15 -53.5t50 -41.5t79 -12.5q39 3 87 11.5t72.5 13t24.5 0.5q0 -13 -164 -47q-58 -11 -113.5 8.5t-76.5 67.5q-2 2 -4 0q-20 -13 -31 -13q-14 0 -39 19q-19 -8 -41 -8q-30 0 -61 22h-5q2 -6 2 -12q10 -67 79 -120.5t143 -68.5
q-10 -5 -33 -1t-52 11l-30 7q8 -14 25 -25l-2 -4q-28 9 -54 31q-4 4 -3 -31q0 -8 1 -23v-12zM739 66q0 -16 15 -23q4 0 4 2q1 16 1.5 66t2.5 77q-7 5 -14 7q-2 -32 -3.5 -52.5t-2.5 -26.5t-1.5 -11.5t-0.5 -12.5t-1 -26z" />
    <glyph glyph-name="acute.case" horiz-adv-x="290" 
d="M-14 1843h164l-164 -239h-136z" />
    </font>
</defs>
</svg>
